<?xml version="1.0" encoding="utf-8" standalone="no"?>
<!DOCTYPE svg PUBLIC "-//W3C//DTD SVG 1.1//EN"
  "http://www.w3.org/Graphics/SVG/1.1/DTD/svg11.dtd">
<svg xmlns:xlink="http://www.w3.org/1999/xlink" width="576pt" height="432pt" viewBox="0 0 576 432" xmlns="http://www.w3.org/2000/svg" version="1.1">
 <metadata>
  <rdf:RDF xmlns:dc="http://purl.org/dc/elements/1.1/" xmlns:cc="http://creativecommons.org/ns#" xmlns:rdf="http://www.w3.org/1999/02/22-rdf-syntax-ns#">
   <cc:Work>
    <dc:type rdf:resource="http://purl.org/dc/dcmitype/StillImage"/>
    <dc:date>2026-04-19T14:12:03.970689</dc:date>
    <dc:format>image/svg+xml</dc:format>
    <dc:creator>
     <cc:Agent>
      <dc:title>Matplotlib v3.10.8, https://matplotlib.org/</dc:title>
     </cc:Agent>
    </dc:creator>
   </cc:Work>
  </rdf:RDF>
 </metadata>
 <defs>
  <style type="text/css">*{stroke-linejoin: round; stroke-linecap: butt}</style>
 </defs>
 <g id="figure_1">
  <g id="patch_1">
   <path d="M 0 432 
L 576 432 
L 576 0 
L 0 0 
z
" style="fill: #ffffff"/>
  </g>
  <g id="axes_1">
   <g id="patch_2">
    <path d="M 54.11 193.27 
L 565.2 193.27 
L 565.2 26.88 
L 54.11 26.88 
z
" style="fill: #ffffff"/>
   </g>
   <g id="matplotlib.axis_1">
    <g id="xtick_1">
     <g id="line2d_1">
      <path d="M 77.341364 193.27 
L 77.341364 26.88 
" clip-path="url(#p40735cd228)" style="fill: none; stroke: #b0b0b0; stroke-opacity: 0.3; stroke-width: 0.8; stroke-linecap: square"/>
     </g>
     <g id="line2d_2">
      <defs>
       <path id="mcb396ff76c" d="M 0 0 
L 0 3.5 
" style="stroke: #000000; stroke-width: 0.8"/>
      </defs>
      <g>
       <use xlink:href="#mcb396ff76c" x="77.341364" y="193.27" style="stroke: #000000; stroke-width: 0.8"/>
      </g>
     </g>
    </g>
    <g id="xtick_2">
     <g id="line2d_3">
      <path d="M 171.205459 193.27 
L 171.205459 26.88 
" clip-path="url(#p40735cd228)" style="fill: none; stroke: #b0b0b0; stroke-opacity: 0.3; stroke-width: 0.8; stroke-linecap: square"/>
     </g>
     <g id="line2d_4">
      <g>
       <use xlink:href="#mcb396ff76c" x="171.205459" y="193.27" style="stroke: #000000; stroke-width: 0.8"/>
      </g>
     </g>
    </g>
    <g id="xtick_3">
     <g id="line2d_5">
      <path d="M 265.069555 193.27 
L 265.069555 26.88 
" clip-path="url(#p40735cd228)" style="fill: none; stroke: #b0b0b0; stroke-opacity: 0.3; stroke-width: 0.8; stroke-linecap: square"/>
     </g>
     <g id="line2d_6">
      <g>
       <use xlink:href="#mcb396ff76c" x="265.069555" y="193.27" style="stroke: #000000; stroke-width: 0.8"/>
      </g>
     </g>
    </g>
    <g id="xtick_4">
     <g id="line2d_7">
      <path d="M 358.93365 193.27 
L 358.93365 26.88 
" clip-path="url(#p40735cd228)" style="fill: none; stroke: #b0b0b0; stroke-opacity: 0.3; stroke-width: 0.8; stroke-linecap: square"/>
     </g>
     <g id="line2d_8">
      <g>
       <use xlink:href="#mcb396ff76c" x="358.93365" y="193.27" style="stroke: #000000; stroke-width: 0.8"/>
      </g>
     </g>
    </g>
    <g id="xtick_5">
     <g id="line2d_9">
      <path d="M 452.797746 193.27 
L 452.797746 26.88 
" clip-path="url(#p40735cd228)" style="fill: none; stroke: #b0b0b0; stroke-opacity: 0.3; stroke-width: 0.8; stroke-linecap: square"/>
     </g>
     <g id="line2d_10">
      <g>
       <use xlink:href="#mcb396ff76c" x="452.797746" y="193.27" style="stroke: #000000; stroke-width: 0.8"/>
      </g>
     </g>
    </g>
    <g id="xtick_6">
     <g id="line2d_11">
      <path d="M 546.661841 193.27 
L 546.661841 26.88 
" clip-path="url(#p40735cd228)" style="fill: none; stroke: #b0b0b0; stroke-opacity: 0.3; stroke-width: 0.8; stroke-linecap: square"/>
     </g>
     <g id="line2d_12">
      <g>
       <use xlink:href="#mcb396ff76c" x="546.661841" y="193.27" style="stroke: #000000; stroke-width: 0.8"/>
      </g>
     </g>
    </g>
   </g>
   <g id="matplotlib.axis_2">
    <g id="ytick_1">
     <g id="line2d_13">
      <path d="M 54.11 185.706818 
L 565.2 185.706818 
" clip-path="url(#p40735cd228)" style="fill: none; stroke: #b0b0b0; stroke-opacity: 0.3; stroke-width: 0.8; stroke-linecap: square"/>
     </g>
     <g id="line2d_14">
      <defs>
       <path id="mbd27f1ad0b" d="M 0 0 
L -3.5 0 
" style="stroke: #000000; stroke-width: 0.8"/>
      </defs>
      <g>
       <use xlink:href="#mbd27f1ad0b" x="54.11" y="185.706818" style="stroke: #000000; stroke-width: 0.8"/>
      </g>
     </g>
     <g id="text_1">
      <!-- 8.0 -->
      <g transform="translate(31.206875 189.506037) scale(0.1 -0.1)">
       <defs>
        <path id="DejaVuSans-38" d="M 2034 2216 
Q 1584 2216 1326 1975 
Q 1069 1734 1069 1313 
Q 1069 891 1326 650 
Q 1584 409 2034 409 
Q 2484 409 2743 651 
Q 3003 894 3003 1313 
Q 3003 1734 2745 1975 
Q 2488 2216 2034 2216 
z
M 1403 2484 
Q 997 2584 770 2862 
Q 544 3141 544 3541 
Q 544 4100 942 4425 
Q 1341 4750 2034 4750 
Q 2731 4750 3128 4425 
Q 3525 4100 3525 3541 
Q 3525 3141 3298 2862 
Q 3072 2584 2669 2484 
Q 3125 2378 3379 2068 
Q 3634 1759 3634 1313 
Q 3634 634 3220 271 
Q 2806 -91 2034 -91 
Q 1263 -91 848 271 
Q 434 634 434 1313 
Q 434 1759 690 2068 
Q 947 2378 1403 2484 
z
M 1172 3481 
Q 1172 3119 1398 2916 
Q 1625 2713 2034 2713 
Q 2441 2713 2670 2916 
Q 2900 3119 2900 3481 
Q 2900 3844 2670 4047 
Q 2441 4250 2034 4250 
Q 1625 4250 1398 4047 
Q 1172 3844 1172 3481 
z
" transform="scale(0.015625)"/>
        <path id="DejaVuSans-2e" d="M 684 794 
L 1344 794 
L 1344 0 
L 684 0 
L 684 794 
z
" transform="scale(0.015625)"/>
        <path id="DejaVuSans-30" d="M 2034 4250 
Q 1547 4250 1301 3770 
Q 1056 3291 1056 2328 
Q 1056 1369 1301 889 
Q 1547 409 2034 409 
Q 2525 409 2770 889 
Q 3016 1369 3016 2328 
Q 3016 3291 2770 3770 
Q 2525 4250 2034 4250 
z
M 2034 4750 
Q 2819 4750 3233 4129 
Q 3647 3509 3647 2328 
Q 3647 1150 3233 529 
Q 2819 -91 2034 -91 
Q 1250 -91 836 529 
Q 422 1150 422 2328 
Q 422 3509 836 4129 
Q 1250 4750 2034 4750 
z
" transform="scale(0.015625)"/>
       </defs>
       <use xlink:href="#DejaVuSans-38"/>
       <use xlink:href="#DejaVuSans-2e" transform="translate(63.623047 0)"/>
       <use xlink:href="#DejaVuSans-30" transform="translate(95.410156 0)"/>
      </g>
     </g>
    </g>
    <g id="ytick_2">
     <g id="line2d_15">
      <path d="M 54.11 160.496212 
L 565.2 160.496212 
" clip-path="url(#p40735cd228)" style="fill: none; stroke: #b0b0b0; stroke-opacity: 0.3; stroke-width: 0.8; stroke-linecap: square"/>
     </g>
     <g id="line2d_16">
      <g>
       <use xlink:href="#mbd27f1ad0b" x="54.11" y="160.496212" style="stroke: #000000; stroke-width: 0.8"/>
      </g>
     </g>
     <g id="text_2">
      <!-- 8.5 -->
      <g transform="translate(31.206875 164.295431) scale(0.1 -0.1)">
       <defs>
        <path id="DejaVuSans-35" d="M 691 4666 
L 3169 4666 
L 3169 4134 
L 1269 4134 
L 1269 2991 
Q 1406 3038 1543 3061 
Q 1681 3084 1819 3084 
Q 2600 3084 3056 2656 
Q 3513 2228 3513 1497 
Q 3513 744 3044 326 
Q 2575 -91 1722 -91 
Q 1428 -91 1123 -41 
Q 819 9 494 109 
L 494 744 
Q 775 591 1075 516 
Q 1375 441 1709 441 
Q 2250 441 2565 725 
Q 2881 1009 2881 1497 
Q 2881 1984 2565 2268 
Q 2250 2553 1709 2553 
Q 1456 2553 1204 2497 
Q 953 2441 691 2322 
L 691 4666 
z
" transform="scale(0.015625)"/>
       </defs>
       <use xlink:href="#DejaVuSans-38"/>
       <use xlink:href="#DejaVuSans-2e" transform="translate(63.623047 0)"/>
       <use xlink:href="#DejaVuSans-35" transform="translate(95.410156 0)"/>
      </g>
     </g>
    </g>
    <g id="ytick_3">
     <g id="line2d_17">
      <path d="M 54.11 135.285606 
L 565.2 135.285606 
" clip-path="url(#p40735cd228)" style="fill: none; stroke: #b0b0b0; stroke-opacity: 0.3; stroke-width: 0.8; stroke-linecap: square"/>
     </g>
     <g id="line2d_18">
      <g>
       <use xlink:href="#mbd27f1ad0b" x="54.11" y="135.285606" style="stroke: #000000; stroke-width: 0.8"/>
      </g>
     </g>
     <g id="text_3">
      <!-- 9.0 -->
      <g transform="translate(31.206875 139.084825) scale(0.1 -0.1)">
       <defs>
        <path id="DejaVuSans-39" d="M 703 97 
L 703 672 
Q 941 559 1184 500 
Q 1428 441 1663 441 
Q 2288 441 2617 861 
Q 2947 1281 2994 2138 
Q 2813 1869 2534 1725 
Q 2256 1581 1919 1581 
Q 1219 1581 811 2004 
Q 403 2428 403 3163 
Q 403 3881 828 4315 
Q 1253 4750 1959 4750 
Q 2769 4750 3195 4129 
Q 3622 3509 3622 2328 
Q 3622 1225 3098 567 
Q 2575 -91 1691 -91 
Q 1453 -91 1209 -44 
Q 966 3 703 97 
z
M 1959 2075 
Q 2384 2075 2632 2365 
Q 2881 2656 2881 3163 
Q 2881 3666 2632 3958 
Q 2384 4250 1959 4250 
Q 1534 4250 1286 3958 
Q 1038 3666 1038 3163 
Q 1038 2656 1286 2365 
Q 1534 2075 1959 2075 
z
" transform="scale(0.015625)"/>
       </defs>
       <use xlink:href="#DejaVuSans-39"/>
       <use xlink:href="#DejaVuSans-2e" transform="translate(63.623047 0)"/>
       <use xlink:href="#DejaVuSans-30" transform="translate(95.410156 0)"/>
      </g>
     </g>
    </g>
    <g id="ytick_4">
     <g id="line2d_19">
      <path d="M 54.11 110.075 
L 565.2 110.075 
" clip-path="url(#p40735cd228)" style="fill: none; stroke: #b0b0b0; stroke-opacity: 0.3; stroke-width: 0.8; stroke-linecap: square"/>
     </g>
     <g id="line2d_20">
      <g>
       <use xlink:href="#mbd27f1ad0b" x="54.11" y="110.075" style="stroke: #000000; stroke-width: 0.8"/>
      </g>
     </g>
     <g id="text_4">
      <!-- 9.5 -->
      <g transform="translate(31.206875 113.874219) scale(0.1 -0.1)">
       <use xlink:href="#DejaVuSans-39"/>
       <use xlink:href="#DejaVuSans-2e" transform="translate(63.623047 0)"/>
       <use xlink:href="#DejaVuSans-35" transform="translate(95.410156 0)"/>
      </g>
     </g>
    </g>
    <g id="ytick_5">
     <g id="line2d_21">
      <path d="M 54.11 84.864394 
L 565.2 84.864394 
" clip-path="url(#p40735cd228)" style="fill: none; stroke: #b0b0b0; stroke-opacity: 0.3; stroke-width: 0.8; stroke-linecap: square"/>
     </g>
     <g id="line2d_22">
      <g>
       <use xlink:href="#mbd27f1ad0b" x="54.11" y="84.864394" style="stroke: #000000; stroke-width: 0.8"/>
      </g>
     </g>
     <g id="text_5">
      <!-- 10.0 -->
      <g transform="translate(24.844375 88.663613) scale(0.1 -0.1)">
       <defs>
        <path id="DejaVuSans-31" d="M 794 531 
L 1825 531 
L 1825 4091 
L 703 3866 
L 703 4441 
L 1819 4666 
L 2450 4666 
L 2450 531 
L 3481 531 
L 3481 0 
L 794 0 
L 794 531 
z
" transform="scale(0.015625)"/>
       </defs>
       <use xlink:href="#DejaVuSans-31"/>
       <use xlink:href="#DejaVuSans-30" transform="translate(63.623047 0)"/>
       <use xlink:href="#DejaVuSans-2e" transform="translate(127.246094 0)"/>
       <use xlink:href="#DejaVuSans-30" transform="translate(159.033203 0)"/>
      </g>
     </g>
    </g>
    <g id="ytick_6">
     <g id="line2d_23">
      <path d="M 54.11 59.653788 
L 565.2 59.653788 
" clip-path="url(#p40735cd228)" style="fill: none; stroke: #b0b0b0; stroke-opacity: 0.3; stroke-width: 0.8; stroke-linecap: square"/>
     </g>
     <g id="line2d_24">
      <g>
       <use xlink:href="#mbd27f1ad0b" x="54.11" y="59.653788" style="stroke: #000000; stroke-width: 0.8"/>
      </g>
     </g>
     <g id="text_6">
      <!-- 10.5 -->
      <g transform="translate(24.844375 63.453007) scale(0.1 -0.1)">
       <use xlink:href="#DejaVuSans-31"/>
       <use xlink:href="#DejaVuSans-30" transform="translate(63.623047 0)"/>
       <use xlink:href="#DejaVuSans-2e" transform="translate(127.246094 0)"/>
       <use xlink:href="#DejaVuSans-35" transform="translate(159.033203 0)"/>
      </g>
     </g>
    </g>
    <g id="ytick_7">
     <g id="line2d_25">
      <path d="M 54.11 34.443182 
L 565.2 34.443182 
" clip-path="url(#p40735cd228)" style="fill: none; stroke: #b0b0b0; stroke-opacity: 0.3; stroke-width: 0.8; stroke-linecap: square"/>
     </g>
     <g id="line2d_26">
      <g>
       <use xlink:href="#mbd27f1ad0b" x="54.11" y="34.443182" style="stroke: #000000; stroke-width: 0.8"/>
      </g>
     </g>
     <g id="text_7">
      <!-- 11.0 -->
      <g transform="translate(24.844375 38.242401) scale(0.1 -0.1)">
       <use xlink:href="#DejaVuSans-31"/>
       <use xlink:href="#DejaVuSans-31" transform="translate(63.623047 0)"/>
       <use xlink:href="#DejaVuSans-2e" transform="translate(127.246094 0)"/>
       <use xlink:href="#DejaVuSans-30" transform="translate(159.033203 0)"/>
      </g>
     </g>
    </g>
    <g id="text_8">
     <!-- episode reward -->
     <g transform="translate(18.764688 148.533594) rotate(-90) scale(0.1 -0.1)">
      <defs>
       <path id="DejaVuSans-65" d="M 3597 1894 
L 3597 1613 
L 953 1613 
Q 991 1019 1311 708 
Q 1631 397 2203 397 
Q 2534 397 2845 478 
Q 3156 559 3463 722 
L 3463 178 
Q 3153 47 2828 -22 
Q 2503 -91 2169 -91 
Q 1331 -91 842 396 
Q 353 884 353 1716 
Q 353 2575 817 3079 
Q 1281 3584 2069 3584 
Q 2775 3584 3186 3129 
Q 3597 2675 3597 1894 
z
M 3022 2063 
Q 3016 2534 2758 2815 
Q 2500 3097 2075 3097 
Q 1594 3097 1305 2825 
Q 1016 2553 972 2059 
L 3022 2063 
z
" transform="scale(0.015625)"/>
       <path id="DejaVuSans-70" d="M 1159 525 
L 1159 -1331 
L 581 -1331 
L 581 3500 
L 1159 3500 
L 1159 2969 
Q 1341 3281 1617 3432 
Q 1894 3584 2278 3584 
Q 2916 3584 3314 3078 
Q 3713 2572 3713 1747 
Q 3713 922 3314 415 
Q 2916 -91 2278 -91 
Q 1894 -91 1617 61 
Q 1341 213 1159 525 
z
M 3116 1747 
Q 3116 2381 2855 2742 
Q 2594 3103 2138 3103 
Q 1681 3103 1420 2742 
Q 1159 2381 1159 1747 
Q 1159 1113 1420 752 
Q 1681 391 2138 391 
Q 2594 391 2855 752 
Q 3116 1113 3116 1747 
z
" transform="scale(0.015625)"/>
       <path id="DejaVuSans-69" d="M 603 3500 
L 1178 3500 
L 1178 0 
L 603 0 
L 603 3500 
z
M 603 4863 
L 1178 4863 
L 1178 4134 
L 603 4134 
L 603 4863 
z
" transform="scale(0.015625)"/>
       <path id="DejaVuSans-73" d="M 2834 3397 
L 2834 2853 
Q 2591 2978 2328 3040 
Q 2066 3103 1784 3103 
Q 1356 3103 1142 2972 
Q 928 2841 928 2578 
Q 928 2378 1081 2264 
Q 1234 2150 1697 2047 
L 1894 2003 
Q 2506 1872 2764 1633 
Q 3022 1394 3022 966 
Q 3022 478 2636 193 
Q 2250 -91 1575 -91 
Q 1294 -91 989 -36 
Q 684 19 347 128 
L 347 722 
Q 666 556 975 473 
Q 1284 391 1588 391 
Q 1994 391 2212 530 
Q 2431 669 2431 922 
Q 2431 1156 2273 1281 
Q 2116 1406 1581 1522 
L 1381 1569 
Q 847 1681 609 1914 
Q 372 2147 372 2553 
Q 372 3047 722 3315 
Q 1072 3584 1716 3584 
Q 2034 3584 2315 3537 
Q 2597 3491 2834 3397 
z
" transform="scale(0.015625)"/>
       <path id="DejaVuSans-6f" d="M 1959 3097 
Q 1497 3097 1228 2736 
Q 959 2375 959 1747 
Q 959 1119 1226 758 
Q 1494 397 1959 397 
Q 2419 397 2687 759 
Q 2956 1122 2956 1747 
Q 2956 2369 2687 2733 
Q 2419 3097 1959 3097 
z
M 1959 3584 
Q 2709 3584 3137 3096 
Q 3566 2609 3566 1747 
Q 3566 888 3137 398 
Q 2709 -91 1959 -91 
Q 1206 -91 779 398 
Q 353 888 353 1747 
Q 353 2609 779 3096 
Q 1206 3584 1959 3584 
z
" transform="scale(0.015625)"/>
       <path id="DejaVuSans-64" d="M 2906 2969 
L 2906 4863 
L 3481 4863 
L 3481 0 
L 2906 0 
L 2906 525 
Q 2725 213 2448 61 
Q 2172 -91 1784 -91 
Q 1150 -91 751 415 
Q 353 922 353 1747 
Q 353 2572 751 3078 
Q 1150 3584 1784 3584 
Q 2172 3584 2448 3432 
Q 2725 3281 2906 2969 
z
M 947 1747 
Q 947 1113 1208 752 
Q 1469 391 1925 391 
Q 2381 391 2643 752 
Q 2906 1113 2906 1747 
Q 2906 2381 2643 2742 
Q 2381 3103 1925 3103 
Q 1469 3103 1208 2742 
Q 947 2381 947 1747 
z
" transform="scale(0.015625)"/>
       <path id="DejaVuSans-20" transform="scale(0.015625)"/>
       <path id="DejaVuSans-72" d="M 2631 2963 
Q 2534 3019 2420 3045 
Q 2306 3072 2169 3072 
Q 1681 3072 1420 2755 
Q 1159 2438 1159 1844 
L 1159 0 
L 581 0 
L 581 3500 
L 1159 3500 
L 1159 2956 
Q 1341 3275 1631 3429 
Q 1922 3584 2338 3584 
Q 2397 3584 2469 3576 
Q 2541 3569 2628 3553 
L 2631 2963 
z
" transform="scale(0.015625)"/>
       <path id="DejaVuSans-77" d="M 269 3500 
L 844 3500 
L 1563 769 
L 2278 3500 
L 2956 3500 
L 3675 769 
L 4391 3500 
L 4966 3500 
L 4050 0 
L 3372 0 
L 2619 2869 
L 1863 0 
L 1184 0 
L 269 3500 
z
" transform="scale(0.015625)"/>
       <path id="DejaVuSans-61" d="M 2194 1759 
Q 1497 1759 1228 1600 
Q 959 1441 959 1056 
Q 959 750 1161 570 
Q 1363 391 1709 391 
Q 2188 391 2477 730 
Q 2766 1069 2766 1631 
L 2766 1759 
L 2194 1759 
z
M 3341 1997 
L 3341 0 
L 2766 0 
L 2766 531 
Q 2569 213 2275 61 
Q 1981 -91 1556 -91 
Q 1019 -91 701 211 
Q 384 513 384 1019 
Q 384 1609 779 1909 
Q 1175 2209 1959 2209 
L 2766 2209 
L 2766 2266 
Q 2766 2663 2505 2880 
Q 2244 3097 1772 3097 
Q 1472 3097 1187 3025 
Q 903 2953 641 2809 
L 641 3341 
Q 956 3463 1253 3523 
Q 1550 3584 1831 3584 
Q 2591 3584 2966 3190 
Q 3341 2797 3341 1997 
z
" transform="scale(0.015625)"/>
      </defs>
      <use xlink:href="#DejaVuSans-65"/>
      <use xlink:href="#DejaVuSans-70" transform="translate(61.523438 0)"/>
      <use xlink:href="#DejaVuSans-69" transform="translate(125 0)"/>
      <use xlink:href="#DejaVuSans-73" transform="translate(152.783203 0)"/>
      <use xlink:href="#DejaVuSans-6f" transform="translate(204.882812 0)"/>
      <use xlink:href="#DejaVuSans-64" transform="translate(266.064453 0)"/>
      <use xlink:href="#DejaVuSans-65" transform="translate(329.541016 0)"/>
      <use xlink:href="#DejaVuSans-20" transform="translate(391.064453 0)"/>
      <use xlink:href="#DejaVuSans-72" transform="translate(422.851562 0)"/>
      <use xlink:href="#DejaVuSans-65" transform="translate(461.714844 0)"/>
      <use xlink:href="#DejaVuSans-77" transform="translate(523.238281 0)"/>
      <use xlink:href="#DejaVuSans-61" transform="translate(605.025391 0)"/>
      <use xlink:href="#DejaVuSans-72" transform="translate(666.304688 0)"/>
      <use xlink:href="#DejaVuSans-64" transform="translate(705.667969 0)"/>
     </g>
    </g>
   </g>
   <g id="line2d_27">
    <path d="M 77.341364 34.443182 
L 82.034568 84.864394 
L 86.727773 135.285606 
L 91.420978 135.285606 
L 96.114183 185.706818 
L 100.807388 135.285606 
L 105.500592 84.864394 
L 110.193797 135.285606 
L 114.887002 84.864394 
L 119.580207 135.285606 
L 124.273411 135.285606 
L 128.966616 135.285606 
L 133.659821 84.864394 
L 138.353026 135.285606 
L 143.04623 135.285606 
L 147.739435 84.864394 
L 152.43264 84.864394 
L 157.125845 135.285606 
L 161.81905 84.864394 
L 166.512254 84.864394 
L 171.205459 84.864394 
L 175.898664 135.285606 
L 180.591869 84.864394 
L 185.285073 84.864394 
L 189.978278 135.285606 
L 194.671483 84.864394 
L 199.364688 84.864394 
L 204.057893 84.864394 
L 208.751097 135.285606 
L 213.444302 135.285606 
L 218.137507 84.864394 
L 222.830712 135.285606 
L 227.523916 84.864394 
L 232.217121 185.706818 
L 236.910326 84.864394 
L 241.603531 185.706818 
L 246.296736 185.706818 
L 250.98994 84.864394 
L 255.683145 135.285606 
L 260.37635 84.864394 
L 265.069555 185.706818 
L 269.762759 84.864394 
L 274.455964 185.706818 
L 279.149169 84.864394 
L 283.842374 135.285606 
L 288.535579 135.285606 
L 293.228783 84.864394 
L 297.921988 84.864394 
L 302.615193 135.285606 
L 307.308398 84.864394 
L 312.001602 84.864394 
L 316.694807 135.285606 
L 321.388012 135.285606 
L 326.081217 135.285606 
L 330.774421 185.706818 
L 335.467626 135.285606 
L 340.160831 34.443182 
L 344.854036 84.864394 
L 349.547241 135.285606 
L 354.240445 185.706818 
L 358.93365 185.706818 
L 363.626855 84.864394 
L 368.32006 84.864394 
L 373.013264 135.285606 
L 377.706469 185.706818 
L 382.399674 135.285606 
L 387.092879 185.706818 
L 391.786084 135.285606 
L 396.479288 84.864394 
L 401.172493 84.864394 
L 405.865698 135.285606 
L 410.558903 84.864394 
L 415.252107 135.285606 
L 419.945312 135.285606 
L 424.638517 84.864394 
L 429.331722 84.864394 
L 434.024927 84.864394 
L 438.718131 135.285606 
L 443.411336 84.864394 
L 448.104541 84.864394 
L 452.797746 185.706818 
L 457.49095 84.864394 
L 462.184155 135.285606 
L 466.87736 84.864394 
L 471.570565 84.864394 
L 476.26377 135.285606 
L 480.956974 84.864394 
L 485.650179 135.285606 
L 490.343384 84.864394 
L 495.036589 84.864394 
L 499.729793 135.285606 
L 504.422998 84.864394 
L 509.116203 135.285606 
L 513.809408 135.285606 
L 518.502612 84.864394 
L 523.195817 135.285606 
L 527.889022 135.285606 
L 532.582227 84.864394 
L 537.275432 185.706818 
L 541.968636 84.864394 
" clip-path="url(#p40735cd228)" style="fill: none; stroke: #1f77b4; stroke-width: 1.5; stroke-linecap: square"/>
   </g>
   <g id="line2d_28">
    <path d="M 312.001602 193.27 
L 312.001602 26.88 
" clip-path="url(#p40735cd228)" style="fill: none; stroke-dasharray: 5.55,2.4; stroke-dashoffset: 0; stroke: #000000; stroke-width: 1.5"/>
   </g>
   <g id="patch_3">
    <path d="M 54.11 193.27 
L 54.11 26.88 
" style="fill: none; stroke: #000000; stroke-width: 0.8; stroke-linejoin: miter; stroke-linecap: square"/>
   </g>
   <g id="patch_4">
    <path d="M 565.2 193.27 
L 565.2 26.88 
" style="fill: none; stroke: #000000; stroke-width: 0.8; stroke-linejoin: miter; stroke-linecap: square"/>
   </g>
   <g id="patch_5">
    <path d="M 54.11 193.27 
L 565.2 193.27 
" style="fill: none; stroke: #000000; stroke-width: 0.8; stroke-linejoin: miter; stroke-linecap: square"/>
   </g>
   <g id="patch_6">
    <path d="M 54.11 26.88 
L 565.2 26.88 
" style="fill: none; stroke: #000000; stroke-width: 0.8; stroke-linejoin: miter; stroke-linecap: square"/>
   </g>
   <g id="text_9">
    <!-- Reward over episodes -->
    <g transform="translate(243.52375 20.88) scale(0.12 -0.12)">
     <defs>
      <path id="DejaVuSans-52" d="M 2841 2188 
Q 3044 2119 3236 1894 
Q 3428 1669 3622 1275 
L 4263 0 
L 3584 0 
L 2988 1197 
Q 2756 1666 2539 1819 
Q 2322 1972 1947 1972 
L 1259 1972 
L 1259 0 
L 628 0 
L 628 4666 
L 2053 4666 
Q 2853 4666 3247 4331 
Q 3641 3997 3641 3322 
Q 3641 2881 3436 2590 
Q 3231 2300 2841 2188 
z
M 1259 4147 
L 1259 2491 
L 2053 2491 
Q 2509 2491 2742 2702 
Q 2975 2913 2975 3322 
Q 2975 3731 2742 3939 
Q 2509 4147 2053 4147 
L 1259 4147 
z
" transform="scale(0.015625)"/>
      <path id="DejaVuSans-76" d="M 191 3500 
L 800 3500 
L 1894 563 
L 2988 3500 
L 3597 3500 
L 2284 0 
L 1503 0 
L 191 3500 
z
" transform="scale(0.015625)"/>
     </defs>
     <use xlink:href="#DejaVuSans-52"/>
     <use xlink:href="#DejaVuSans-65" transform="translate(64.982422 0)"/>
     <use xlink:href="#DejaVuSans-77" transform="translate(126.505859 0)"/>
     <use xlink:href="#DejaVuSans-61" transform="translate(208.292969 0)"/>
     <use xlink:href="#DejaVuSans-72" transform="translate(269.572266 0)"/>
     <use xlink:href="#DejaVuSans-64" transform="translate(308.935547 0)"/>
     <use xlink:href="#DejaVuSans-20" transform="translate(372.412109 0)"/>
     <use xlink:href="#DejaVuSans-6f" transform="translate(404.199219 0)"/>
     <use xlink:href="#DejaVuSans-76" transform="translate(465.380859 0)"/>
     <use xlink:href="#DejaVuSans-65" transform="translate(524.560547 0)"/>
     <use xlink:href="#DejaVuSans-72" transform="translate(586.083984 0)"/>
     <use xlink:href="#DejaVuSans-20" transform="translate(627.197266 0)"/>
     <use xlink:href="#DejaVuSans-65" transform="translate(658.984375 0)"/>
     <use xlink:href="#DejaVuSans-70" transform="translate(720.507812 0)"/>
     <use xlink:href="#DejaVuSans-69" transform="translate(783.984375 0)"/>
     <use xlink:href="#DejaVuSans-73" transform="translate(811.767578 0)"/>
     <use xlink:href="#DejaVuSans-6f" transform="translate(863.867188 0)"/>
     <use xlink:href="#DejaVuSans-64" transform="translate(925.048828 0)"/>
     <use xlink:href="#DejaVuSans-65" transform="translate(988.525391 0)"/>
     <use xlink:href="#DejaVuSans-73" transform="translate(1050.048828 0)"/>
    </g>
   </g>
   <g id="legend_1">
    <g id="patch_7">
     <path d="M 472.65375 56.765 
L 559.6 56.765 
Q 561.2 56.765 561.2 55.165 
L 561.2 32.48 
Q 561.2 30.88 559.6 30.88 
L 472.65375 30.88 
Q 471.05375 30.88 471.05375 32.48 
L 471.05375 55.165 
Q 471.05375 56.765 472.65375 56.765 
z
" style="fill: #ffffff; opacity: 0.8; stroke: #cccccc; stroke-linejoin: miter"/>
    </g>
    <g id="line2d_29">
     <path d="M 474.25375 37.35875 
L 482.25375 37.35875 
L 490.25375 37.35875 
" style="fill: none; stroke: #1f77b4; stroke-width: 1.5; stroke-linecap: square"/>
    </g>
    <g id="text_10">
     <!-- reward -->
     <g transform="translate(496.65375 40.15875) scale(0.08 -0.08)">
      <use xlink:href="#DejaVuSans-72"/>
      <use xlink:href="#DejaVuSans-65" transform="translate(38.863281 0)"/>
      <use xlink:href="#DejaVuSans-77" transform="translate(100.386719 0)"/>
      <use xlink:href="#DejaVuSans-61" transform="translate(182.173828 0)"/>
      <use xlink:href="#DejaVuSans-72" transform="translate(243.453125 0)"/>
      <use xlink:href="#DejaVuSans-64" transform="translate(282.816406 0)"/>
     </g>
    </g>
    <g id="line2d_30">
     <path d="M 474.25375 49.10125 
L 482.25375 49.10125 
L 490.25375 49.10125 
" style="fill: none; stroke-dasharray: 5.55,2.4; stroke-dashoffset: 0; stroke: #000000; stroke-width: 1.5"/>
    </g>
    <g id="text_11">
     <!-- switch @ ep 50 -->
     <g transform="translate(496.65375 51.90125) scale(0.08 -0.08)">
      <defs>
       <path id="DejaVuSans-74" d="M 1172 4494 
L 1172 3500 
L 2356 3500 
L 2356 3053 
L 1172 3053 
L 1172 1153 
Q 1172 725 1289 603 
Q 1406 481 1766 481 
L 2356 481 
L 2356 0 
L 1766 0 
Q 1100 0 847 248 
Q 594 497 594 1153 
L 594 3053 
L 172 3053 
L 172 3500 
L 594 3500 
L 594 4494 
L 1172 4494 
z
" transform="scale(0.015625)"/>
       <path id="DejaVuSans-63" d="M 3122 3366 
L 3122 2828 
Q 2878 2963 2633 3030 
Q 2388 3097 2138 3097 
Q 1578 3097 1268 2742 
Q 959 2388 959 1747 
Q 959 1106 1268 751 
Q 1578 397 2138 397 
Q 2388 397 2633 464 
Q 2878 531 3122 666 
L 3122 134 
Q 2881 22 2623 -34 
Q 2366 -91 2075 -91 
Q 1284 -91 818 406 
Q 353 903 353 1747 
Q 353 2603 823 3093 
Q 1294 3584 2113 3584 
Q 2378 3584 2631 3529 
Q 2884 3475 3122 3366 
z
" transform="scale(0.015625)"/>
       <path id="DejaVuSans-68" d="M 3513 2113 
L 3513 0 
L 2938 0 
L 2938 2094 
Q 2938 2591 2744 2837 
Q 2550 3084 2163 3084 
Q 1697 3084 1428 2787 
Q 1159 2491 1159 1978 
L 1159 0 
L 581 0 
L 581 4863 
L 1159 4863 
L 1159 2956 
Q 1366 3272 1645 3428 
Q 1925 3584 2291 3584 
Q 2894 3584 3203 3211 
Q 3513 2838 3513 2113 
z
" transform="scale(0.015625)"/>
       <path id="DejaVuSans-40" d="M 2381 1678 
Q 2381 1231 2603 976 
Q 2825 722 3213 722 
Q 3597 722 3817 978 
Q 4038 1234 4038 1678 
Q 4038 2116 3813 2373 
Q 3588 2631 3206 2631 
Q 2828 2631 2604 2375 
Q 2381 2119 2381 1678 
z
M 4084 744 
Q 3897 503 3655 389 
Q 3413 275 3091 275 
Q 2553 275 2217 664 
Q 1881 1053 1881 1678 
Q 1881 2303 2218 2693 
Q 2556 3084 3091 3084 
Q 3413 3084 3656 2967 
Q 3900 2850 4084 2613 
L 4084 3022 
L 4531 3022 
L 4531 722 
Q 4988 791 5245 1139 
Q 5503 1488 5503 2041 
Q 5503 2375 5404 2669 
Q 5306 2963 5106 3213 
Q 4781 3622 4314 3839 
Q 3847 4056 3297 4056 
Q 2913 4056 2559 3954 
Q 2206 3853 1906 3653 
Q 1416 3334 1139 2817 
Q 863 2300 863 1697 
Q 863 1200 1042 765 
Q 1222 331 1563 0 
Q 1891 -325 2322 -495 
Q 2753 -666 3244 -666 
Q 3647 -666 4036 -530 
Q 4425 -394 4750 -141 
L 5031 -488 
Q 4641 -791 4180 -952 
Q 3719 -1113 3244 -1113 
Q 2666 -1113 2153 -908 
Q 1641 -703 1241 -313 
Q 841 78 631 592 
Q 422 1106 422 1697 
Q 422 2266 634 2781 
Q 847 3297 1241 3688 
Q 1644 4084 2172 4295 
Q 2700 4506 3291 4506 
Q 3953 4506 4520 4234 
Q 5088 3963 5472 3463 
Q 5706 3156 5829 2797 
Q 5953 2438 5953 2053 
Q 5953 1231 5456 756 
Q 4959 281 4084 263 
L 4084 744 
z
" transform="scale(0.015625)"/>
      </defs>
      <use xlink:href="#DejaVuSans-73"/>
      <use xlink:href="#DejaVuSans-77" transform="translate(52.099609 0)"/>
      <use xlink:href="#DejaVuSans-69" transform="translate(133.886719 0)"/>
      <use xlink:href="#DejaVuSans-74" transform="translate(161.669922 0)"/>
      <use xlink:href="#DejaVuSans-63" transform="translate(200.878906 0)"/>
      <use xlink:href="#DejaVuSans-68" transform="translate(255.859375 0)"/>
      <use xlink:href="#DejaVuSans-20" transform="translate(319.238281 0)"/>
      <use xlink:href="#DejaVuSans-40" transform="translate(351.025391 0)"/>
      <use xlink:href="#DejaVuSans-20" transform="translate(451.025391 0)"/>
      <use xlink:href="#DejaVuSans-65" transform="translate(482.8125 0)"/>
      <use xlink:href="#DejaVuSans-70" transform="translate(544.335938 0)"/>
      <use xlink:href="#DejaVuSans-20" transform="translate(607.8125 0)"/>
      <use xlink:href="#DejaVuSans-35" transform="translate(639.599609 0)"/>
      <use xlink:href="#DejaVuSans-30" transform="translate(703.222656 0)"/>
     </g>
    </g>
   </g>
  </g>
  <g id="axes_2">
   <g id="patch_8">
    <path d="M 54.11 390.04 
L 565.2 390.04 
L 565.2 223.65 
L 54.11 223.65 
z
" style="fill: #ffffff"/>
   </g>
   <g id="matplotlib.axis_3">
    <g id="xtick_7">
     <g id="line2d_31">
      <path d="M 77.341364 390.04 
L 77.341364 223.65 
" clip-path="url(#p31a4b28361)" style="fill: none; stroke: #b0b0b0; stroke-opacity: 0.3; stroke-width: 0.8; stroke-linecap: square"/>
     </g>
     <g id="line2d_32">
      <g>
       <use xlink:href="#mcb396ff76c" x="77.341364" y="390.04" style="stroke: #000000; stroke-width: 0.8"/>
      </g>
     </g>
     <g id="text_12">
      <!-- 0 -->
      <g transform="translate(74.160114 404.638437) scale(0.1 -0.1)">
       <use xlink:href="#DejaVuSans-30"/>
      </g>
     </g>
    </g>
    <g id="xtick_8">
     <g id="line2d_33">
      <path d="M 171.205459 390.04 
L 171.205459 223.65 
" clip-path="url(#p31a4b28361)" style="fill: none; stroke: #b0b0b0; stroke-opacity: 0.3; stroke-width: 0.8; stroke-linecap: square"/>
     </g>
     <g id="line2d_34">
      <g>
       <use xlink:href="#mcb396ff76c" x="171.205459" y="390.04" style="stroke: #000000; stroke-width: 0.8"/>
      </g>
     </g>
     <g id="text_13">
      <!-- 20 -->
      <g transform="translate(164.842959 404.638437) scale(0.1 -0.1)">
       <defs>
        <path id="DejaVuSans-32" d="M 1228 531 
L 3431 531 
L 3431 0 
L 469 0 
L 469 531 
Q 828 903 1448 1529 
Q 2069 2156 2228 2338 
Q 2531 2678 2651 2914 
Q 2772 3150 2772 3378 
Q 2772 3750 2511 3984 
Q 2250 4219 1831 4219 
Q 1534 4219 1204 4116 
Q 875 4013 500 3803 
L 500 4441 
Q 881 4594 1212 4672 
Q 1544 4750 1819 4750 
Q 2544 4750 2975 4387 
Q 3406 4025 3406 3419 
Q 3406 3131 3298 2873 
Q 3191 2616 2906 2266 
Q 2828 2175 2409 1742 
Q 1991 1309 1228 531 
z
" transform="scale(0.015625)"/>
       </defs>
       <use xlink:href="#DejaVuSans-32"/>
       <use xlink:href="#DejaVuSans-30" transform="translate(63.623047 0)"/>
      </g>
     </g>
    </g>
    <g id="xtick_9">
     <g id="line2d_35">
      <path d="M 265.069555 390.04 
L 265.069555 223.65 
" clip-path="url(#p31a4b28361)" style="fill: none; stroke: #b0b0b0; stroke-opacity: 0.3; stroke-width: 0.8; stroke-linecap: square"/>
     </g>
     <g id="line2d_36">
      <g>
       <use xlink:href="#mcb396ff76c" x="265.069555" y="390.04" style="stroke: #000000; stroke-width: 0.8"/>
      </g>
     </g>
     <g id="text_14">
      <!-- 40 -->
      <g transform="translate(258.707055 404.638437) scale(0.1 -0.1)">
       <defs>
        <path id="DejaVuSans-34" d="M 2419 4116 
L 825 1625 
L 2419 1625 
L 2419 4116 
z
M 2253 4666 
L 3047 4666 
L 3047 1625 
L 3713 1625 
L 3713 1100 
L 3047 1100 
L 3047 0 
L 2419 0 
L 2419 1100 
L 313 1100 
L 313 1709 
L 2253 4666 
z
" transform="scale(0.015625)"/>
       </defs>
       <use xlink:href="#DejaVuSans-34"/>
       <use xlink:href="#DejaVuSans-30" transform="translate(63.623047 0)"/>
      </g>
     </g>
    </g>
    <g id="xtick_10">
     <g id="line2d_37">
      <path d="M 358.93365 390.04 
L 358.93365 223.65 
" clip-path="url(#p31a4b28361)" style="fill: none; stroke: #b0b0b0; stroke-opacity: 0.3; stroke-width: 0.8; stroke-linecap: square"/>
     </g>
     <g id="line2d_38">
      <g>
       <use xlink:href="#mcb396ff76c" x="358.93365" y="390.04" style="stroke: #000000; stroke-width: 0.8"/>
      </g>
     </g>
     <g id="text_15">
      <!-- 60 -->
      <g transform="translate(352.57115 404.638437) scale(0.1 -0.1)">
       <defs>
        <path id="DejaVuSans-36" d="M 2113 2584 
Q 1688 2584 1439 2293 
Q 1191 2003 1191 1497 
Q 1191 994 1439 701 
Q 1688 409 2113 409 
Q 2538 409 2786 701 
Q 3034 994 3034 1497 
Q 3034 2003 2786 2293 
Q 2538 2584 2113 2584 
z
M 3366 4563 
L 3366 3988 
Q 3128 4100 2886 4159 
Q 2644 4219 2406 4219 
Q 1781 4219 1451 3797 
Q 1122 3375 1075 2522 
Q 1259 2794 1537 2939 
Q 1816 3084 2150 3084 
Q 2853 3084 3261 2657 
Q 3669 2231 3669 1497 
Q 3669 778 3244 343 
Q 2819 -91 2113 -91 
Q 1303 -91 875 529 
Q 447 1150 447 2328 
Q 447 3434 972 4092 
Q 1497 4750 2381 4750 
Q 2619 4750 2861 4703 
Q 3103 4656 3366 4563 
z
" transform="scale(0.015625)"/>
       </defs>
       <use xlink:href="#DejaVuSans-36"/>
       <use xlink:href="#DejaVuSans-30" transform="translate(63.623047 0)"/>
      </g>
     </g>
    </g>
    <g id="xtick_11">
     <g id="line2d_39">
      <path d="M 452.797746 390.04 
L 452.797746 223.65 
" clip-path="url(#p31a4b28361)" style="fill: none; stroke: #b0b0b0; stroke-opacity: 0.3; stroke-width: 0.8; stroke-linecap: square"/>
     </g>
     <g id="line2d_40">
      <g>
       <use xlink:href="#mcb396ff76c" x="452.797746" y="390.04" style="stroke: #000000; stroke-width: 0.8"/>
      </g>
     </g>
     <g id="text_16">
      <!-- 80 -->
      <g transform="translate(446.435246 404.638437) scale(0.1 -0.1)">
       <use xlink:href="#DejaVuSans-38"/>
       <use xlink:href="#DejaVuSans-30" transform="translate(63.623047 0)"/>
      </g>
     </g>
    </g>
    <g id="xtick_12">
     <g id="line2d_41">
      <path d="M 546.661841 390.04 
L 546.661841 223.65 
" clip-path="url(#p31a4b28361)" style="fill: none; stroke: #b0b0b0; stroke-opacity: 0.3; stroke-width: 0.8; stroke-linecap: square"/>
     </g>
     <g id="line2d_42">
      <g>
       <use xlink:href="#mcb396ff76c" x="546.661841" y="390.04" style="stroke: #000000; stroke-width: 0.8"/>
      </g>
     </g>
     <g id="text_17">
      <!-- 100 -->
      <g transform="translate(537.118091 404.638437) scale(0.1 -0.1)">
       <use xlink:href="#DejaVuSans-31"/>
       <use xlink:href="#DejaVuSans-30" transform="translate(63.623047 0)"/>
       <use xlink:href="#DejaVuSans-30" transform="translate(127.246094 0)"/>
      </g>
     </g>
    </g>
    <g id="text_18">
     <!-- episode -->
     <g transform="translate(290.100312 418.316562) scale(0.1 -0.1)">
      <use xlink:href="#DejaVuSans-65"/>
      <use xlink:href="#DejaVuSans-70" transform="translate(61.523438 0)"/>
      <use xlink:href="#DejaVuSans-69" transform="translate(125 0)"/>
      <use xlink:href="#DejaVuSans-73" transform="translate(152.783203 0)"/>
      <use xlink:href="#DejaVuSans-6f" transform="translate(204.882812 0)"/>
      <use xlink:href="#DejaVuSans-64" transform="translate(266.064453 0)"/>
      <use xlink:href="#DejaVuSans-65" transform="translate(329.541016 0)"/>
     </g>
    </g>
   </g>
   <g id="matplotlib.axis_4">
    <g id="ytick_8">
     <g id="line2d_43">
      <path d="M 54.11 382.476818 
L 565.2 382.476818 
" clip-path="url(#p31a4b28361)" style="fill: none; stroke: #b0b0b0; stroke-opacity: 0.3; stroke-width: 0.8; stroke-linecap: square"/>
     </g>
     <g id="line2d_44">
      <g>
       <use xlink:href="#mbd27f1ad0b" x="54.11" y="382.476818" style="stroke: #000000; stroke-width: 0.8"/>
      </g>
     </g>
     <g id="text_19">
      <!-- 0.0 -->
      <g transform="translate(31.206875 386.276037) scale(0.1 -0.1)">
       <use xlink:href="#DejaVuSans-30"/>
       <use xlink:href="#DejaVuSans-2e" transform="translate(63.623047 0)"/>
       <use xlink:href="#DejaVuSans-30" transform="translate(95.410156 0)"/>
      </g>
     </g>
    </g>
    <g id="ytick_9">
     <g id="line2d_45">
      <path d="M 54.11 344.66091 
L 565.2 344.66091 
" clip-path="url(#p31a4b28361)" style="fill: none; stroke: #b0b0b0; stroke-opacity: 0.3; stroke-width: 0.8; stroke-linecap: square"/>
     </g>
     <g id="line2d_46">
      <g>
       <use xlink:href="#mbd27f1ad0b" x="54.11" y="344.66091" style="stroke: #000000; stroke-width: 0.8"/>
      </g>
     </g>
     <g id="text_20">
      <!-- 0.2 -->
      <g transform="translate(31.206875 348.460128) scale(0.1 -0.1)">
       <use xlink:href="#DejaVuSans-30"/>
       <use xlink:href="#DejaVuSans-2e" transform="translate(63.623047 0)"/>
       <use xlink:href="#DejaVuSans-32" transform="translate(95.410156 0)"/>
      </g>
     </g>
    </g>
    <g id="ytick_10">
     <g id="line2d_47">
      <path d="M 54.11 306.845001 
L 565.2 306.845001 
" clip-path="url(#p31a4b28361)" style="fill: none; stroke: #b0b0b0; stroke-opacity: 0.3; stroke-width: 0.8; stroke-linecap: square"/>
     </g>
     <g id="line2d_48">
      <g>
       <use xlink:href="#mbd27f1ad0b" x="54.11" y="306.845001" style="stroke: #000000; stroke-width: 0.8"/>
      </g>
     </g>
     <g id="text_21">
      <!-- 0.4 -->
      <g transform="translate(31.206875 310.64422) scale(0.1 -0.1)">
       <use xlink:href="#DejaVuSans-30"/>
       <use xlink:href="#DejaVuSans-2e" transform="translate(63.623047 0)"/>
       <use xlink:href="#DejaVuSans-34" transform="translate(95.410156 0)"/>
      </g>
     </g>
    </g>
    <g id="ytick_11">
     <g id="line2d_49">
      <path d="M 54.11 269.029093 
L 565.2 269.029093 
" clip-path="url(#p31a4b28361)" style="fill: none; stroke: #b0b0b0; stroke-opacity: 0.3; stroke-width: 0.8; stroke-linecap: square"/>
     </g>
     <g id="line2d_50">
      <g>
       <use xlink:href="#mbd27f1ad0b" x="54.11" y="269.029093" style="stroke: #000000; stroke-width: 0.8"/>
      </g>
     </g>
     <g id="text_22">
      <!-- 0.6 -->
      <g transform="translate(31.206875 272.828311) scale(0.1 -0.1)">
       <use xlink:href="#DejaVuSans-30"/>
       <use xlink:href="#DejaVuSans-2e" transform="translate(63.623047 0)"/>
       <use xlink:href="#DejaVuSans-36" transform="translate(95.410156 0)"/>
      </g>
     </g>
    </g>
    <g id="ytick_12">
     <g id="line2d_51">
      <path d="M 54.11 231.213184 
L 565.2 231.213184 
" clip-path="url(#p31a4b28361)" style="fill: none; stroke: #b0b0b0; stroke-opacity: 0.3; stroke-width: 0.8; stroke-linecap: square"/>
     </g>
     <g id="line2d_52">
      <g>
       <use xlink:href="#mbd27f1ad0b" x="54.11" y="231.213184" style="stroke: #000000; stroke-width: 0.8"/>
      </g>
     </g>
     <g id="text_23">
      <!-- 0.8 -->
      <g transform="translate(31.206875 235.012403) scale(0.1 -0.1)">
       <use xlink:href="#DejaVuSans-30"/>
       <use xlink:href="#DejaVuSans-2e" transform="translate(63.623047 0)"/>
       <use xlink:href="#DejaVuSans-38" transform="translate(95.410156 0)"/>
      </g>
     </g>
    </g>
    <g id="text_24">
     <!-- omega component -->
     <g transform="translate(25.127187 353.965312) rotate(-90) scale(0.1 -0.1)">
      <defs>
       <path id="DejaVuSans-6d" d="M 3328 2828 
Q 3544 3216 3844 3400 
Q 4144 3584 4550 3584 
Q 5097 3584 5394 3201 
Q 5691 2819 5691 2113 
L 5691 0 
L 5113 0 
L 5113 2094 
Q 5113 2597 4934 2840 
Q 4756 3084 4391 3084 
Q 3944 3084 3684 2787 
Q 3425 2491 3425 1978 
L 3425 0 
L 2847 0 
L 2847 2094 
Q 2847 2600 2669 2842 
Q 2491 3084 2119 3084 
Q 1678 3084 1418 2786 
Q 1159 2488 1159 1978 
L 1159 0 
L 581 0 
L 581 3500 
L 1159 3500 
L 1159 2956 
Q 1356 3278 1631 3431 
Q 1906 3584 2284 3584 
Q 2666 3584 2933 3390 
Q 3200 3197 3328 2828 
z
" transform="scale(0.015625)"/>
       <path id="DejaVuSans-67" d="M 2906 1791 
Q 2906 2416 2648 2759 
Q 2391 3103 1925 3103 
Q 1463 3103 1205 2759 
Q 947 2416 947 1791 
Q 947 1169 1205 825 
Q 1463 481 1925 481 
Q 2391 481 2648 825 
Q 2906 1169 2906 1791 
z
M 3481 434 
Q 3481 -459 3084 -895 
Q 2688 -1331 1869 -1331 
Q 1566 -1331 1297 -1286 
Q 1028 -1241 775 -1147 
L 775 -588 
Q 1028 -725 1275 -790 
Q 1522 -856 1778 -856 
Q 2344 -856 2625 -561 
Q 2906 -266 2906 331 
L 2906 616 
Q 2728 306 2450 153 
Q 2172 0 1784 0 
Q 1141 0 747 490 
Q 353 981 353 1791 
Q 353 2603 747 3093 
Q 1141 3584 1784 3584 
Q 2172 3584 2450 3431 
Q 2728 3278 2906 2969 
L 2906 3500 
L 3481 3500 
L 3481 434 
z
" transform="scale(0.015625)"/>
       <path id="DejaVuSans-6e" d="M 3513 2113 
L 3513 0 
L 2938 0 
L 2938 2094 
Q 2938 2591 2744 2837 
Q 2550 3084 2163 3084 
Q 1697 3084 1428 2787 
Q 1159 2491 1159 1978 
L 1159 0 
L 581 0 
L 581 3500 
L 1159 3500 
L 1159 2956 
Q 1366 3272 1645 3428 
Q 1925 3584 2291 3584 
Q 2894 3584 3203 3211 
Q 3513 2838 3513 2113 
z
" transform="scale(0.015625)"/>
      </defs>
      <use xlink:href="#DejaVuSans-6f"/>
      <use xlink:href="#DejaVuSans-6d" transform="translate(61.181641 0)"/>
      <use xlink:href="#DejaVuSans-65" transform="translate(158.59375 0)"/>
      <use xlink:href="#DejaVuSans-67" transform="translate(220.117188 0)"/>
      <use xlink:href="#DejaVuSans-61" transform="translate(283.59375 0)"/>
      <use xlink:href="#DejaVuSans-20" transform="translate(344.873047 0)"/>
      <use xlink:href="#DejaVuSans-63" transform="translate(376.660156 0)"/>
      <use xlink:href="#DejaVuSans-6f" transform="translate(431.640625 0)"/>
      <use xlink:href="#DejaVuSans-6d" transform="translate(492.822266 0)"/>
      <use xlink:href="#DejaVuSans-70" transform="translate(590.234375 0)"/>
      <use xlink:href="#DejaVuSans-6f" transform="translate(653.710938 0)"/>
      <use xlink:href="#DejaVuSans-6e" transform="translate(714.892578 0)"/>
      <use xlink:href="#DejaVuSans-65" transform="translate(778.271484 0)"/>
      <use xlink:href="#DejaVuSans-6e" transform="translate(839.794922 0)"/>
      <use xlink:href="#DejaVuSans-74" transform="translate(903.173828 0)"/>
     </g>
    </g>
   </g>
   <g id="line2d_53">
    <path d="M 77.341364 287.937047 
L 82.034568 287.937047 
L 86.727773 287.937047 
L 91.420978 287.937047 
L 96.114183 287.937047 
L 100.807388 287.937047 
L 105.500592 287.937047 
L 110.193797 287.937047 
L 114.887002 287.937047 
L 119.580207 287.937047 
L 124.273411 287.937047 
L 128.966616 287.937047 
L 133.659821 287.937047 
L 138.353026 287.937047 
L 143.04623 287.937047 
L 147.739435 287.937047 
L 152.43264 287.937047 
L 157.125845 287.937047 
L 161.81905 287.937047 
L 166.512254 287.937047 
L 171.205459 287.937047 
L 175.898664 287.937047 
L 180.591869 287.937047 
L 185.285073 287.937047 
L 189.978278 287.937047 
L 194.671483 287.937047 
L 199.364688 287.937047 
L 204.057893 287.937047 
L 208.751097 287.937047 
L 213.444302 287.937047 
L 218.137507 287.937047 
L 222.830712 287.937047 
L 227.523916 287.937047 
L 232.217121 287.937047 
L 236.910326 287.937047 
L 241.603531 287.937047 
L 246.296736 287.937047 
L 250.98994 287.937047 
L 255.683145 287.937047 
L 260.37635 287.937047 
L 265.069555 287.937047 
L 269.762759 287.937047 
L 274.455964 287.937047 
L 279.149169 287.937047 
L 283.842374 287.937047 
L 288.535579 287.937047 
L 293.228783 287.937047 
L 297.921988 287.937047 
L 302.615193 287.937047 
L 307.308398 287.937047 
L 312.001602 382.476818 
L 316.694807 382.476818 
L 321.388012 382.476818 
L 326.081217 382.476818 
L 330.774421 382.476818 
L 335.467626 382.476818 
L 340.160831 382.476818 
L 344.854036 382.476818 
L 349.547241 382.476818 
L 354.240445 382.476818 
L 358.93365 382.476818 
L 363.626855 382.476818 
L 368.32006 382.476818 
L 373.013264 382.476818 
L 377.706469 382.476818 
L 382.399674 382.476818 
L 387.092879 382.476818 
L 391.786084 382.476818 
L 396.479288 382.476818 
L 401.172493 382.476818 
L 405.865698 382.476818 
L 410.558903 382.476818 
L 415.252107 382.476818 
L 419.945312 382.476818 
L 424.638517 382.476818 
L 429.331722 382.476818 
L 434.024927 382.476818 
L 438.718131 382.476818 
L 443.411336 382.476818 
L 448.104541 382.476818 
L 452.797746 382.476818 
L 457.49095 382.476818 
L 462.184155 382.476818 
L 466.87736 382.476818 
L 471.570565 382.476818 
L 476.26377 382.476818 
L 480.956974 382.476818 
L 485.650179 382.476818 
L 490.343384 382.476818 
L 495.036589 382.476818 
L 499.729793 382.476818 
L 504.422998 382.476818 
L 509.116203 382.476818 
L 513.809408 382.476818 
L 518.502612 382.476818 
L 523.195817 382.476818 
L 527.889022 382.476818 
L 532.582227 382.476818 
L 537.275432 382.476818 
L 541.968636 382.476818 
" clip-path="url(#p31a4b28361)" style="fill: none; stroke: #d62728; stroke-width: 1.5; stroke-linecap: square"/>
   </g>
   <g id="line2d_54">
    <path d="M 77.341364 287.937047 
L 82.034568 287.937047 
L 86.727773 287.937047 
L 91.420978 287.937047 
L 96.114183 287.937047 
L 100.807388 287.937047 
L 105.500592 287.937047 
L 110.193797 287.937047 
L 114.887002 287.937047 
L 119.580207 287.937047 
L 124.273411 287.937047 
L 128.966616 287.937047 
L 133.659821 287.937047 
L 138.353026 287.937047 
L 143.04623 287.937047 
L 147.739435 287.937047 
L 152.43264 287.937047 
L 157.125845 287.937047 
L 161.81905 287.937047 
L 166.512254 287.937047 
L 171.205459 287.937047 
L 175.898664 287.937047 
L 180.591869 287.937047 
L 185.285073 287.937047 
L 189.978278 287.937047 
L 194.671483 287.937047 
L 199.364688 287.937047 
L 204.057893 287.937047 
L 208.751097 287.937047 
L 213.444302 287.937047 
L 218.137507 287.937047 
L 222.830712 287.937047 
L 227.523916 287.937047 
L 232.217121 287.937047 
L 236.910326 287.937047 
L 241.603531 287.937047 
L 246.296736 287.937047 
L 250.98994 287.937047 
L 255.683145 287.937047 
L 260.37635 287.937047 
L 265.069555 287.937047 
L 269.762759 287.937047 
L 274.455964 287.937047 
L 279.149169 287.937047 
L 283.842374 287.937047 
L 288.535579 287.937047 
L 293.228783 287.937047 
L 297.921988 287.937047 
L 302.615193 287.937047 
L 307.308398 287.937047 
L 312.001602 382.476818 
L 316.694807 382.476818 
L 321.388012 382.476818 
L 326.081217 382.476818 
L 330.774421 382.476818 
L 335.467626 382.476818 
L 340.160831 382.476818 
L 344.854036 382.476818 
L 349.547241 382.476818 
L 354.240445 382.476818 
L 358.93365 382.476818 
L 363.626855 382.476818 
L 368.32006 382.476818 
L 373.013264 382.476818 
L 377.706469 382.476818 
L 382.399674 382.476818 
L 387.092879 382.476818 
L 391.786084 382.476818 
L 396.479288 382.476818 
L 401.172493 382.476818 
L 405.865698 382.476818 
L 410.558903 382.476818 
L 415.252107 382.476818 
L 419.945312 382.476818 
L 424.638517 382.476818 
L 429.331722 382.476818 
L 434.024927 382.476818 
L 438.718131 382.476818 
L 443.411336 382.476818 
L 448.104541 382.476818 
L 452.797746 382.476818 
L 457.49095 382.476818 
L 462.184155 382.476818 
L 466.87736 382.476818 
L 471.570565 382.476818 
L 476.26377 382.476818 
L 480.956974 382.476818 
L 485.650179 382.476818 
L 490.343384 382.476818 
L 495.036589 382.476818 
L 499.729793 382.476818 
L 504.422998 382.476818 
L 509.116203 382.476818 
L 513.809408 382.476818 
L 518.502612 382.476818 
L 523.195817 382.476818 
L 527.889022 382.476818 
L 532.582227 382.476818 
L 537.275432 382.476818 
L 541.968636 382.476818 
" clip-path="url(#p31a4b28361)" style="fill: none; stroke: #ff7f0e; stroke-width: 1.5; stroke-linecap: square"/>
   </g>
   <g id="line2d_55">
    <path d="M 77.341364 382.476818 
L 82.034568 382.476818 
L 86.727773 382.476818 
L 91.420978 382.476818 
L 96.114183 382.476818 
L 100.807388 382.476818 
L 105.500592 382.476818 
L 110.193797 382.476818 
L 114.887002 382.476818 
L 119.580207 382.476818 
L 124.273411 382.476818 
L 128.966616 382.476818 
L 133.659821 382.476818 
L 138.353026 382.476818 
L 143.04623 382.476818 
L 147.739435 382.476818 
L 152.43264 382.476818 
L 157.125845 382.476818 
L 161.81905 382.476818 
L 166.512254 382.476818 
L 171.205459 382.476818 
L 175.898664 382.476818 
L 180.591869 382.476818 
L 185.285073 382.476818 
L 189.978278 382.476818 
L 194.671483 382.476818 
L 199.364688 382.476818 
L 204.057893 382.476818 
L 208.751097 382.476818 
L 213.444302 382.476818 
L 218.137507 382.476818 
L 222.830712 382.476818 
L 227.523916 382.476818 
L 232.217121 382.476818 
L 236.910326 382.476818 
L 241.603531 382.476818 
L 246.296736 382.476818 
L 250.98994 382.476818 
L 255.683145 382.476818 
L 260.37635 382.476818 
L 265.069555 382.476818 
L 269.762759 382.476818 
L 274.455964 382.476818 
L 279.149169 382.476818 
L 283.842374 382.476818 
L 288.535579 382.476818 
L 293.228783 382.476818 
L 297.921988 382.476818 
L 302.615193 382.476818 
L 307.308398 382.476818 
L 312.001602 344.660909 
L 316.694807 344.660909 
L 321.388012 344.660909 
L 326.081217 344.660909 
L 330.774421 344.660909 
L 335.467626 344.660909 
L 340.160831 344.660909 
L 344.854036 344.660909 
L 349.547241 344.660909 
L 354.240445 344.660909 
L 358.93365 344.660909 
L 363.626855 344.660909 
L 368.32006 344.660909 
L 373.013264 344.660909 
L 377.706469 344.660909 
L 382.399674 344.660909 
L 387.092879 344.660909 
L 391.786084 344.660909 
L 396.479288 344.660909 
L 401.172493 344.660909 
L 405.865698 344.660909 
L 410.558903 344.660909 
L 415.252107 344.660909 
L 419.945312 344.660909 
L 424.638517 344.660909 
L 429.331722 344.660909 
L 434.024927 344.660909 
L 438.718131 344.660909 
L 443.411336 344.660909 
L 448.104541 344.660909 
L 452.797746 344.660909 
L 457.49095 344.660909 
L 462.184155 344.660909 
L 466.87736 344.660909 
L 471.570565 344.660909 
L 476.26377 344.660909 
L 480.956974 344.660909 
L 485.650179 344.660909 
L 490.343384 344.660909 
L 495.036589 344.660909 
L 499.729793 344.660909 
L 504.422998 344.660909 
L 509.116203 344.660909 
L 513.809408 344.660909 
L 518.502612 344.660909 
L 523.195817 344.660909 
L 527.889022 344.660909 
L 532.582227 344.660909 
L 537.275432 344.660909 
L 541.968636 344.660909 
" clip-path="url(#p31a4b28361)" style="fill: none; stroke: #2ca02c; stroke-width: 1.5; stroke-linecap: square"/>
   </g>
   <g id="line2d_56">
    <path d="M 77.341364 382.476818 
L 82.034568 382.476818 
L 86.727773 382.476818 
L 91.420978 382.476818 
L 96.114183 382.476818 
L 100.807388 382.476818 
L 105.500592 382.476818 
L 110.193797 382.476818 
L 114.887002 382.476818 
L 119.580207 382.476818 
L 124.273411 382.476818 
L 128.966616 382.476818 
L 133.659821 382.476818 
L 138.353026 382.476818 
L 143.04623 382.476818 
L 147.739435 382.476818 
L 152.43264 382.476818 
L 157.125845 382.476818 
L 161.81905 382.476818 
L 166.512254 382.476818 
L 171.205459 382.476818 
L 175.898664 382.476818 
L 180.591869 382.476818 
L 185.285073 382.476818 
L 189.978278 382.476818 
L 194.671483 382.476818 
L 199.364688 382.476818 
L 204.057893 382.476818 
L 208.751097 382.476818 
L 213.444302 382.476818 
L 218.137507 382.476818 
L 222.830712 382.476818 
L 227.523916 382.476818 
L 232.217121 382.476818 
L 236.910326 382.476818 
L 241.603531 382.476818 
L 246.296736 382.476818 
L 250.98994 382.476818 
L 255.683145 382.476818 
L 260.37635 382.476818 
L 265.069555 382.476818 
L 269.762759 382.476818 
L 274.455964 382.476818 
L 279.149169 382.476818 
L 283.842374 382.476818 
L 288.535579 382.476818 
L 293.228783 382.476818 
L 297.921988 382.476818 
L 302.615193 382.476818 
L 307.308398 382.476818 
L 312.001602 231.213182 
L 316.694807 231.213182 
L 321.388012 231.213182 
L 326.081217 231.213182 
L 330.774421 231.213182 
L 335.467626 231.213182 
L 340.160831 231.213182 
L 344.854036 231.213182 
L 349.547241 231.213182 
L 354.240445 231.213182 
L 358.93365 231.213182 
L 363.626855 231.213182 
L 368.32006 231.213182 
L 373.013264 231.213182 
L 377.706469 231.213182 
L 382.399674 231.213182 
L 387.092879 231.213182 
L 391.786084 231.213182 
L 396.479288 231.213182 
L 401.172493 231.213182 
L 405.865698 231.213182 
L 410.558903 231.213182 
L 415.252107 231.213182 
L 419.945312 231.213182 
L 424.638517 231.213182 
L 429.331722 231.213182 
L 434.024927 231.213182 
L 438.718131 231.213182 
L 443.411336 231.213182 
L 448.104541 231.213182 
L 452.797746 231.213182 
L 457.49095 231.213182 
L 462.184155 231.213182 
L 466.87736 231.213182 
L 471.570565 231.213182 
L 476.26377 231.213182 
L 480.956974 231.213182 
L 485.650179 231.213182 
L 490.343384 231.213182 
L 495.036589 231.213182 
L 499.729793 231.213182 
L 504.422998 231.213182 
L 509.116203 231.213182 
L 513.809408 231.213182 
L 518.502612 231.213182 
L 523.195817 231.213182 
L 527.889022 231.213182 
L 532.582227 231.213182 
L 537.275432 231.213182 
L 541.968636 231.213182 
" clip-path="url(#p31a4b28361)" style="fill: none; stroke: #9467bd; stroke-width: 1.5; stroke-linecap: square"/>
   </g>
   <g id="line2d_57">
    <path d="M 312.001602 390.04 
L 312.001602 223.65 
" clip-path="url(#p31a4b28361)" style="fill: none; stroke-dasharray: 5.55,2.4; stroke-dashoffset: 0; stroke: #000000; stroke-opacity: 0.5; stroke-width: 1.5"/>
   </g>
   <g id="patch_9">
    <path d="M 54.11 390.04 
L 54.11 223.65 
" style="fill: none; stroke: #000000; stroke-width: 0.8; stroke-linejoin: miter; stroke-linecap: square"/>
   </g>
   <g id="patch_10">
    <path d="M 565.2 390.04 
L 565.2 223.65 
" style="fill: none; stroke: #000000; stroke-width: 0.8; stroke-linejoin: miter; stroke-linecap: square"/>
   </g>
   <g id="patch_11">
    <path d="M 54.11 390.04 
L 565.2 390.04 
" style="fill: none; stroke: #000000; stroke-width: 0.8; stroke-linejoin: miter; stroke-linecap: square"/>
   </g>
   <g id="patch_12">
    <path d="M 54.11 223.65 
L 565.2 223.65 
" style="fill: none; stroke: #000000; stroke-width: 0.8; stroke-linejoin: miter; stroke-linecap: square"/>
   </g>
   <g id="text_25">
    <!-- Preference plane omega over episodes -->
    <g transform="translate(192.5575 217.65) scale(0.12 -0.12)">
     <defs>
      <path id="DejaVuSans-50" d="M 1259 4147 
L 1259 2394 
L 2053 2394 
Q 2494 2394 2734 2622 
Q 2975 2850 2975 3272 
Q 2975 3691 2734 3919 
Q 2494 4147 2053 4147 
L 1259 4147 
z
M 628 4666 
L 2053 4666 
Q 2838 4666 3239 4311 
Q 3641 3956 3641 3272 
Q 3641 2581 3239 2228 
Q 2838 1875 2053 1875 
L 1259 1875 
L 1259 0 
L 628 0 
L 628 4666 
z
" transform="scale(0.015625)"/>
      <path id="DejaVuSans-66" d="M 2375 4863 
L 2375 4384 
L 1825 4384 
Q 1516 4384 1395 4259 
Q 1275 4134 1275 3809 
L 1275 3500 
L 2222 3500 
L 2222 3053 
L 1275 3053 
L 1275 0 
L 697 0 
L 697 3053 
L 147 3053 
L 147 3500 
L 697 3500 
L 697 3744 
Q 697 4328 969 4595 
Q 1241 4863 1831 4863 
L 2375 4863 
z
" transform="scale(0.015625)"/>
      <path id="DejaVuSans-6c" d="M 603 4863 
L 1178 4863 
L 1178 0 
L 603 0 
L 603 4863 
z
" transform="scale(0.015625)"/>
     </defs>
     <use xlink:href="#DejaVuSans-50"/>
     <use xlink:href="#DejaVuSans-72" transform="translate(58.552734 0)"/>
     <use xlink:href="#DejaVuSans-65" transform="translate(97.416016 0)"/>
     <use xlink:href="#DejaVuSans-66" transform="translate(158.939453 0)"/>
     <use xlink:href="#DejaVuSans-65" transform="translate(194.144531 0)"/>
     <use xlink:href="#DejaVuSans-72" transform="translate(255.667969 0)"/>
     <use xlink:href="#DejaVuSans-65" transform="translate(294.53125 0)"/>
     <use xlink:href="#DejaVuSans-6e" transform="translate(356.054688 0)"/>
     <use xlink:href="#DejaVuSans-63" transform="translate(419.433594 0)"/>
     <use xlink:href="#DejaVuSans-65" transform="translate(474.414062 0)"/>
     <use xlink:href="#DejaVuSans-20" transform="translate(535.9375 0)"/>
     <use xlink:href="#DejaVuSans-70" transform="translate(567.724609 0)"/>
     <use xlink:href="#DejaVuSans-6c" transform="translate(631.201172 0)"/>
     <use xlink:href="#DejaVuSans-61" transform="translate(658.984375 0)"/>
     <use xlink:href="#DejaVuSans-6e" transform="translate(720.263672 0)"/>
     <use xlink:href="#DejaVuSans-65" transform="translate(783.642578 0)"/>
     <use xlink:href="#DejaVuSans-20" transform="translate(845.166016 0)"/>
     <use xlink:href="#DejaVuSans-6f" transform="translate(876.953125 0)"/>
     <use xlink:href="#DejaVuSans-6d" transform="translate(938.134766 0)"/>
     <use xlink:href="#DejaVuSans-65" transform="translate(1035.546875 0)"/>
     <use xlink:href="#DejaVuSans-67" transform="translate(1097.070312 0)"/>
     <use xlink:href="#DejaVuSans-61" transform="translate(1160.546875 0)"/>
     <use xlink:href="#DejaVuSans-20" transform="translate(1221.826172 0)"/>
     <use xlink:href="#DejaVuSans-6f" transform="translate(1253.613281 0)"/>
     <use xlink:href="#DejaVuSans-76" transform="translate(1314.794922 0)"/>
     <use xlink:href="#DejaVuSans-65" transform="translate(1373.974609 0)"/>
     <use xlink:href="#DejaVuSans-72" transform="translate(1435.498047 0)"/>
     <use xlink:href="#DejaVuSans-20" transform="translate(1476.611328 0)"/>
     <use xlink:href="#DejaVuSans-65" transform="translate(1508.398438 0)"/>
     <use xlink:href="#DejaVuSans-70" transform="translate(1569.921875 0)"/>
     <use xlink:href="#DejaVuSans-69" transform="translate(1633.398438 0)"/>
     <use xlink:href="#DejaVuSans-73" transform="translate(1661.181641 0)"/>
     <use xlink:href="#DejaVuSans-6f" transform="translate(1713.28125 0)"/>
     <use xlink:href="#DejaVuSans-64" transform="translate(1774.462891 0)"/>
     <use xlink:href="#DejaVuSans-65" transform="translate(1837.939453 0)"/>
     <use xlink:href="#DejaVuSans-73" transform="translate(1899.462891 0)"/>
    </g>
   </g>
   <g id="legend_2">
    <g id="patch_13">
     <path d="M 272.075 314.0275 
L 559.6 314.0275 
Q 561.2 314.0275 561.2 312.4275 
L 561.2 301.2625 
Q 561.2 299.6625 559.6 299.6625 
L 272.075 299.6625 
Q 270.475 299.6625 270.475 301.2625 
L 270.475 312.4275 
Q 270.475 314.0275 272.075 314.0275 
z
" style="fill: #ffffff; opacity: 0.8; stroke: #cccccc; stroke-linejoin: miter"/>
    </g>
    <g id="line2d_58">
     <path d="M 273.675 306.14125 
L 281.675 306.14125 
L 289.675 306.14125 
" style="fill: none; stroke: #d62728; stroke-width: 1.5; stroke-linecap: square"/>
    </g>
    <g id="text_26">
     <!-- omega_0 -->
     <g transform="translate(296.075 308.94125) scale(0.08 -0.08)">
      <defs>
       <path id="DejaVuSans-5f" d="M 3263 -1063 
L 3263 -1509 
L -63 -1509 
L -63 -1063 
L 3263 -1063 
z
" transform="scale(0.015625)"/>
      </defs>
      <use xlink:href="#DejaVuSans-6f"/>
      <use xlink:href="#DejaVuSans-6d" transform="translate(61.181641 0)"/>
      <use xlink:href="#DejaVuSans-65" transform="translate(158.59375 0)"/>
      <use xlink:href="#DejaVuSans-67" transform="translate(220.117188 0)"/>
      <use xlink:href="#DejaVuSans-61" transform="translate(283.59375 0)"/>
      <use xlink:href="#DejaVuSans-5f" transform="translate(344.873047 0)"/>
      <use xlink:href="#DejaVuSans-30" transform="translate(394.873047 0)"/>
     </g>
    </g>
    <g id="line2d_59">
     <path d="M 348.75625 306.14125 
L 356.75625 306.14125 
L 364.75625 306.14125 
" style="fill: none; stroke: #ff7f0e; stroke-width: 1.5; stroke-linecap: square"/>
    </g>
    <g id="text_27">
     <!-- omega_1 -->
     <g transform="translate(371.15625 308.94125) scale(0.08 -0.08)">
      <use xlink:href="#DejaVuSans-6f"/>
      <use xlink:href="#DejaVuSans-6d" transform="translate(61.181641 0)"/>
      <use xlink:href="#DejaVuSans-65" transform="translate(158.59375 0)"/>
      <use xlink:href="#DejaVuSans-67" transform="translate(220.117188 0)"/>
      <use xlink:href="#DejaVuSans-61" transform="translate(283.59375 0)"/>
      <use xlink:href="#DejaVuSans-5f" transform="translate(344.873047 0)"/>
      <use xlink:href="#DejaVuSans-31" transform="translate(394.873047 0)"/>
     </g>
    </g>
    <g id="line2d_60">
     <path d="M 423.8375 306.14125 
L 431.8375 306.14125 
L 439.8375 306.14125 
" style="fill: none; stroke: #2ca02c; stroke-width: 1.5; stroke-linecap: square"/>
    </g>
    <g id="text_28">
     <!-- omega_2 -->
     <g transform="translate(446.2375 308.94125) scale(0.08 -0.08)">
      <use xlink:href="#DejaVuSans-6f"/>
      <use xlink:href="#DejaVuSans-6d" transform="translate(61.181641 0)"/>
      <use xlink:href="#DejaVuSans-65" transform="translate(158.59375 0)"/>
      <use xlink:href="#DejaVuSans-67" transform="translate(220.117188 0)"/>
      <use xlink:href="#DejaVuSans-61" transform="translate(283.59375 0)"/>
      <use xlink:href="#DejaVuSans-5f" transform="translate(344.873047 0)"/>
      <use xlink:href="#DejaVuSans-32" transform="translate(394.873047 0)"/>
     </g>
    </g>
    <g id="line2d_61">
     <path d="M 498.91875 306.14125 
L 506.91875 306.14125 
L 514.91875 306.14125 
" style="fill: none; stroke: #9467bd; stroke-width: 1.5; stroke-linecap: square"/>
    </g>
    <g id="text_29">
     <!-- omega_3 -->
     <g transform="translate(521.31875 308.94125) scale(0.08 -0.08)">
      <defs>
       <path id="DejaVuSans-33" d="M 2597 2516 
Q 3050 2419 3304 2112 
Q 3559 1806 3559 1356 
Q 3559 666 3084 287 
Q 2609 -91 1734 -91 
Q 1441 -91 1130 -33 
Q 819 25 488 141 
L 488 750 
Q 750 597 1062 519 
Q 1375 441 1716 441 
Q 2309 441 2620 675 
Q 2931 909 2931 1356 
Q 2931 1769 2642 2001 
Q 2353 2234 1838 2234 
L 1294 2234 
L 1294 2753 
L 1863 2753 
Q 2328 2753 2575 2939 
Q 2822 3125 2822 3475 
Q 2822 3834 2567 4026 
Q 2313 4219 1838 4219 
Q 1578 4219 1281 4162 
Q 984 4106 628 3988 
L 628 4550 
Q 988 4650 1302 4700 
Q 1616 4750 1894 4750 
Q 2613 4750 3031 4423 
Q 3450 4097 3450 3541 
Q 3450 3153 3228 2886 
Q 3006 2619 2597 2516 
z
" transform="scale(0.015625)"/>
      </defs>
      <use xlink:href="#DejaVuSans-6f"/>
      <use xlink:href="#DejaVuSans-6d" transform="translate(61.181641 0)"/>
      <use xlink:href="#DejaVuSans-65" transform="translate(158.59375 0)"/>
      <use xlink:href="#DejaVuSans-67" transform="translate(220.117188 0)"/>
      <use xlink:href="#DejaVuSans-61" transform="translate(283.59375 0)"/>
      <use xlink:href="#DejaVuSans-5f" transform="translate(344.873047 0)"/>
      <use xlink:href="#DejaVuSans-33" transform="translate(394.873047 0)"/>
     </g>
    </g>
   </g>
  </g>
 </g>
 <defs>
  <clipPath id="p40735cd228">
   <rect x="54.11" y="26.88" width="511.09" height="166.39"/>
  </clipPath>
  <clipPath id="p31a4b28361">
   <rect x="54.11" y="223.65" width="511.09" height="166.39"/>
  </clipPath>
 </defs>
</svg>
