<?xml version="1.0" encoding="utf-8" standalone="no"?>
<!DOCTYPE svg PUBLIC "-//W3C//DTD SVG 1.1//EN"
  "http://www.w3.org/Graphics/SVG/1.1/DTD/svg11.dtd">
<svg xmlns:xlink="http://www.w3.org/1999/xlink" width="1008pt" height="360pt" viewBox="0 0 1008 360" xmlns="http://www.w3.org/2000/svg" version="1.1">
 <metadata>
  <rdf:RDF xmlns:dc="http://purl.org/dc/elements/1.1/" xmlns:cc="http://creativecommons.org/ns#" xmlns:rdf="http://www.w3.org/1999/02/22-rdf-syntax-ns#">
   <cc:Work>
    <dc:type rdf:resource="http://purl.org/dc/dcmitype/StillImage"/>
    <dc:date>2026-04-19T13:02:40.666338</dc:date>
    <dc:format>image/svg+xml</dc:format>
    <dc:creator>
     <cc:Agent>
      <dc:title>Matplotlib v3.10.8, https://matplotlib.org/</dc:title>
     </cc:Agent>
    </dc:creator>
   </cc:Work>
  </rdf:RDF>
 </metadata>
 <defs>
  <style type="text/css">*{stroke-linejoin: round; stroke-linecap: butt}</style>
 </defs>
 <g id="figure_1">
  <g id="patch_1">
   <path d="M 0 360 
L 1008 360 
L 1008 0 
L 0 0 
z
" style="fill: #ffffff"/>
  </g>
  <g id="axes_1">
   <g id="patch_2">
    <path d="M 47.72 318.04 
L 509.1625 318.04 
L 509.1625 50.64 
L 47.72 50.64 
z
" style="fill: #ffffff"/>
   </g>
   <g id="matplotlib.axis_1">
    <g id="xtick_1">
     <g id="line2d_1">
      <path d="M 58.86986 318.04 
L 58.86986 50.64 
" clip-path="url(#ped3d59f5a1)" style="fill: none; stroke: #b0b0b0; stroke-opacity: 0.3; stroke-width: 0.8; stroke-linecap: square"/>
     </g>
     <g id="line2d_2">
      <defs>
       <path id="m86dd94dd9c" d="M 0 0 
L 0 3.5 
" style="stroke: #000000; stroke-width: 0.8"/>
      </defs>
      <g>
       <use xlink:href="#m86dd94dd9c" x="58.86986" y="318.04" style="stroke: #000000; stroke-width: 0.8"/>
      </g>
     </g>
     <g id="text_1">
      <!-- 0.0 -->
      <g transform="translate(50.918298 332.638438) scale(0.1 -0.1)">
       <defs>
        <path id="DejaVuSans-30" d="M 2034 4250 
Q 1547 4250 1301 3770 
Q 1056 3291 1056 2328 
Q 1056 1369 1301 889 
Q 1547 409 2034 409 
Q 2525 409 2770 889 
Q 3016 1369 3016 2328 
Q 3016 3291 2770 3770 
Q 2525 4250 2034 4250 
z
M 2034 4750 
Q 2819 4750 3233 4129 
Q 3647 3509 3647 2328 
Q 3647 1150 3233 529 
Q 2819 -91 2034 -91 
Q 1250 -91 836 529 
Q 422 1150 422 2328 
Q 422 3509 836 4129 
Q 1250 4750 2034 4750 
z
" transform="scale(0.015625)"/>
        <path id="DejaVuSans-2e" d="M 684 794 
L 1344 794 
L 1344 0 
L 684 0 
L 684 794 
z
" transform="scale(0.015625)"/>
       </defs>
       <use xlink:href="#DejaVuSans-30"/>
       <use xlink:href="#DejaVuSans-2e" transform="translate(63.623047 0)"/>
       <use xlink:href="#DejaVuSans-30" transform="translate(95.410156 0)"/>
      </g>
     </g>
    </g>
    <g id="xtick_2">
     <g id="line2d_3">
      <path d="M 118.428534 318.04 
L 118.428534 50.64 
" clip-path="url(#ped3d59f5a1)" style="fill: none; stroke: #b0b0b0; stroke-opacity: 0.3; stroke-width: 0.8; stroke-linecap: square"/>
     </g>
     <g id="line2d_4">
      <g>
       <use xlink:href="#m86dd94dd9c" x="118.428534" y="318.04" style="stroke: #000000; stroke-width: 0.8"/>
      </g>
     </g>
     <g id="text_2">
      <!-- 0.2 -->
      <g transform="translate(110.476972 332.638438) scale(0.1 -0.1)">
       <defs>
        <path id="DejaVuSans-32" d="M 1228 531 
L 3431 531 
L 3431 0 
L 469 0 
L 469 531 
Q 828 903 1448 1529 
Q 2069 2156 2228 2338 
Q 2531 2678 2651 2914 
Q 2772 3150 2772 3378 
Q 2772 3750 2511 3984 
Q 2250 4219 1831 4219 
Q 1534 4219 1204 4116 
Q 875 4013 500 3803 
L 500 4441 
Q 881 4594 1212 4672 
Q 1544 4750 1819 4750 
Q 2544 4750 2975 4387 
Q 3406 4025 3406 3419 
Q 3406 3131 3298 2873 
Q 3191 2616 2906 2266 
Q 2828 2175 2409 1742 
Q 1991 1309 1228 531 
z
" transform="scale(0.015625)"/>
       </defs>
       <use xlink:href="#DejaVuSans-30"/>
       <use xlink:href="#DejaVuSans-2e" transform="translate(63.623047 0)"/>
       <use xlink:href="#DejaVuSans-32" transform="translate(95.410156 0)"/>
      </g>
     </g>
    </g>
    <g id="xtick_3">
     <g id="line2d_5">
      <path d="M 177.987208 318.04 
L 177.987208 50.64 
" clip-path="url(#ped3d59f5a1)" style="fill: none; stroke: #b0b0b0; stroke-opacity: 0.3; stroke-width: 0.8; stroke-linecap: square"/>
     </g>
     <g id="line2d_6">
      <g>
       <use xlink:href="#m86dd94dd9c" x="177.987208" y="318.04" style="stroke: #000000; stroke-width: 0.8"/>
      </g>
     </g>
     <g id="text_3">
      <!-- 0.4 -->
      <g transform="translate(170.035646 332.638438) scale(0.1 -0.1)">
       <defs>
        <path id="DejaVuSans-34" d="M 2419 4116 
L 825 1625 
L 2419 1625 
L 2419 4116 
z
M 2253 4666 
L 3047 4666 
L 3047 1625 
L 3713 1625 
L 3713 1100 
L 3047 1100 
L 3047 0 
L 2419 0 
L 2419 1100 
L 313 1100 
L 313 1709 
L 2253 4666 
z
" transform="scale(0.015625)"/>
       </defs>
       <use xlink:href="#DejaVuSans-30"/>
       <use xlink:href="#DejaVuSans-2e" transform="translate(63.623047 0)"/>
       <use xlink:href="#DejaVuSans-34" transform="translate(95.410156 0)"/>
      </g>
     </g>
    </g>
    <g id="xtick_4">
     <g id="line2d_7">
      <path d="M 237.545882 318.04 
L 237.545882 50.64 
" clip-path="url(#ped3d59f5a1)" style="fill: none; stroke: #b0b0b0; stroke-opacity: 0.3; stroke-width: 0.8; stroke-linecap: square"/>
     </g>
     <g id="line2d_8">
      <g>
       <use xlink:href="#m86dd94dd9c" x="237.545882" y="318.04" style="stroke: #000000; stroke-width: 0.8"/>
      </g>
     </g>
     <g id="text_4">
      <!-- 0.6 -->
      <g transform="translate(229.59432 332.638438) scale(0.1 -0.1)">
       <defs>
        <path id="DejaVuSans-36" d="M 2113 2584 
Q 1688 2584 1439 2293 
Q 1191 2003 1191 1497 
Q 1191 994 1439 701 
Q 1688 409 2113 409 
Q 2538 409 2786 701 
Q 3034 994 3034 1497 
Q 3034 2003 2786 2293 
Q 2538 2584 2113 2584 
z
M 3366 4563 
L 3366 3988 
Q 3128 4100 2886 4159 
Q 2644 4219 2406 4219 
Q 1781 4219 1451 3797 
Q 1122 3375 1075 2522 
Q 1259 2794 1537 2939 
Q 1816 3084 2150 3084 
Q 2853 3084 3261 2657 
Q 3669 2231 3669 1497 
Q 3669 778 3244 343 
Q 2819 -91 2113 -91 
Q 1303 -91 875 529 
Q 447 1150 447 2328 
Q 447 3434 972 4092 
Q 1497 4750 2381 4750 
Q 2619 4750 2861 4703 
Q 3103 4656 3366 4563 
z
" transform="scale(0.015625)"/>
       </defs>
       <use xlink:href="#DejaVuSans-30"/>
       <use xlink:href="#DejaVuSans-2e" transform="translate(63.623047 0)"/>
       <use xlink:href="#DejaVuSans-36" transform="translate(95.410156 0)"/>
      </g>
     </g>
    </g>
    <g id="xtick_5">
     <g id="line2d_9">
      <path d="M 297.104556 318.04 
L 297.104556 50.64 
" clip-path="url(#ped3d59f5a1)" style="fill: none; stroke: #b0b0b0; stroke-opacity: 0.3; stroke-width: 0.8; stroke-linecap: square"/>
     </g>
     <g id="line2d_10">
      <g>
       <use xlink:href="#m86dd94dd9c" x="297.104556" y="318.04" style="stroke: #000000; stroke-width: 0.8"/>
      </g>
     </g>
     <g id="text_5">
      <!-- 0.8 -->
      <g transform="translate(289.152994 332.638438) scale(0.1 -0.1)">
       <defs>
        <path id="DejaVuSans-38" d="M 2034 2216 
Q 1584 2216 1326 1975 
Q 1069 1734 1069 1313 
Q 1069 891 1326 650 
Q 1584 409 2034 409 
Q 2484 409 2743 651 
Q 3003 894 3003 1313 
Q 3003 1734 2745 1975 
Q 2488 2216 2034 2216 
z
M 1403 2484 
Q 997 2584 770 2862 
Q 544 3141 544 3541 
Q 544 4100 942 4425 
Q 1341 4750 2034 4750 
Q 2731 4750 3128 4425 
Q 3525 4100 3525 3541 
Q 3525 3141 3298 2862 
Q 3072 2584 2669 2484 
Q 3125 2378 3379 2068 
Q 3634 1759 3634 1313 
Q 3634 634 3220 271 
Q 2806 -91 2034 -91 
Q 1263 -91 848 271 
Q 434 634 434 1313 
Q 434 1759 690 2068 
Q 947 2378 1403 2484 
z
M 1172 3481 
Q 1172 3119 1398 2916 
Q 1625 2713 2034 2713 
Q 2441 2713 2670 2916 
Q 2900 3119 2900 3481 
Q 2900 3844 2670 4047 
Q 2441 4250 2034 4250 
Q 1625 4250 1398 4047 
Q 1172 3844 1172 3481 
z
" transform="scale(0.015625)"/>
       </defs>
       <use xlink:href="#DejaVuSans-30"/>
       <use xlink:href="#DejaVuSans-2e" transform="translate(63.623047 0)"/>
       <use xlink:href="#DejaVuSans-38" transform="translate(95.410156 0)"/>
      </g>
     </g>
    </g>
    <g id="xtick_6">
     <g id="line2d_11">
      <path d="M 356.66323 318.04 
L 356.66323 50.64 
" clip-path="url(#ped3d59f5a1)" style="fill: none; stroke: #b0b0b0; stroke-opacity: 0.3; stroke-width: 0.8; stroke-linecap: square"/>
     </g>
     <g id="line2d_12">
      <g>
       <use xlink:href="#m86dd94dd9c" x="356.66323" y="318.04" style="stroke: #000000; stroke-width: 0.8"/>
      </g>
     </g>
     <g id="text_6">
      <!-- 1.0 -->
      <g transform="translate(348.711668 332.638438) scale(0.1 -0.1)">
       <defs>
        <path id="DejaVuSans-31" d="M 794 531 
L 1825 531 
L 1825 4091 
L 703 3866 
L 703 4441 
L 1819 4666 
L 2450 4666 
L 2450 531 
L 3481 531 
L 3481 0 
L 794 0 
L 794 531 
z
" transform="scale(0.015625)"/>
       </defs>
       <use xlink:href="#DejaVuSans-31"/>
       <use xlink:href="#DejaVuSans-2e" transform="translate(63.623047 0)"/>
       <use xlink:href="#DejaVuSans-30" transform="translate(95.410156 0)"/>
      </g>
     </g>
    </g>
    <g id="xtick_7">
     <g id="line2d_13">
      <path d="M 416.221904 318.04 
L 416.221904 50.64 
" clip-path="url(#ped3d59f5a1)" style="fill: none; stroke: #b0b0b0; stroke-opacity: 0.3; stroke-width: 0.8; stroke-linecap: square"/>
     </g>
     <g id="line2d_14">
      <g>
       <use xlink:href="#m86dd94dd9c" x="416.221904" y="318.04" style="stroke: #000000; stroke-width: 0.8"/>
      </g>
     </g>
     <g id="text_7">
      <!-- 1.2 -->
      <g transform="translate(408.270341 332.638438) scale(0.1 -0.1)">
       <use xlink:href="#DejaVuSans-31"/>
       <use xlink:href="#DejaVuSans-2e" transform="translate(63.623047 0)"/>
       <use xlink:href="#DejaVuSans-32" transform="translate(95.410156 0)"/>
      </g>
     </g>
    </g>
    <g id="xtick_8">
     <g id="line2d_15">
      <path d="M 475.780578 318.04 
L 475.780578 50.64 
" clip-path="url(#ped3d59f5a1)" style="fill: none; stroke: #b0b0b0; stroke-opacity: 0.3; stroke-width: 0.8; stroke-linecap: square"/>
     </g>
     <g id="line2d_16">
      <g>
       <use xlink:href="#m86dd94dd9c" x="475.780578" y="318.04" style="stroke: #000000; stroke-width: 0.8"/>
      </g>
     </g>
     <g id="text_8">
      <!-- 1.4 -->
      <g transform="translate(467.829015 332.638438) scale(0.1 -0.1)">
       <use xlink:href="#DejaVuSans-31"/>
       <use xlink:href="#DejaVuSans-2e" transform="translate(63.623047 0)"/>
       <use xlink:href="#DejaVuSans-34" transform="translate(95.410156 0)"/>
      </g>
     </g>
    </g>
    <g id="text_9">
     <!-- Latency (ms) -->
     <g transform="translate(245.711563 346.316563) scale(0.1 -0.1)">
      <defs>
       <path id="DejaVuSans-4c" d="M 628 4666 
L 1259 4666 
L 1259 531 
L 3531 531 
L 3531 0 
L 628 0 
L 628 4666 
z
" transform="scale(0.015625)"/>
       <path id="DejaVuSans-61" d="M 2194 1759 
Q 1497 1759 1228 1600 
Q 959 1441 959 1056 
Q 959 750 1161 570 
Q 1363 391 1709 391 
Q 2188 391 2477 730 
Q 2766 1069 2766 1631 
L 2766 1759 
L 2194 1759 
z
M 3341 1997 
L 3341 0 
L 2766 0 
L 2766 531 
Q 2569 213 2275 61 
Q 1981 -91 1556 -91 
Q 1019 -91 701 211 
Q 384 513 384 1019 
Q 384 1609 779 1909 
Q 1175 2209 1959 2209 
L 2766 2209 
L 2766 2266 
Q 2766 2663 2505 2880 
Q 2244 3097 1772 3097 
Q 1472 3097 1187 3025 
Q 903 2953 641 2809 
L 641 3341 
Q 956 3463 1253 3523 
Q 1550 3584 1831 3584 
Q 2591 3584 2966 3190 
Q 3341 2797 3341 1997 
z
" transform="scale(0.015625)"/>
       <path id="DejaVuSans-74" d="M 1172 4494 
L 1172 3500 
L 2356 3500 
L 2356 3053 
L 1172 3053 
L 1172 1153 
Q 1172 725 1289 603 
Q 1406 481 1766 481 
L 2356 481 
L 2356 0 
L 1766 0 
Q 1100 0 847 248 
Q 594 497 594 1153 
L 594 3053 
L 172 3053 
L 172 3500 
L 594 3500 
L 594 4494 
L 1172 4494 
z
" transform="scale(0.015625)"/>
       <path id="DejaVuSans-65" d="M 3597 1894 
L 3597 1613 
L 953 1613 
Q 991 1019 1311 708 
Q 1631 397 2203 397 
Q 2534 397 2845 478 
Q 3156 559 3463 722 
L 3463 178 
Q 3153 47 2828 -22 
Q 2503 -91 2169 -91 
Q 1331 -91 842 396 
Q 353 884 353 1716 
Q 353 2575 817 3079 
Q 1281 3584 2069 3584 
Q 2775 3584 3186 3129 
Q 3597 2675 3597 1894 
z
M 3022 2063 
Q 3016 2534 2758 2815 
Q 2500 3097 2075 3097 
Q 1594 3097 1305 2825 
Q 1016 2553 972 2059 
L 3022 2063 
z
" transform="scale(0.015625)"/>
       <path id="DejaVuSans-6e" d="M 3513 2113 
L 3513 0 
L 2938 0 
L 2938 2094 
Q 2938 2591 2744 2837 
Q 2550 3084 2163 3084 
Q 1697 3084 1428 2787 
Q 1159 2491 1159 1978 
L 1159 0 
L 581 0 
L 581 3500 
L 1159 3500 
L 1159 2956 
Q 1366 3272 1645 3428 
Q 1925 3584 2291 3584 
Q 2894 3584 3203 3211 
Q 3513 2838 3513 2113 
z
" transform="scale(0.015625)"/>
       <path id="DejaVuSans-63" d="M 3122 3366 
L 3122 2828 
Q 2878 2963 2633 3030 
Q 2388 3097 2138 3097 
Q 1578 3097 1268 2742 
Q 959 2388 959 1747 
Q 959 1106 1268 751 
Q 1578 397 2138 397 
Q 2388 397 2633 464 
Q 2878 531 3122 666 
L 3122 134 
Q 2881 22 2623 -34 
Q 2366 -91 2075 -91 
Q 1284 -91 818 406 
Q 353 903 353 1747 
Q 353 2603 823 3093 
Q 1294 3584 2113 3584 
Q 2378 3584 2631 3529 
Q 2884 3475 3122 3366 
z
" transform="scale(0.015625)"/>
       <path id="DejaVuSans-79" d="M 2059 -325 
Q 1816 -950 1584 -1140 
Q 1353 -1331 966 -1331 
L 506 -1331 
L 506 -850 
L 844 -850 
Q 1081 -850 1212 -737 
Q 1344 -625 1503 -206 
L 1606 56 
L 191 3500 
L 800 3500 
L 1894 763 
L 2988 3500 
L 3597 3500 
L 2059 -325 
z
" transform="scale(0.015625)"/>
       <path id="DejaVuSans-20" transform="scale(0.015625)"/>
       <path id="DejaVuSans-28" d="M 1984 4856 
Q 1566 4138 1362 3434 
Q 1159 2731 1159 2009 
Q 1159 1288 1364 580 
Q 1569 -128 1984 -844 
L 1484 -844 
Q 1016 -109 783 600 
Q 550 1309 550 2009 
Q 550 2706 781 3412 
Q 1013 4119 1484 4856 
L 1984 4856 
z
" transform="scale(0.015625)"/>
       <path id="DejaVuSans-6d" d="M 3328 2828 
Q 3544 3216 3844 3400 
Q 4144 3584 4550 3584 
Q 5097 3584 5394 3201 
Q 5691 2819 5691 2113 
L 5691 0 
L 5113 0 
L 5113 2094 
Q 5113 2597 4934 2840 
Q 4756 3084 4391 3084 
Q 3944 3084 3684 2787 
Q 3425 2491 3425 1978 
L 3425 0 
L 2847 0 
L 2847 2094 
Q 2847 2600 2669 2842 
Q 2491 3084 2119 3084 
Q 1678 3084 1418 2786 
Q 1159 2488 1159 1978 
L 1159 0 
L 581 0 
L 581 3500 
L 1159 3500 
L 1159 2956 
Q 1356 3278 1631 3431 
Q 1906 3584 2284 3584 
Q 2666 3584 2933 3390 
Q 3200 3197 3328 2828 
z
" transform="scale(0.015625)"/>
       <path id="DejaVuSans-73" d="M 2834 3397 
L 2834 2853 
Q 2591 2978 2328 3040 
Q 2066 3103 1784 3103 
Q 1356 3103 1142 2972 
Q 928 2841 928 2578 
Q 928 2378 1081 2264 
Q 1234 2150 1697 2047 
L 1894 2003 
Q 2506 1872 2764 1633 
Q 3022 1394 3022 966 
Q 3022 478 2636 193 
Q 2250 -91 1575 -91 
Q 1294 -91 989 -36 
Q 684 19 347 128 
L 347 722 
Q 666 556 975 473 
Q 1284 391 1588 391 
Q 1994 391 2212 530 
Q 2431 669 2431 922 
Q 2431 1156 2273 1281 
Q 2116 1406 1581 1522 
L 1381 1569 
Q 847 1681 609 1914 
Q 372 2147 372 2553 
Q 372 3047 722 3315 
Q 1072 3584 1716 3584 
Q 2034 3584 2315 3537 
Q 2597 3491 2834 3397 
z
" transform="scale(0.015625)"/>
       <path id="DejaVuSans-29" d="M 513 4856 
L 1013 4856 
Q 1481 4119 1714 3412 
Q 1947 2706 1947 2009 
Q 1947 1309 1714 600 
Q 1481 -109 1013 -844 
L 513 -844 
Q 928 -128 1133 580 
Q 1338 1288 1338 2009 
Q 1338 2731 1133 3434 
Q 928 4138 513 4856 
z
" transform="scale(0.015625)"/>
      </defs>
      <use xlink:href="#DejaVuSans-4c"/>
      <use xlink:href="#DejaVuSans-61" transform="translate(55.712891 0)"/>
      <use xlink:href="#DejaVuSans-74" transform="translate(116.992188 0)"/>
      <use xlink:href="#DejaVuSans-65" transform="translate(156.201172 0)"/>
      <use xlink:href="#DejaVuSans-6e" transform="translate(217.724609 0)"/>
      <use xlink:href="#DejaVuSans-63" transform="translate(281.103516 0)"/>
      <use xlink:href="#DejaVuSans-79" transform="translate(336.083984 0)"/>
      <use xlink:href="#DejaVuSans-20" transform="translate(395.263672 0)"/>
      <use xlink:href="#DejaVuSans-28" transform="translate(427.050781 0)"/>
      <use xlink:href="#DejaVuSans-6d" transform="translate(466.064453 0)"/>
      <use xlink:href="#DejaVuSans-73" transform="translate(563.476562 0)"/>
      <use xlink:href="#DejaVuSans-29" transform="translate(615.576172 0)"/>
     </g>
    </g>
   </g>
   <g id="matplotlib.axis_2">
    <g id="ytick_1">
     <g id="line2d_17">
      <path d="M 47.72 318.04 
L 509.1625 318.04 
" clip-path="url(#ped3d59f5a1)" style="fill: none; stroke: #b0b0b0; stroke-opacity: 0.3; stroke-width: 0.8; stroke-linecap: square"/>
     </g>
     <g id="line2d_18">
      <defs>
       <path id="m3f0d0d7763" d="M 0 0 
L -3.5 0 
" style="stroke: #000000; stroke-width: 0.8"/>
      </defs>
      <g>
       <use xlink:href="#m3f0d0d7763" x="47.72" y="318.04" style="stroke: #000000; stroke-width: 0.8"/>
      </g>
     </g>
     <g id="text_10">
      <!-- 0.0 -->
      <g transform="translate(24.816875 321.839219) scale(0.1 -0.1)">
       <use xlink:href="#DejaVuSans-30"/>
       <use xlink:href="#DejaVuSans-2e" transform="translate(63.623047 0)"/>
       <use xlink:href="#DejaVuSans-30" transform="translate(95.410156 0)"/>
      </g>
     </g>
    </g>
    <g id="ytick_2">
     <g id="line2d_19">
      <path d="M 47.72 264.56 
L 509.1625 264.56 
" clip-path="url(#ped3d59f5a1)" style="fill: none; stroke: #b0b0b0; stroke-opacity: 0.3; stroke-width: 0.8; stroke-linecap: square"/>
     </g>
     <g id="line2d_20">
      <g>
       <use xlink:href="#m3f0d0d7763" x="47.72" y="264.56" style="stroke: #000000; stroke-width: 0.8"/>
      </g>
     </g>
     <g id="text_11">
      <!-- 0.2 -->
      <g transform="translate(24.816875 268.359219) scale(0.1 -0.1)">
       <use xlink:href="#DejaVuSans-30"/>
       <use xlink:href="#DejaVuSans-2e" transform="translate(63.623047 0)"/>
       <use xlink:href="#DejaVuSans-32" transform="translate(95.410156 0)"/>
      </g>
     </g>
    </g>
    <g id="ytick_3">
     <g id="line2d_21">
      <path d="M 47.72 211.08 
L 509.1625 211.08 
" clip-path="url(#ped3d59f5a1)" style="fill: none; stroke: #b0b0b0; stroke-opacity: 0.3; stroke-width: 0.8; stroke-linecap: square"/>
     </g>
     <g id="line2d_22">
      <g>
       <use xlink:href="#m3f0d0d7763" x="47.72" y="211.08" style="stroke: #000000; stroke-width: 0.8"/>
      </g>
     </g>
     <g id="text_12">
      <!-- 0.4 -->
      <g transform="translate(24.816875 214.879219) scale(0.1 -0.1)">
       <use xlink:href="#DejaVuSans-30"/>
       <use xlink:href="#DejaVuSans-2e" transform="translate(63.623047 0)"/>
       <use xlink:href="#DejaVuSans-34" transform="translate(95.410156 0)"/>
      </g>
     </g>
    </g>
    <g id="ytick_4">
     <g id="line2d_23">
      <path d="M 47.72 157.6 
L 509.1625 157.6 
" clip-path="url(#ped3d59f5a1)" style="fill: none; stroke: #b0b0b0; stroke-opacity: 0.3; stroke-width: 0.8; stroke-linecap: square"/>
     </g>
     <g id="line2d_24">
      <g>
       <use xlink:href="#m3f0d0d7763" x="47.72" y="157.6" style="stroke: #000000; stroke-width: 0.8"/>
      </g>
     </g>
     <g id="text_13">
      <!-- 0.6 -->
      <g transform="translate(24.816875 161.399219) scale(0.1 -0.1)">
       <use xlink:href="#DejaVuSans-30"/>
       <use xlink:href="#DejaVuSans-2e" transform="translate(63.623047 0)"/>
       <use xlink:href="#DejaVuSans-36" transform="translate(95.410156 0)"/>
      </g>
     </g>
    </g>
    <g id="ytick_5">
     <g id="line2d_25">
      <path d="M 47.72 104.12 
L 509.1625 104.12 
" clip-path="url(#ped3d59f5a1)" style="fill: none; stroke: #b0b0b0; stroke-opacity: 0.3; stroke-width: 0.8; stroke-linecap: square"/>
     </g>
     <g id="line2d_26">
      <g>
       <use xlink:href="#m3f0d0d7763" x="47.72" y="104.12" style="stroke: #000000; stroke-width: 0.8"/>
      </g>
     </g>
     <g id="text_14">
      <!-- 0.8 -->
      <g transform="translate(24.816875 107.919219) scale(0.1 -0.1)">
       <use xlink:href="#DejaVuSans-30"/>
       <use xlink:href="#DejaVuSans-2e" transform="translate(63.623047 0)"/>
       <use xlink:href="#DejaVuSans-38" transform="translate(95.410156 0)"/>
      </g>
     </g>
    </g>
    <g id="ytick_6">
     <g id="line2d_27">
      <path d="M 47.72 50.64 
L 509.1625 50.64 
" clip-path="url(#ped3d59f5a1)" style="fill: none; stroke: #b0b0b0; stroke-opacity: 0.3; stroke-width: 0.8; stroke-linecap: square"/>
     </g>
     <g id="line2d_28">
      <g>
       <use xlink:href="#m3f0d0d7763" x="47.72" y="50.64" style="stroke: #000000; stroke-width: 0.8"/>
      </g>
     </g>
     <g id="text_15">
      <!-- 1.0 -->
      <g transform="translate(24.816875 54.439219) scale(0.1 -0.1)">
       <use xlink:href="#DejaVuSans-31"/>
       <use xlink:href="#DejaVuSans-2e" transform="translate(63.623047 0)"/>
       <use xlink:href="#DejaVuSans-30" transform="translate(95.410156 0)"/>
      </g>
     </g>
    </g>
    <g id="text_16">
     <!-- CDF -->
     <g transform="translate(18.737187 194.557187) rotate(-90) scale(0.1 -0.1)">
      <defs>
       <path id="DejaVuSans-43" d="M 4122 4306 
L 4122 3641 
Q 3803 3938 3442 4084 
Q 3081 4231 2675 4231 
Q 1875 4231 1450 3742 
Q 1025 3253 1025 2328 
Q 1025 1406 1450 917 
Q 1875 428 2675 428 
Q 3081 428 3442 575 
Q 3803 722 4122 1019 
L 4122 359 
Q 3791 134 3420 21 
Q 3050 -91 2638 -91 
Q 1578 -91 968 557 
Q 359 1206 359 2328 
Q 359 3453 968 4101 
Q 1578 4750 2638 4750 
Q 3056 4750 3426 4639 
Q 3797 4528 4122 4306 
z
" transform="scale(0.015625)"/>
       <path id="DejaVuSans-44" d="M 1259 4147 
L 1259 519 
L 2022 519 
Q 2988 519 3436 956 
Q 3884 1394 3884 2338 
Q 3884 3275 3436 3711 
Q 2988 4147 2022 4147 
L 1259 4147 
z
M 628 4666 
L 1925 4666 
Q 3281 4666 3915 4102 
Q 4550 3538 4550 2338 
Q 4550 1131 3912 565 
Q 3275 0 1925 0 
L 628 0 
L 628 4666 
z
" transform="scale(0.015625)"/>
       <path id="DejaVuSans-46" d="M 628 4666 
L 3309 4666 
L 3309 4134 
L 1259 4134 
L 1259 2759 
L 3109 2759 
L 3109 2228 
L 1259 2228 
L 1259 0 
L 628 0 
L 628 4666 
z
" transform="scale(0.015625)"/>
      </defs>
      <use xlink:href="#DejaVuSans-43"/>
      <use xlink:href="#DejaVuSans-44" transform="translate(69.824219 0)"/>
      <use xlink:href="#DejaVuSans-46" transform="translate(146.826172 0)"/>
     </g>
    </g>
   </g>
   <g id="line2d_29">
    <path d="M 68.799482 317.950867 
L 68.961482 317.326933 
L 69.047246 316.613867 
L 69.161599 315.9008 
L 69.266422 304.67 
L 69.275952 303.6004 
L 69.380775 256.8054 
L 69.390304 255.7358 
L 69.495128 210.990867 
L 69.504657 209.921267 
L 69.60948 190.668467 
L 69.61901 189.598867 
L 69.723833 176.407133 
L 69.733362 175.337533 
L 69.838186 167.582933 
L 69.857244 166.4242 
L 69.962068 158.223933 
L 69.971597 157.154333 
L 70.07642 139.9516 
L 70.095479 138.792867 
L 70.200302 127.829467 
L 70.219361 126.670733 
L 70.324184 118.2922 
L 70.352773 117.044333 
L 70.457596 111.250667 
L 70.505243 109.824533 
L 70.610066 104.743933 
L 70.638654 103.496067 
L 70.743477 96.9002 
L 70.772066 95.652333 
L 70.876889 90.393467 
L 70.895948 89.234733 
L 71.000771 84.778067 
L 71.077006 83.084533 
L 71.181829 81.569267 
L 71.410535 78.4496 
L 71.515358 76.399533 
L 71.601122 74.616867 
L 71.705946 73.012467 
L 71.772651 72.210267 
L 71.839357 71.675467 
L 71.915592 71.318933 
L 72.010886 70.516733 
L 72.087121 69.714533 
L 72.182415 69.001467 
L 72.344415 67.7536 
L 72.430179 66.773133 
L 72.525473 66.327467 
L 72.592179 65.8818 
L 72.801825 65.257867 
L 72.897119 65.0796 
L 73.335471 64.723067 
L 73.449824 64.2774 
L 74.193116 58.216333 
L 74.545703 57.325 
L 74.964996 55.7206 
L 75.317584 55.274933 
L 75.412878 54.651 
L 75.52723 54.3836 
L 75.736877 53.403133 
L 75.965582 53.135733 
L 76.30864 52.690067 
L 76.327699 52.5118 
L 76.546875 52.2444 
L 77.223461 51.531333 
L 77.880989 51.263933 
L 77.938165 51.1748 
L 79.691573 50.996533 
L 79.996513 50.818267 
L 117.818653 50.64 
L 117.818653 50.64 
" clip-path="url(#ped3d59f5a1)" style="fill: none; stroke: #1f77b4; stroke-opacity: 0.85; stroke-width: 1.4; stroke-linecap: square"/>
   </g>
   <g id="line2d_30">
    <path d="M 68.789953 317.950867 
L 68.904306 316.9704 
L 69.009129 312.1572 
L 69.037717 310.909333 
L 69.14254 304.9374 
L 69.161599 303.778667 
L 69.266422 285.060667 
L 69.275952 283.991067 
L 69.380775 232.115467 
L 69.390304 231.045867 
L 69.495128 175.2484 
L 69.504657 174.1788 
L 69.60948 135.6732 
L 69.61901 134.6036 
L 69.723833 106.615733 
L 69.733362 105.546133 
L 69.838186 88.3434 
L 69.857244 87.184667 
L 69.962068 79.430067 
L 70.009715 78.003933 
L 70.114538 74.349467 
L 70.162185 72.923333 
L 70.257479 71.675467 
L 70.343243 71.051533 
L 70.629125 69.268867 
L 70.724419 68.377533 
L 70.85783 67.842733 
L 70.924536 67.4862 
L 71.210417 66.9514 
L 71.515358 66.327467 
L 72.125239 65.6144 
L 72.220533 65.347 
L 72.535002 64.901333 
L 72.668414 64.633933 
L 72.916178 64.366533 
L 73.135354 63.653467 
L 73.230648 63.386067 
L 73.335471 62.049067 
L 73.440294 61.425133 
L 73.545117 59.7316 
L 73.602294 59.1968 
L 73.707117 57.8598 
L 74.250292 53.759667 
L 74.402762 53.135733 
L 74.507586 52.7792 
L 74.812526 52.422667 
L 75.794053 51.7096 
L 77.623695 51.085667 
L 82.007214 50.818267 
L 102.171399 50.729133 
L 465.00284 50.64 
L 465.00284 50.64 
" clip-path="url(#ped3d59f5a1)" style="fill: none; stroke-dasharray: 5.18,2.24; stroke-dashoffset: 0; stroke: #1f77b4; stroke-opacity: 0.85; stroke-width: 1.4"/>
   </g>
   <g id="line2d_31">
    <path d="M 68.8376 317.950867 
L 68.942423 315.187733 
L 68.971011 313.939867 
L 69.075835 307.522267 
L 69.104423 306.2744 
L 69.209246 293.350067 
L 69.218775 292.280467 
L 69.323599 237.196067 
L 69.333128 236.126467 
L 69.437951 163.2154 
L 69.447481 162.1458 
L 69.552304 120.164 
L 69.561833 119.0944 
L 69.666657 97.880667 
L 69.676186 96.811067 
L 69.781009 84.956333 
L 69.800068 83.7976 
L 69.904891 77.9148 
L 69.943009 76.5778 
L 70.047832 73.190733 
L 70.70536 67.931867 
L 70.85783 67.307933 
L 71.296182 66.238333 
L 71.601122 66.060067 
L 71.848886 65.703533 
L 72.182415 65.525267 
L 73.240177 63.386067 
L 73.345 62.583867 
L 73.459353 60.5338 
L 73.554647 58.305467 
L 73.640411 57.414133 
L 73.745235 55.631467 
L 73.926293 54.294467 
L 74.031116 53.5814 
L 74.231233 53.135733 
L 74.240763 53.0466 
L 74.383704 52.868333 
L 75.012643 51.887867 
L 77.223461 51.263933 
L 79.396162 50.9074 
L 85.561676 50.729133 
L 103.324454 50.64 
L 103.324454 50.64 
" clip-path="url(#ped3d59f5a1)" style="fill: none; stroke-dasharray: 1.4,2.31; stroke-dashoffset: 0; stroke: #1f77b4; stroke-opacity: 0.85; stroke-width: 1.4"/>
   </g>
   <g id="line2d_32">
    <path d="M 68.694659 317.950867 
L 68.847129 317.7726 
L 68.951953 314.2964 
L 68.99007 312.9594 
L 69.094893 307.344 
L 69.123482 306.096133 
L 69.228305 281.584467 
L 69.237834 280.514867 
L 69.342657 202.612333 
L 69.352187 201.542733 
L 69.45701 133.8014 
L 69.46654 132.7318 
L 69.571363 104.209133 
L 69.580892 103.139533 
L 69.685715 88.699933 
L 69.695245 87.630333 
L 69.800068 79.162667 
L 69.847715 77.736533 
L 69.952538 73.9038 
L 70.038303 72.121133 
L 70.143126 70.4276 
L 70.514772 67.664467 
L 70.667242 67.397067 
L 70.772066 67.040533 
L 71.296182 65.525267 
L 71.686887 65.168733 
L 71.772651 64.990467 
L 72.029945 64.8122 
L 72.982884 63.386067 
L 73.259236 62.227333 
L 73.364059 61.0686 
L 73.516529 58.662 
L 73.621353 56.701067 
L 73.716646 55.809733 
L 73.81194 54.561867 
L 73.907234 53.937933 
L 74.116881 52.868333 
L 74.212175 52.600933 
L 74.374174 52.066133 
L 74.459939 51.977 
L 75.517701 51.531333 
L 75.546289 51.4422 
L 76.318169 51.263933 
L 76.451581 51.1748 
L 77.823813 50.9074 
L 82.960153 50.818267 
L 104.80151 50.64 
L 104.80151 50.64 
" clip-path="url(#ped3d59f5a1)" style="fill: none; stroke-dasharray: 8.96,2.24,1.4,2.24; stroke-dashoffset: 0; stroke: #1f77b4; stroke-opacity: 0.85; stroke-width: 1.4"/>
   </g>
   <g id="line2d_33">
    <path d="M 68.942423 317.950867 
L 69.075835 317.594333 
L 69.237834 316.346467 
L 69.342657 308.1462 
L 69.352187 307.0766 
L 69.45701 269.551467 
L 69.46654 268.481867 
L 69.571363 219.6368 
L 69.580892 218.5672 
L 69.685715 196.729533 
L 69.695245 195.659933 
L 69.800068 184.34 
L 69.809597 183.2704 
L 69.914421 175.5158 
L 69.943009 174.267933 
L 70.047832 170.4352 
L 70.07642 169.187333 
L 70.181244 161.8784 
L 70.190773 160.8088 
L 70.295596 146.814867 
L 70.314655 145.656133 
L 70.419478 133.444867 
L 70.438537 132.286133 
L 70.54336 123.016267 
L 70.562419 121.857533 
L 70.667242 113.2116 
L 70.695831 111.963733 
L 70.800654 104.12 
L 70.819713 102.961267 
L 70.924536 96.3654 
L 70.943595 95.206667 
L 71.048418 88.6108 
L 71.086535 87.2738 
L 71.191359 85.223733 
L 71.219947 84.5998 
L 71.505829 80.945333 
L 71.591593 80.054 
L 71.686887 79.430067 
L 71.79171 77.023467 
L 71.839357 75.597333 
L 71.94418 74.1712 
L 72.029945 73.547267 
L 72.134768 72.032 
L 72.582649 68.734067 
L 72.677943 68.110133 
L 72.744649 67.397067 
L 72.830413 67.040533 
L 73.116295 66.060067 
L 73.173471 65.792667 
L 73.364059 65.347 
L 73.554647 65.168733 
L 73.754764 63.7426 
L 73.840529 61.781667 
L 73.954881 61.0686 
L 74.250292 59.1968 
L 74.650526 57.5924 
L 74.736291 57.0576 
L 74.869702 56.879333 
L 74.945938 56.5228 
L 75.22229 55.631467 
L 75.593936 54.3836 
L 76.175229 52.868333 
L 76.422993 52.600933 
L 76.813698 52.422667 
L 76.899462 52.2444 
L 77.051932 51.977 
L 77.223461 51.620467 
L 77.718989 51.263933 
L 79.11028 50.996533 
L 81.14004 50.818267 
L 116.131952 50.64 
L 116.131952 50.64 
" clip-path="url(#ped3d59f5a1)" style="fill: none; stroke: #ff7f0e; stroke-opacity: 0.85; stroke-width: 1.4; stroke-linecap: square"/>
   </g>
   <g id="line2d_34">
    <path d="M 68.875717 317.950867 
L 68.99007 315.9008 
L 69.094893 312.068067 
L 69.15207 310.5528 
L 69.256893 300.035067 
L 69.266422 298.965467 
L 69.371246 254.755333 
L 69.380775 253.685733 
L 69.485598 187.5488 
L 69.495128 186.4792 
L 69.599951 133.890533 
L 69.60948 132.820933 
L 69.714304 102.426467 
L 69.723833 101.356867 
L 69.828656 87.8086 
L 69.847715 86.649867 
L 69.952538 80.054 
L 69.981126 78.806133 
L 70.08595 75.329933 
L 70.133597 73.9038 
L 70.228891 72.121133 
L 70.295596 71.586333 
L 70.40042 70.695 
L 70.610066 69.714533 
L 70.733948 69.179733 
L 70.972183 67.842733 
L 71.277123 67.307933 
L 71.391476 66.862267 
L 71.867945 66.505733 
L 72.115709 66.060067 
L 72.172886 65.703533 
L 73.154413 64.901333 
L 73.707117 58.751133 
L 73.802411 57.414133 
L 73.907234 56.433667 
L 73.992999 55.007533 
L 74.107351 54.472733 
L 74.316998 53.492267 
L 74.402762 53.135733 
L 74.574291 52.422667 
L 74.707703 52.155267 
L 75.470054 51.620467 
L 76.241934 51.353067 
L 77.356873 51.085667 
L 79.148398 50.818267 
L 104.001041 50.729133 
L 488.187841 50.64 
L 488.187841 50.64 
" clip-path="url(#ped3d59f5a1)" style="fill: none; stroke-dasharray: 5.18,2.24; stroke-dashoffset: 0; stroke: #ff7f0e; stroke-opacity: 0.85; stroke-width: 1.4"/>
   </g>
   <g id="line2d_35">
    <path d="M 68.894776 317.950867 
L 69.094893 316.524733 
L 69.199717 312.9594 
L 69.228305 311.711533 
L 69.333128 297.271933 
L 69.342657 296.202333 
L 69.447481 236.661267 
L 69.45701 235.591667 
L 69.561833 158.6696 
L 69.571363 157.6 
L 69.676186 113.924667 
L 69.685715 112.855067 
L 69.790539 91.908733 
L 69.809597 90.75 
L 69.914421 79.964867 
L 69.952538 78.627867 
L 70.057362 74.082067 
L 70.124067 72.477667 
L 70.228891 70.784133 
L 70.657713 67.664467 
L 70.810183 67.397067 
L 70.981712 66.684 
L 71.153241 65.970933 
L 71.410535 65.792667 
L 71.429593 65.703533 
L 71.658299 65.436133 
L 71.744063 65.257867 
L 72.334885 63.7426 
L 72.782766 63.564333 
L 73.230648 63.386067 
L 73.364059 63.118667 
L 73.468882 62.1382 
L 73.688058 59.107667 
L 73.792882 57.681533 
L 73.916764 55.542333 
L 74.012058 54.561867 
L 74.088293 54.205333 
L 74.193116 52.957467 
L 74.316998 52.5118 
L 74.316998 52.422667 
L 74.517115 52.2444 
L 74.574291 52.155267 
L 74.860173 51.977 
L 75.155584 51.7096 
L 75.174643 51.620467 
L 76.022758 51.4422 
L 76.375346 51.263933 
L 76.661227 51.085667 
L 79.815455 50.818267 
L 80.291924 50.729133 
L 109.61385 50.64 
L 109.61385 50.64 
" clip-path="url(#ped3d59f5a1)" style="fill: none; stroke-dasharray: 1.4,2.31; stroke-dashoffset: 0; stroke: #ff7f0e; stroke-opacity: 0.85; stroke-width: 1.4"/>
   </g>
   <g id="line2d_36">
    <path d="M 68.770894 317.950867 
L 68.923364 315.544267 
L 69.028188 308.502733 
L 69.047246 307.344 
L 69.15207 297.628467 
L 69.171128 296.469733 
L 69.275952 277.484333 
L 69.285481 276.414733 
L 69.390304 219.993333 
L 69.399834 218.923733 
L 69.504657 152.162867 
L 69.514186 151.093267 
L 69.61901 109.913667 
L 69.628539 108.844067 
L 69.733362 89.591267 
L 69.742892 88.521667 
L 69.847715 79.697467 
L 69.885833 78.360467 
L 69.990656 74.616867 
L 70.028773 73.279867 
L 70.133597 71.2298 
L 70.219361 70.338467 
L 70.438537 69.001467 
L 70.600537 68.734067 
L 70.70536 68.110133 
L 70.895948 67.397067 
L 71.057947 66.862267 
L 71.229476 66.1492 
L 71.467711 65.970933 
L 71.839357 65.525267 
L 72.010886 65.168733 
L 72.125239 64.901333 
L 72.716061 64.188267 
L 72.73512 64.099133 
L 73.211589 63.920867 
L 73.449824 62.583867 
L 73.497471 62.1382 
L 73.602294 60.622933 
L 73.707117 58.662 
L 73.81194 56.879333 
L 73.878646 56.344533 
L 73.97394 55.809733 
L 74.259822 54.027067 
L 74.28841 53.314 
L 74.412292 53.0466 
L 74.574291 52.066133 
L 75.822641 51.353067 
L 77.175814 51.085667 
L 77.194873 50.996533 
L 80.768393 50.729133 
L 100.74199 50.64 
L 100.74199 50.64 
" clip-path="url(#ped3d59f5a1)" style="fill: none; stroke-dasharray: 8.96,2.24,1.4,2.24; stroke-dashoffset: 0; stroke: #ff7f0e; stroke-opacity: 0.85; stroke-width: 1.4"/>
   </g>
   <g id="line2d_37">
    <path d="M 68.885247 317.950867 
L 69.199717 315.989933 
L 69.30454 298.341533 
L 69.314069 297.271933 
L 69.418893 249.674733 
L 69.428422 248.605133 
L 69.533245 208.316867 
L 69.542775 207.247267 
L 69.647598 187.727067 
L 69.657127 186.657467 
L 69.761951 174.802733 
L 69.781009 173.644 
L 69.885833 162.6806 
L 69.904891 161.521867 
L 70.009715 148.151867 
L 70.019244 147.082267 
L 70.124067 135.227533 
L 70.133597 134.157933 
L 70.23842 126.135933 
L 70.257479 124.9772 
L 70.362302 117.49 
L 70.381361 116.331267 
L 70.486184 110.805 
L 70.505243 109.646267 
L 70.610066 104.833067 
L 70.638654 103.5852 
L 70.743477 96.098 
L 70.781595 94.761 
L 70.886418 87.986867 
L 70.934065 86.560733 
L 71.038888 83.7976 
L 71.134182 81.9258 
L 71.229476 80.5888 
L 71.305711 79.7866 
L 71.410535 77.825667 
L 71.620181 74.884267 
L 71.725004 73.190733 
L 72.249121 69.179733 
L 72.325356 68.734067 
L 72.42065 67.842733 
L 72.506414 67.575333 
L 72.611237 67.397067 
L 72.630296 67.040533 
L 72.73512 66.862267 
L 72.830413 66.327467 
L 73.011472 65.970933 
L 73.268765 65.168733 
L 73.373589 64.901333 
L 73.545117 63.653467 
L 73.640411 62.673 
L 73.688058 61.959933 
L 73.745235 61.157733 
L 73.81194 60.890333 
L 74.221704 58.038067 
L 74.498056 56.2554 
L 74.650526 55.4532 
L 74.812526 55.274933 
L 74.964996 54.561867 
L 75.165113 54.1162 
L 75.269937 53.670533 
L 75.384289 53.403133 
L 75.431936 53.224867 
L 75.727347 52.868333 
L 75.727347 52.7792 
L 75.908406 52.600933 
L 76.127582 52.066133 
L 76.413463 51.887867 
L 76.565933 51.620467 
L 76.670757 51.531333 
L 78.862516 50.996533 
L 80.139454 50.9074 
L 86.019086 50.818267 
L 115.102778 50.64 
L 115.102778 50.64 
" clip-path="url(#ped3d59f5a1)" style="fill: none; stroke: #2ca02c; stroke-opacity: 0.85; stroke-width: 1.4; stroke-linecap: square"/>
   </g>
   <g id="line2d_38">
    <path d="M 68.971011 317.950867 
L 69.171128 316.9704 
L 69.275952 303.6004 
L 69.285481 302.5308 
L 69.390304 242.9006 
L 69.399834 241.831 
L 69.504657 174.802733 
L 69.514186 173.733133 
L 69.61901 132.286133 
L 69.628539 131.216533 
L 69.733362 105.635267 
L 69.742892 104.565667 
L 69.847715 87.184667 
L 69.866774 86.025933 
L 69.971597 78.4496 
L 70.009715 77.1126 
L 70.114538 74.082067 
L 70.209832 72.210267 
L 70.314655 70.9624 
L 70.55289 69.6254 
L 70.648184 69.179733 
L 70.86736 68.021 
L 70.943595 67.7536 
L 71.315241 66.862267 
L 71.534417 66.594867 
L 71.80124 66.4166 
L 71.810769 66.327467 
L 72.020415 66.1492 
L 72.182415 65.6144 
L 72.458767 65.347 
L 72.716061 65.0796 
L 72.897119 64.5448 
L 73.097236 64.2774 
L 73.325942 63.653467 
L 73.430765 62.494733 
L 73.487941 61.781667 
L 73.583235 59.999 
L 73.630882 59.285933 
L 73.783352 56.879333 
L 73.888175 54.9184 
L 74.107351 53.759667 
L 74.28841 52.868333 
L 74.44088 52.333533 
L 74.555233 52.155267 
L 74.898291 51.7096 
L 76.746992 51.085667 
L 77.499813 50.996533 
L 99.941522 50.729133 
L 468.986124 50.64 
L 468.986124 50.64 
" clip-path="url(#ped3d59f5a1)" style="fill: none; stroke-dasharray: 5.18,2.24; stroke-dashoffset: 0; stroke: #2ca02c; stroke-opacity: 0.85; stroke-width: 1.4"/>
   </g>
   <g id="line2d_39">
    <path d="M 68.913835 317.950867 
L 68.971011 317.594333 
L 69.075835 315.187733 
L 69.104423 313.939867 
L 69.209246 307.254867 
L 69.237834 306.007 
L 69.342657 287.467267 
L 69.352187 286.397667 
L 69.45701 209.2082 
L 69.46654 208.1386 
L 69.571363 134.247067 
L 69.580892 133.177467 
L 69.685715 97.078467 
L 69.695245 96.008867 
L 69.800068 81.836667 
L 69.819127 80.677933 
L 69.92395 75.062533 
L 69.990656 73.458133 
L 70.095479 71.051533 
L 70.629125 66.773133 
L 70.810183 66.238333 
L 70.810183 66.1492 
L 70.991242 65.970933 
L 71.258064 64.990467 
L 71.610652 64.723067 
L 71.915592 64.366533 
L 72.020415 64.188267 
L 72.201474 63.920867 
L 72.487355 63.4752 
L 72.963825 63.029533 
L 72.982884 62.851267 
L 73.144883 62.673 
L 73.325942 61.781667 
L 73.487941 59.285933 
L 73.592764 57.146733 
L 74.116881 52.690067 
L 74.297939 52.333533 
L 74.345586 52.155267 
L 74.679115 51.7096 
L 74.74582 51.620467 
L 76.013229 51.085667 
L 80.892276 50.729133 
L 106.259506 50.64 
L 106.259506 50.64 
" clip-path="url(#ped3d59f5a1)" style="fill: none; stroke-dasharray: 1.4,2.31; stroke-dashoffset: 0; stroke: #2ca02c; stroke-opacity: 0.85; stroke-width: 1.4"/>
   </g>
   <g id="line2d_40">
    <path d="M 68.713718 317.950867 
L 68.866188 317.683467 
L 68.9996 316.613867 
L 69.094893 314.920333 
L 69.14254 314.207267 
L 69.190187 312.781133 
L 69.295011 293.884867 
L 69.30454 292.815267 
L 69.409363 229.084933 
L 69.418893 228.015333 
L 69.523716 147.795333 
L 69.533245 146.725733 
L 69.638068 109.468 
L 69.647598 108.3984 
L 69.752421 91.908733 
L 69.761951 90.839133 
L 69.866774 81.480133 
L 69.885833 80.3214 
L 69.990656 74.884267 
L 70.057362 73.279867 
L 70.162185 71.408067 
L 70.257479 69.536267 
L 70.362302 68.466667 
L 70.419478 68.199267 
L 70.581478 67.931867 
L 70.714889 67.2188 
L 70.810183 66.594867 
L 71.038888 66.238333 
L 71.229476 65.6144 
L 71.648769 65.257867 
L 71.734534 65.0796 
L 71.94418 64.723067 
L 72.201474 64.01 
L 72.649355 63.564333 
L 72.773237 63.296933 
L 73.001942 63.118667 
L 73.240177 62.9404 
L 73.421235 61.6034 
L 73.526059 59.909867 
L 73.583235 58.3946 
L 73.678529 56.5228 
L 73.764293 55.631467 
L 74.154998 52.7792 
L 74.669585 51.798733 
L 75.21276 51.263933 
L 76.527816 51.085667 
L 76.584992 50.996533 
L 76.861344 50.9074 
L 83.970268 50.729133 
L 103.924806 50.64 
L 103.924806 50.64 
" clip-path="url(#ped3d59f5a1)" style="fill: none; stroke-dasharray: 8.96,2.24,1.4,2.24; stroke-dashoffset: 0; stroke: #2ca02c; stroke-opacity: 0.85; stroke-width: 1.4"/>
   </g>
   <g id="patch_3">
    <path d="M 47.72 318.04 
L 47.72 50.64 
" style="fill: none; stroke: #000000; stroke-width: 0.8; stroke-linejoin: miter; stroke-linecap: square"/>
   </g>
   <g id="patch_4">
    <path d="M 509.1625 318.04 
L 509.1625 50.64 
" style="fill: none; stroke: #000000; stroke-width: 0.8; stroke-linejoin: miter; stroke-linecap: square"/>
   </g>
   <g id="patch_5">
    <path d="M 47.72 318.04 
L 509.1625 318.04 
" style="fill: none; stroke: #000000; stroke-width: 0.8; stroke-linejoin: miter; stroke-linecap: square"/>
   </g>
   <g id="patch_6">
    <path d="M 47.72 50.64 
L 509.1625 50.64 
" style="fill: none; stroke: #000000; stroke-width: 0.8; stroke-linejoin: miter; stroke-linecap: square"/>
   </g>
   <g id="text_17">
    <!-- Orin AGX: per-ω FFmpeg co-runner -->
    <g transform="translate(173.265 44.64) scale(0.12 -0.12)">
     <defs>
      <path id="DejaVuSans-4f" d="M 2522 4238 
Q 1834 4238 1429 3725 
Q 1025 3213 1025 2328 
Q 1025 1447 1429 934 
Q 1834 422 2522 422 
Q 3209 422 3611 934 
Q 4013 1447 4013 2328 
Q 4013 3213 3611 3725 
Q 3209 4238 2522 4238 
z
M 2522 4750 
Q 3503 4750 4090 4092 
Q 4678 3434 4678 2328 
Q 4678 1225 4090 567 
Q 3503 -91 2522 -91 
Q 1538 -91 948 565 
Q 359 1222 359 2328 
Q 359 3434 948 4092 
Q 1538 4750 2522 4750 
z
" transform="scale(0.015625)"/>
      <path id="DejaVuSans-72" d="M 2631 2963 
Q 2534 3019 2420 3045 
Q 2306 3072 2169 3072 
Q 1681 3072 1420 2755 
Q 1159 2438 1159 1844 
L 1159 0 
L 581 0 
L 581 3500 
L 1159 3500 
L 1159 2956 
Q 1341 3275 1631 3429 
Q 1922 3584 2338 3584 
Q 2397 3584 2469 3576 
Q 2541 3569 2628 3553 
L 2631 2963 
z
" transform="scale(0.015625)"/>
      <path id="DejaVuSans-69" d="M 603 3500 
L 1178 3500 
L 1178 0 
L 603 0 
L 603 3500 
z
M 603 4863 
L 1178 4863 
L 1178 4134 
L 603 4134 
L 603 4863 
z
" transform="scale(0.015625)"/>
      <path id="DejaVuSans-41" d="M 2188 4044 
L 1331 1722 
L 3047 1722 
L 2188 4044 
z
M 1831 4666 
L 2547 4666 
L 4325 0 
L 3669 0 
L 3244 1197 
L 1141 1197 
L 716 0 
L 50 0 
L 1831 4666 
z
" transform="scale(0.015625)"/>
      <path id="DejaVuSans-47" d="M 3809 666 
L 3809 1919 
L 2778 1919 
L 2778 2438 
L 4434 2438 
L 4434 434 
Q 4069 175 3628 42 
Q 3188 -91 2688 -91 
Q 1594 -91 976 548 
Q 359 1188 359 2328 
Q 359 3472 976 4111 
Q 1594 4750 2688 4750 
Q 3144 4750 3555 4637 
Q 3966 4525 4313 4306 
L 4313 3634 
Q 3963 3931 3569 4081 
Q 3175 4231 2741 4231 
Q 1884 4231 1454 3753 
Q 1025 3275 1025 2328 
Q 1025 1384 1454 906 
Q 1884 428 2741 428 
Q 3075 428 3337 486 
Q 3600 544 3809 666 
z
" transform="scale(0.015625)"/>
      <path id="DejaVuSans-58" d="M 403 4666 
L 1081 4666 
L 2241 2931 
L 3406 4666 
L 4084 4666 
L 2584 2425 
L 4184 0 
L 3506 0 
L 2194 1984 
L 872 0 
L 191 0 
L 1856 2491 
L 403 4666 
z
" transform="scale(0.015625)"/>
      <path id="DejaVuSans-3a" d="M 750 794 
L 1409 794 
L 1409 0 
L 750 0 
L 750 794 
z
M 750 3309 
L 1409 3309 
L 1409 2516 
L 750 2516 
L 750 3309 
z
" transform="scale(0.015625)"/>
      <path id="DejaVuSans-70" d="M 1159 525 
L 1159 -1331 
L 581 -1331 
L 581 3500 
L 1159 3500 
L 1159 2969 
Q 1341 3281 1617 3432 
Q 1894 3584 2278 3584 
Q 2916 3584 3314 3078 
Q 3713 2572 3713 1747 
Q 3713 922 3314 415 
Q 2916 -91 2278 -91 
Q 1894 -91 1617 61 
Q 1341 213 1159 525 
z
M 3116 1747 
Q 3116 2381 2855 2742 
Q 2594 3103 2138 3103 
Q 1681 3103 1420 2742 
Q 1159 2381 1159 1747 
Q 1159 1113 1420 752 
Q 1681 391 2138 391 
Q 2594 391 2855 752 
Q 3116 1113 3116 1747 
z
" transform="scale(0.015625)"/>
      <path id="DejaVuSans-2d" d="M 313 2009 
L 1997 2009 
L 1997 1497 
L 313 1497 
L 313 2009 
z
" transform="scale(0.015625)"/>
      <path id="DejaVuSans-3c9" d="M 1719 -91 
Q 422 -91 422 1766 
Q 422 2500 906 3500 
L 1525 3500 
Q 1078 2500 1078 1750 
Q 1078 397 1772 397 
Q 2406 397 2406 2078 
L 2938 2078 
Q 2938 397 3572 397 
Q 4266 397 4266 1750 
Q 4266 2500 3819 3500 
L 4438 3500 
Q 4922 2500 4922 1766 
Q 4922 -91 3625 -91 
Q 2775 -91 2672 844 
Q 2544 -91 1719 -91 
z
" transform="scale(0.015625)"/>
      <path id="DejaVuSans-67" d="M 2906 1791 
Q 2906 2416 2648 2759 
Q 2391 3103 1925 3103 
Q 1463 3103 1205 2759 
Q 947 2416 947 1791 
Q 947 1169 1205 825 
Q 1463 481 1925 481 
Q 2391 481 2648 825 
Q 2906 1169 2906 1791 
z
M 3481 434 
Q 3481 -459 3084 -895 
Q 2688 -1331 1869 -1331 
Q 1566 -1331 1297 -1286 
Q 1028 -1241 775 -1147 
L 775 -588 
Q 1028 -725 1275 -790 
Q 1522 -856 1778 -856 
Q 2344 -856 2625 -561 
Q 2906 -266 2906 331 
L 2906 616 
Q 2728 306 2450 153 
Q 2172 0 1784 0 
Q 1141 0 747 490 
Q 353 981 353 1791 
Q 353 2603 747 3093 
Q 1141 3584 1784 3584 
Q 2172 3584 2450 3431 
Q 2728 3278 2906 2969 
L 2906 3500 
L 3481 3500 
L 3481 434 
z
" transform="scale(0.015625)"/>
      <path id="DejaVuSans-6f" d="M 1959 3097 
Q 1497 3097 1228 2736 
Q 959 2375 959 1747 
Q 959 1119 1226 758 
Q 1494 397 1959 397 
Q 2419 397 2687 759 
Q 2956 1122 2956 1747 
Q 2956 2369 2687 2733 
Q 2419 3097 1959 3097 
z
M 1959 3584 
Q 2709 3584 3137 3096 
Q 3566 2609 3566 1747 
Q 3566 888 3137 398 
Q 2709 -91 1959 -91 
Q 1206 -91 779 398 
Q 353 888 353 1747 
Q 353 2609 779 3096 
Q 1206 3584 1959 3584 
z
" transform="scale(0.015625)"/>
      <path id="DejaVuSans-75" d="M 544 1381 
L 544 3500 
L 1119 3500 
L 1119 1403 
Q 1119 906 1312 657 
Q 1506 409 1894 409 
Q 2359 409 2629 706 
Q 2900 1003 2900 1516 
L 2900 3500 
L 3475 3500 
L 3475 0 
L 2900 0 
L 2900 538 
Q 2691 219 2414 64 
Q 2138 -91 1772 -91 
Q 1169 -91 856 284 
Q 544 659 544 1381 
z
M 1991 3584 
L 1991 3584 
z
" transform="scale(0.015625)"/>
     </defs>
     <use xlink:href="#DejaVuSans-4f"/>
     <use xlink:href="#DejaVuSans-72" transform="translate(78.710938 0)"/>
     <use xlink:href="#DejaVuSans-69" transform="translate(119.824219 0)"/>
     <use xlink:href="#DejaVuSans-6e" transform="translate(147.607422 0)"/>
     <use xlink:href="#DejaVuSans-20" transform="translate(210.986328 0)"/>
     <use xlink:href="#DejaVuSans-41" transform="translate(242.773438 0)"/>
     <use xlink:href="#DejaVuSans-47" transform="translate(309.431641 0)"/>
     <use xlink:href="#DejaVuSans-58" transform="translate(386.921875 0)"/>
     <use xlink:href="#DejaVuSans-3a" transform="translate(455.427734 0)"/>
     <use xlink:href="#DejaVuSans-20" transform="translate(489.119141 0)"/>
     <use xlink:href="#DejaVuSans-70" transform="translate(520.90625 0)"/>
     <use xlink:href="#DejaVuSans-65" transform="translate(584.382812 0)"/>
     <use xlink:href="#DejaVuSans-72" transform="translate(645.90625 0)"/>
     <use xlink:href="#DejaVuSans-2d" transform="translate(680.644531 0)"/>
     <use xlink:href="#DejaVuSans-3c9" transform="translate(716.728516 0)"/>
     <use xlink:href="#DejaVuSans-20" transform="translate(800.46875 0)"/>
     <use xlink:href="#DejaVuSans-46" transform="translate(832.255859 0)"/>
     <use xlink:href="#DejaVuSans-46" transform="translate(889.775391 0)"/>
     <use xlink:href="#DejaVuSans-6d" transform="translate(947.294922 0)"/>
     <use xlink:href="#DejaVuSans-70" transform="translate(1044.707031 0)"/>
     <use xlink:href="#DejaVuSans-65" transform="translate(1108.183594 0)"/>
     <use xlink:href="#DejaVuSans-67" transform="translate(1169.707031 0)"/>
     <use xlink:href="#DejaVuSans-20" transform="translate(1233.183594 0)"/>
     <use xlink:href="#DejaVuSans-63" transform="translate(1264.970703 0)"/>
     <use xlink:href="#DejaVuSans-6f" transform="translate(1319.951172 0)"/>
     <use xlink:href="#DejaVuSans-2d" transform="translate(1383.007812 0)"/>
     <use xlink:href="#DejaVuSans-72" transform="translate(1419.091797 0)"/>
     <use xlink:href="#DejaVuSans-75" transform="translate(1460.205078 0)"/>
     <use xlink:href="#DejaVuSans-6e" transform="translate(1523.583984 0)"/>
     <use xlink:href="#DejaVuSans-6e" transform="translate(1586.962891 0)"/>
     <use xlink:href="#DejaVuSans-65" transform="translate(1650.341797 0)"/>
     <use xlink:href="#DejaVuSans-72" transform="translate(1711.865234 0)"/>
    </g>
   </g>
   <g id="legend_1">
    <g id="patch_7">
     <path d="M 362.999594 314.57 
L 504.3045 314.57 
Q 505.6925 314.57 505.6925 313.182 
L 505.6925 188.956 
Q 505.6925 187.568 504.3045 187.568 
L 362.999594 187.568 
Q 361.611594 187.568 361.611594 188.956 
L 361.611594 313.182 
Q 361.611594 314.57 362.999594 314.57 
z
" style="fill: #ffffff; opacity: 0.8; stroke: #cccccc; stroke-linejoin: miter"/>
    </g>
    <g id="line2d_41">
     <path d="M 364.387594 193.218678 
L 371.327594 193.218678 
L 378.267594 193.218678 
" style="fill: none; stroke: #1f77b4; stroke-opacity: 0.85; stroke-width: 1.4; stroke-linecap: square"/>
    </g>
    <g id="text_18">
     <!-- energy_corner | none (n=3000) -->
     <g transform="translate(383.819594 195.647678) scale(0.0694 -0.0694)">
      <defs>
       <path id="DejaVuSans-5f" d="M 3263 -1063 
L 3263 -1509 
L -63 -1509 
L -63 -1063 
L 3263 -1063 
z
" transform="scale(0.015625)"/>
       <path id="DejaVuSans-7c" d="M 1344 4891 
L 1344 -1509 
L 813 -1509 
L 813 4891 
L 1344 4891 
z
" transform="scale(0.015625)"/>
       <path id="DejaVuSans-3d" d="M 678 2906 
L 4684 2906 
L 4684 2381 
L 678 2381 
L 678 2906 
z
M 678 1631 
L 4684 1631 
L 4684 1100 
L 678 1100 
L 678 1631 
z
" transform="scale(0.015625)"/>
       <path id="DejaVuSans-33" d="M 2597 2516 
Q 3050 2419 3304 2112 
Q 3559 1806 3559 1356 
Q 3559 666 3084 287 
Q 2609 -91 1734 -91 
Q 1441 -91 1130 -33 
Q 819 25 488 141 
L 488 750 
Q 750 597 1062 519 
Q 1375 441 1716 441 
Q 2309 441 2620 675 
Q 2931 909 2931 1356 
Q 2931 1769 2642 2001 
Q 2353 2234 1838 2234 
L 1294 2234 
L 1294 2753 
L 1863 2753 
Q 2328 2753 2575 2939 
Q 2822 3125 2822 3475 
Q 2822 3834 2567 4026 
Q 2313 4219 1838 4219 
Q 1578 4219 1281 4162 
Q 984 4106 628 3988 
L 628 4550 
Q 988 4650 1302 4700 
Q 1616 4750 1894 4750 
Q 2613 4750 3031 4423 
Q 3450 4097 3450 3541 
Q 3450 3153 3228 2886 
Q 3006 2619 2597 2516 
z
" transform="scale(0.015625)"/>
      </defs>
      <use xlink:href="#DejaVuSans-65"/>
      <use xlink:href="#DejaVuSans-6e" transform="translate(61.523438 0)"/>
      <use xlink:href="#DejaVuSans-65" transform="translate(124.902344 0)"/>
      <use xlink:href="#DejaVuSans-72" transform="translate(186.425781 0)"/>
      <use xlink:href="#DejaVuSans-67" transform="translate(225.789062 0)"/>
      <use xlink:href="#DejaVuSans-79" transform="translate(289.265625 0)"/>
      <use xlink:href="#DejaVuSans-5f" transform="translate(348.445312 0)"/>
      <use xlink:href="#DejaVuSans-63" transform="translate(398.445312 0)"/>
      <use xlink:href="#DejaVuSans-6f" transform="translate(453.425781 0)"/>
      <use xlink:href="#DejaVuSans-72" transform="translate(514.607422 0)"/>
      <use xlink:href="#DejaVuSans-6e" transform="translate(553.970703 0)"/>
      <use xlink:href="#DejaVuSans-65" transform="translate(617.349609 0)"/>
      <use xlink:href="#DejaVuSans-72" transform="translate(678.873047 0)"/>
      <use xlink:href="#DejaVuSans-20" transform="translate(719.986328 0)"/>
      <use xlink:href="#DejaVuSans-7c" transform="translate(751.773438 0)"/>
      <use xlink:href="#DejaVuSans-20" transform="translate(785.464844 0)"/>
      <use xlink:href="#DejaVuSans-6e" transform="translate(817.251953 0)"/>
      <use xlink:href="#DejaVuSans-6f" transform="translate(880.630859 0)"/>
      <use xlink:href="#DejaVuSans-6e" transform="translate(941.8125 0)"/>
      <use xlink:href="#DejaVuSans-65" transform="translate(1005.191406 0)"/>
      <use xlink:href="#DejaVuSans-20" transform="translate(1066.714844 0)"/>
      <use xlink:href="#DejaVuSans-28" transform="translate(1098.501953 0)"/>
      <use xlink:href="#DejaVuSans-6e" transform="translate(1137.515625 0)"/>
      <use xlink:href="#DejaVuSans-3d" transform="translate(1200.894531 0)"/>
      <use xlink:href="#DejaVuSans-33" transform="translate(1284.683594 0)"/>
      <use xlink:href="#DejaVuSans-30" transform="translate(1348.306641 0)"/>
      <use xlink:href="#DejaVuSans-30" transform="translate(1411.929688 0)"/>
      <use xlink:href="#DejaVuSans-30" transform="translate(1475.552734 0)"/>
      <use xlink:href="#DejaVuSans-29" transform="translate(1539.175781 0)"/>
     </g>
    </g>
    <g id="line2d_42">
     <path d="M 364.387594 203.628678 
L 371.327594 203.628678 
L 378.267594 203.628678 
" style="fill: none; stroke-dasharray: 5.18,2.24; stroke-dashoffset: 0; stroke: #1f77b4; stroke-opacity: 0.85; stroke-width: 1.4"/>
    </g>
    <g id="text_19">
     <!-- energy_corner | 720p (n=3000) -->
     <g transform="translate(383.819594 206.057678) scale(0.0694 -0.0694)">
      <defs>
       <path id="DejaVuSans-37" d="M 525 4666 
L 3525 4666 
L 3525 4397 
L 1831 0 
L 1172 0 
L 2766 4134 
L 525 4134 
L 525 4666 
z
" transform="scale(0.015625)"/>
      </defs>
      <use xlink:href="#DejaVuSans-65"/>
      <use xlink:href="#DejaVuSans-6e" transform="translate(61.523438 0)"/>
      <use xlink:href="#DejaVuSans-65" transform="translate(124.902344 0)"/>
      <use xlink:href="#DejaVuSans-72" transform="translate(186.425781 0)"/>
      <use xlink:href="#DejaVuSans-67" transform="translate(225.789062 0)"/>
      <use xlink:href="#DejaVuSans-79" transform="translate(289.265625 0)"/>
      <use xlink:href="#DejaVuSans-5f" transform="translate(348.445312 0)"/>
      <use xlink:href="#DejaVuSans-63" transform="translate(398.445312 0)"/>
      <use xlink:href="#DejaVuSans-6f" transform="translate(453.425781 0)"/>
      <use xlink:href="#DejaVuSans-72" transform="translate(514.607422 0)"/>
      <use xlink:href="#DejaVuSans-6e" transform="translate(553.970703 0)"/>
      <use xlink:href="#DejaVuSans-65" transform="translate(617.349609 0)"/>
      <use xlink:href="#DejaVuSans-72" transform="translate(678.873047 0)"/>
      <use xlink:href="#DejaVuSans-20" transform="translate(719.986328 0)"/>
      <use xlink:href="#DejaVuSans-7c" transform="translate(751.773438 0)"/>
      <use xlink:href="#DejaVuSans-20" transform="translate(785.464844 0)"/>
      <use xlink:href="#DejaVuSans-37" transform="translate(817.251953 0)"/>
      <use xlink:href="#DejaVuSans-32" transform="translate(880.875 0)"/>
      <use xlink:href="#DejaVuSans-30" transform="translate(944.498047 0)"/>
      <use xlink:href="#DejaVuSans-70" transform="translate(1008.121094 0)"/>
      <use xlink:href="#DejaVuSans-20" transform="translate(1071.597656 0)"/>
      <use xlink:href="#DejaVuSans-28" transform="translate(1103.384766 0)"/>
      <use xlink:href="#DejaVuSans-6e" transform="translate(1142.398438 0)"/>
      <use xlink:href="#DejaVuSans-3d" transform="translate(1205.777344 0)"/>
      <use xlink:href="#DejaVuSans-33" transform="translate(1289.566406 0)"/>
      <use xlink:href="#DejaVuSans-30" transform="translate(1353.189453 0)"/>
      <use xlink:href="#DejaVuSans-30" transform="translate(1416.8125 0)"/>
      <use xlink:href="#DejaVuSans-30" transform="translate(1480.435547 0)"/>
      <use xlink:href="#DejaVuSans-29" transform="translate(1544.058594 0)"/>
     </g>
    </g>
    <g id="line2d_43">
     <path d="M 364.387594 214.038678 
L 371.327594 214.038678 
L 378.267594 214.038678 
" style="fill: none; stroke-dasharray: 1.4,2.31; stroke-dashoffset: 0; stroke: #1f77b4; stroke-opacity: 0.85; stroke-width: 1.4"/>
    </g>
    <g id="text_20">
     <!-- energy_corner | 1080p (n=3000) -->
     <g transform="translate(383.819594 216.467678) scale(0.0694 -0.0694)">
      <use xlink:href="#DejaVuSans-65"/>
      <use xlink:href="#DejaVuSans-6e" transform="translate(61.523438 0)"/>
      <use xlink:href="#DejaVuSans-65" transform="translate(124.902344 0)"/>
      <use xlink:href="#DejaVuSans-72" transform="translate(186.425781 0)"/>
      <use xlink:href="#DejaVuSans-67" transform="translate(225.789062 0)"/>
      <use xlink:href="#DejaVuSans-79" transform="translate(289.265625 0)"/>
      <use xlink:href="#DejaVuSans-5f" transform="translate(348.445312 0)"/>
      <use xlink:href="#DejaVuSans-63" transform="translate(398.445312 0)"/>
      <use xlink:href="#DejaVuSans-6f" transform="translate(453.425781 0)"/>
      <use xlink:href="#DejaVuSans-72" transform="translate(514.607422 0)"/>
      <use xlink:href="#DejaVuSans-6e" transform="translate(553.970703 0)"/>
      <use xlink:href="#DejaVuSans-65" transform="translate(617.349609 0)"/>
      <use xlink:href="#DejaVuSans-72" transform="translate(678.873047 0)"/>
      <use xlink:href="#DejaVuSans-20" transform="translate(719.986328 0)"/>
      <use xlink:href="#DejaVuSans-7c" transform="translate(751.773438 0)"/>
      <use xlink:href="#DejaVuSans-20" transform="translate(785.464844 0)"/>
      <use xlink:href="#DejaVuSans-31" transform="translate(817.251953 0)"/>
      <use xlink:href="#DejaVuSans-30" transform="translate(880.875 0)"/>
      <use xlink:href="#DejaVuSans-38" transform="translate(944.498047 0)"/>
      <use xlink:href="#DejaVuSans-30" transform="translate(1008.121094 0)"/>
      <use xlink:href="#DejaVuSans-70" transform="translate(1071.744141 0)"/>
      <use xlink:href="#DejaVuSans-20" transform="translate(1135.220703 0)"/>
      <use xlink:href="#DejaVuSans-28" transform="translate(1167.007812 0)"/>
      <use xlink:href="#DejaVuSans-6e" transform="translate(1206.021484 0)"/>
      <use xlink:href="#DejaVuSans-3d" transform="translate(1269.400391 0)"/>
      <use xlink:href="#DejaVuSans-33" transform="translate(1353.189453 0)"/>
      <use xlink:href="#DejaVuSans-30" transform="translate(1416.8125 0)"/>
      <use xlink:href="#DejaVuSans-30" transform="translate(1480.435547 0)"/>
      <use xlink:href="#DejaVuSans-30" transform="translate(1544.058594 0)"/>
      <use xlink:href="#DejaVuSans-29" transform="translate(1607.681641 0)"/>
     </g>
    </g>
    <g id="line2d_44">
     <path d="M 364.387594 224.448678 
L 371.327594 224.448678 
L 378.267594 224.448678 
" style="fill: none; stroke-dasharray: 8.96,2.24,1.4,2.24; stroke-dashoffset: 0; stroke: #1f77b4; stroke-opacity: 0.85; stroke-width: 1.4"/>
    </g>
    <g id="text_21">
     <!-- energy_corner | 2K (n=3000) -->
     <g transform="translate(383.819594 226.877678) scale(0.0694 -0.0694)">
      <defs>
       <path id="DejaVuSans-4b" d="M 628 4666 
L 1259 4666 
L 1259 2694 
L 3353 4666 
L 4166 4666 
L 1850 2491 
L 4331 0 
L 3500 0 
L 1259 2247 
L 1259 0 
L 628 0 
L 628 4666 
z
" transform="scale(0.015625)"/>
      </defs>
      <use xlink:href="#DejaVuSans-65"/>
      <use xlink:href="#DejaVuSans-6e" transform="translate(61.523438 0)"/>
      <use xlink:href="#DejaVuSans-65" transform="translate(124.902344 0)"/>
      <use xlink:href="#DejaVuSans-72" transform="translate(186.425781 0)"/>
      <use xlink:href="#DejaVuSans-67" transform="translate(225.789062 0)"/>
      <use xlink:href="#DejaVuSans-79" transform="translate(289.265625 0)"/>
      <use xlink:href="#DejaVuSans-5f" transform="translate(348.445312 0)"/>
      <use xlink:href="#DejaVuSans-63" transform="translate(398.445312 0)"/>
      <use xlink:href="#DejaVuSans-6f" transform="translate(453.425781 0)"/>
      <use xlink:href="#DejaVuSans-72" transform="translate(514.607422 0)"/>
      <use xlink:href="#DejaVuSans-6e" transform="translate(553.970703 0)"/>
      <use xlink:href="#DejaVuSans-65" transform="translate(617.349609 0)"/>
      <use xlink:href="#DejaVuSans-72" transform="translate(678.873047 0)"/>
      <use xlink:href="#DejaVuSans-20" transform="translate(719.986328 0)"/>
      <use xlink:href="#DejaVuSans-7c" transform="translate(751.773438 0)"/>
      <use xlink:href="#DejaVuSans-20" transform="translate(785.464844 0)"/>
      <use xlink:href="#DejaVuSans-32" transform="translate(817.251953 0)"/>
      <use xlink:href="#DejaVuSans-4b" transform="translate(880.875 0)"/>
      <use xlink:href="#DejaVuSans-20" transform="translate(946.451172 0)"/>
      <use xlink:href="#DejaVuSans-28" transform="translate(978.238281 0)"/>
      <use xlink:href="#DejaVuSans-6e" transform="translate(1017.251953 0)"/>
      <use xlink:href="#DejaVuSans-3d" transform="translate(1080.630859 0)"/>
      <use xlink:href="#DejaVuSans-33" transform="translate(1164.419922 0)"/>
      <use xlink:href="#DejaVuSans-30" transform="translate(1228.042969 0)"/>
      <use xlink:href="#DejaVuSans-30" transform="translate(1291.666016 0)"/>
      <use xlink:href="#DejaVuSans-30" transform="translate(1355.289062 0)"/>
      <use xlink:href="#DejaVuSans-29" transform="translate(1418.912109 0)"/>
     </g>
    </g>
    <g id="line2d_45">
     <path d="M 364.387594 234.858678 
L 371.327594 234.858678 
L 378.267594 234.858678 
" style="fill: none; stroke: #ff7f0e; stroke-opacity: 0.85; stroke-width: 1.4; stroke-linecap: square"/>
    </g>
    <g id="text_22">
     <!-- memory_corner | none (n=3000) -->
     <g transform="translate(383.819594 237.287678) scale(0.0694 -0.0694)">
      <use xlink:href="#DejaVuSans-6d"/>
      <use xlink:href="#DejaVuSans-65" transform="translate(97.412109 0)"/>
      <use xlink:href="#DejaVuSans-6d" transform="translate(158.935547 0)"/>
      <use xlink:href="#DejaVuSans-6f" transform="translate(256.347656 0)"/>
      <use xlink:href="#DejaVuSans-72" transform="translate(317.529297 0)"/>
      <use xlink:href="#DejaVuSans-79" transform="translate(358.642578 0)"/>
      <use xlink:href="#DejaVuSans-5f" transform="translate(417.822266 0)"/>
      <use xlink:href="#DejaVuSans-63" transform="translate(467.822266 0)"/>
      <use xlink:href="#DejaVuSans-6f" transform="translate(522.802734 0)"/>
      <use xlink:href="#DejaVuSans-72" transform="translate(583.984375 0)"/>
      <use xlink:href="#DejaVuSans-6e" transform="translate(623.347656 0)"/>
      <use xlink:href="#DejaVuSans-65" transform="translate(686.726562 0)"/>
      <use xlink:href="#DejaVuSans-72" transform="translate(748.25 0)"/>
      <use xlink:href="#DejaVuSans-20" transform="translate(789.363281 0)"/>
      <use xlink:href="#DejaVuSans-7c" transform="translate(821.150391 0)"/>
      <use xlink:href="#DejaVuSans-20" transform="translate(854.841797 0)"/>
      <use xlink:href="#DejaVuSans-6e" transform="translate(886.628906 0)"/>
      <use xlink:href="#DejaVuSans-6f" transform="translate(950.007812 0)"/>
      <use xlink:href="#DejaVuSans-6e" transform="translate(1011.189453 0)"/>
      <use xlink:href="#DejaVuSans-65" transform="translate(1074.568359 0)"/>
      <use xlink:href="#DejaVuSans-20" transform="translate(1136.091797 0)"/>
      <use xlink:href="#DejaVuSans-28" transform="translate(1167.878906 0)"/>
      <use xlink:href="#DejaVuSans-6e" transform="translate(1206.892578 0)"/>
      <use xlink:href="#DejaVuSans-3d" transform="translate(1270.271484 0)"/>
      <use xlink:href="#DejaVuSans-33" transform="translate(1354.060547 0)"/>
      <use xlink:href="#DejaVuSans-30" transform="translate(1417.683594 0)"/>
      <use xlink:href="#DejaVuSans-30" transform="translate(1481.306641 0)"/>
      <use xlink:href="#DejaVuSans-30" transform="translate(1544.929688 0)"/>
      <use xlink:href="#DejaVuSans-29" transform="translate(1608.552734 0)"/>
     </g>
    </g>
    <g id="line2d_46">
     <path d="M 364.387594 245.268678 
L 371.327594 245.268678 
L 378.267594 245.268678 
" style="fill: none; stroke-dasharray: 5.18,2.24; stroke-dashoffset: 0; stroke: #ff7f0e; stroke-opacity: 0.85; stroke-width: 1.4"/>
    </g>
    <g id="text_23">
     <!-- memory_corner | 720p (n=3000) -->
     <g transform="translate(383.819594 247.697678) scale(0.0694 -0.0694)">
      <use xlink:href="#DejaVuSans-6d"/>
      <use xlink:href="#DejaVuSans-65" transform="translate(97.412109 0)"/>
      <use xlink:href="#DejaVuSans-6d" transform="translate(158.935547 0)"/>
      <use xlink:href="#DejaVuSans-6f" transform="translate(256.347656 0)"/>
      <use xlink:href="#DejaVuSans-72" transform="translate(317.529297 0)"/>
      <use xlink:href="#DejaVuSans-79" transform="translate(358.642578 0)"/>
      <use xlink:href="#DejaVuSans-5f" transform="translate(417.822266 0)"/>
      <use xlink:href="#DejaVuSans-63" transform="translate(467.822266 0)"/>
      <use xlink:href="#DejaVuSans-6f" transform="translate(522.802734 0)"/>
      <use xlink:href="#DejaVuSans-72" transform="translate(583.984375 0)"/>
      <use xlink:href="#DejaVuSans-6e" transform="translate(623.347656 0)"/>
      <use xlink:href="#DejaVuSans-65" transform="translate(686.726562 0)"/>
      <use xlink:href="#DejaVuSans-72" transform="translate(748.25 0)"/>
      <use xlink:href="#DejaVuSans-20" transform="translate(789.363281 0)"/>
      <use xlink:href="#DejaVuSans-7c" transform="translate(821.150391 0)"/>
      <use xlink:href="#DejaVuSans-20" transform="translate(854.841797 0)"/>
      <use xlink:href="#DejaVuSans-37" transform="translate(886.628906 0)"/>
      <use xlink:href="#DejaVuSans-32" transform="translate(950.251953 0)"/>
      <use xlink:href="#DejaVuSans-30" transform="translate(1013.875 0)"/>
      <use xlink:href="#DejaVuSans-70" transform="translate(1077.498047 0)"/>
      <use xlink:href="#DejaVuSans-20" transform="translate(1140.974609 0)"/>
      <use xlink:href="#DejaVuSans-28" transform="translate(1172.761719 0)"/>
      <use xlink:href="#DejaVuSans-6e" transform="translate(1211.775391 0)"/>
      <use xlink:href="#DejaVuSans-3d" transform="translate(1275.154297 0)"/>
      <use xlink:href="#DejaVuSans-33" transform="translate(1358.943359 0)"/>
      <use xlink:href="#DejaVuSans-30" transform="translate(1422.566406 0)"/>
      <use xlink:href="#DejaVuSans-30" transform="translate(1486.189453 0)"/>
      <use xlink:href="#DejaVuSans-30" transform="translate(1549.8125 0)"/>
      <use xlink:href="#DejaVuSans-29" transform="translate(1613.435547 0)"/>
     </g>
    </g>
    <g id="line2d_47">
     <path d="M 364.387594 255.678678 
L 371.327594 255.678678 
L 378.267594 255.678678 
" style="fill: none; stroke-dasharray: 1.4,2.31; stroke-dashoffset: 0; stroke: #ff7f0e; stroke-opacity: 0.85; stroke-width: 1.4"/>
    </g>
    <g id="text_24">
     <!-- memory_corner | 1080p (n=3000) -->
     <g transform="translate(383.819594 258.107678) scale(0.0694 -0.0694)">
      <use xlink:href="#DejaVuSans-6d"/>
      <use xlink:href="#DejaVuSans-65" transform="translate(97.412109 0)"/>
      <use xlink:href="#DejaVuSans-6d" transform="translate(158.935547 0)"/>
      <use xlink:href="#DejaVuSans-6f" transform="translate(256.347656 0)"/>
      <use xlink:href="#DejaVuSans-72" transform="translate(317.529297 0)"/>
      <use xlink:href="#DejaVuSans-79" transform="translate(358.642578 0)"/>
      <use xlink:href="#DejaVuSans-5f" transform="translate(417.822266 0)"/>
      <use xlink:href="#DejaVuSans-63" transform="translate(467.822266 0)"/>
      <use xlink:href="#DejaVuSans-6f" transform="translate(522.802734 0)"/>
      <use xlink:href="#DejaVuSans-72" transform="translate(583.984375 0)"/>
      <use xlink:href="#DejaVuSans-6e" transform="translate(623.347656 0)"/>
      <use xlink:href="#DejaVuSans-65" transform="translate(686.726562 0)"/>
      <use xlink:href="#DejaVuSans-72" transform="translate(748.25 0)"/>
      <use xlink:href="#DejaVuSans-20" transform="translate(789.363281 0)"/>
      <use xlink:href="#DejaVuSans-7c" transform="translate(821.150391 0)"/>
      <use xlink:href="#DejaVuSans-20" transform="translate(854.841797 0)"/>
      <use xlink:href="#DejaVuSans-31" transform="translate(886.628906 0)"/>
      <use xlink:href="#DejaVuSans-30" transform="translate(950.251953 0)"/>
      <use xlink:href="#DejaVuSans-38" transform="translate(1013.875 0)"/>
      <use xlink:href="#DejaVuSans-30" transform="translate(1077.498047 0)"/>
      <use xlink:href="#DejaVuSans-70" transform="translate(1141.121094 0)"/>
      <use xlink:href="#DejaVuSans-20" transform="translate(1204.597656 0)"/>
      <use xlink:href="#DejaVuSans-28" transform="translate(1236.384766 0)"/>
      <use xlink:href="#DejaVuSans-6e" transform="translate(1275.398438 0)"/>
      <use xlink:href="#DejaVuSans-3d" transform="translate(1338.777344 0)"/>
      <use xlink:href="#DejaVuSans-33" transform="translate(1422.566406 0)"/>
      <use xlink:href="#DejaVuSans-30" transform="translate(1486.189453 0)"/>
      <use xlink:href="#DejaVuSans-30" transform="translate(1549.8125 0)"/>
      <use xlink:href="#DejaVuSans-30" transform="translate(1613.435547 0)"/>
      <use xlink:href="#DejaVuSans-29" transform="translate(1677.058594 0)"/>
     </g>
    </g>
    <g id="line2d_48">
     <path d="M 364.387594 266.088678 
L 371.327594 266.088678 
L 378.267594 266.088678 
" style="fill: none; stroke-dasharray: 8.96,2.24,1.4,2.24; stroke-dashoffset: 0; stroke: #ff7f0e; stroke-opacity: 0.85; stroke-width: 1.4"/>
    </g>
    <g id="text_25">
     <!-- memory_corner | 2K (n=3000) -->
     <g transform="translate(383.819594 268.517678) scale(0.0694 -0.0694)">
      <use xlink:href="#DejaVuSans-6d"/>
      <use xlink:href="#DejaVuSans-65" transform="translate(97.412109 0)"/>
      <use xlink:href="#DejaVuSans-6d" transform="translate(158.935547 0)"/>
      <use xlink:href="#DejaVuSans-6f" transform="translate(256.347656 0)"/>
      <use xlink:href="#DejaVuSans-72" transform="translate(317.529297 0)"/>
      <use xlink:href="#DejaVuSans-79" transform="translate(358.642578 0)"/>
      <use xlink:href="#DejaVuSans-5f" transform="translate(417.822266 0)"/>
      <use xlink:href="#DejaVuSans-63" transform="translate(467.822266 0)"/>
      <use xlink:href="#DejaVuSans-6f" transform="translate(522.802734 0)"/>
      <use xlink:href="#DejaVuSans-72" transform="translate(583.984375 0)"/>
      <use xlink:href="#DejaVuSans-6e" transform="translate(623.347656 0)"/>
      <use xlink:href="#DejaVuSans-65" transform="translate(686.726562 0)"/>
      <use xlink:href="#DejaVuSans-72" transform="translate(748.25 0)"/>
      <use xlink:href="#DejaVuSans-20" transform="translate(789.363281 0)"/>
      <use xlink:href="#DejaVuSans-7c" transform="translate(821.150391 0)"/>
      <use xlink:href="#DejaVuSans-20" transform="translate(854.841797 0)"/>
      <use xlink:href="#DejaVuSans-32" transform="translate(886.628906 0)"/>
      <use xlink:href="#DejaVuSans-4b" transform="translate(950.251953 0)"/>
      <use xlink:href="#DejaVuSans-20" transform="translate(1015.828125 0)"/>
      <use xlink:href="#DejaVuSans-28" transform="translate(1047.615234 0)"/>
      <use xlink:href="#DejaVuSans-6e" transform="translate(1086.628906 0)"/>
      <use xlink:href="#DejaVuSans-3d" transform="translate(1150.007812 0)"/>
      <use xlink:href="#DejaVuSans-33" transform="translate(1233.796875 0)"/>
      <use xlink:href="#DejaVuSans-30" transform="translate(1297.419922 0)"/>
      <use xlink:href="#DejaVuSans-30" transform="translate(1361.042969 0)"/>
      <use xlink:href="#DejaVuSans-30" transform="translate(1424.666016 0)"/>
      <use xlink:href="#DejaVuSans-29" transform="translate(1488.289062 0)"/>
     </g>
    </g>
    <g id="line2d_49">
     <path d="M 364.387594 276.498678 
L 371.327594 276.498678 
L 378.267594 276.498678 
" style="fill: none; stroke: #2ca02c; stroke-opacity: 0.85; stroke-width: 1.4; stroke-linecap: square"/>
    </g>
    <g id="text_26">
     <!-- center | none (n=3000) -->
     <g transform="translate(383.819594 278.927678) scale(0.0694 -0.0694)">
      <use xlink:href="#DejaVuSans-63"/>
      <use xlink:href="#DejaVuSans-65" transform="translate(54.980469 0)"/>
      <use xlink:href="#DejaVuSans-6e" transform="translate(116.503906 0)"/>
      <use xlink:href="#DejaVuSans-74" transform="translate(179.882812 0)"/>
      <use xlink:href="#DejaVuSans-65" transform="translate(219.091797 0)"/>
      <use xlink:href="#DejaVuSans-72" transform="translate(280.615234 0)"/>
      <use xlink:href="#DejaVuSans-20" transform="translate(321.728516 0)"/>
      <use xlink:href="#DejaVuSans-7c" transform="translate(353.515625 0)"/>
      <use xlink:href="#DejaVuSans-20" transform="translate(387.207031 0)"/>
      <use xlink:href="#DejaVuSans-6e" transform="translate(418.994141 0)"/>
      <use xlink:href="#DejaVuSans-6f" transform="translate(482.373047 0)"/>
      <use xlink:href="#DejaVuSans-6e" transform="translate(543.554688 0)"/>
      <use xlink:href="#DejaVuSans-65" transform="translate(606.933594 0)"/>
      <use xlink:href="#DejaVuSans-20" transform="translate(668.457031 0)"/>
      <use xlink:href="#DejaVuSans-28" transform="translate(700.244141 0)"/>
      <use xlink:href="#DejaVuSans-6e" transform="translate(739.257812 0)"/>
      <use xlink:href="#DejaVuSans-3d" transform="translate(802.636719 0)"/>
      <use xlink:href="#DejaVuSans-33" transform="translate(886.425781 0)"/>
      <use xlink:href="#DejaVuSans-30" transform="translate(950.048828 0)"/>
      <use xlink:href="#DejaVuSans-30" transform="translate(1013.671875 0)"/>
      <use xlink:href="#DejaVuSans-30" transform="translate(1077.294922 0)"/>
      <use xlink:href="#DejaVuSans-29" transform="translate(1140.917969 0)"/>
     </g>
    </g>
    <g id="line2d_50">
     <path d="M 364.387594 286.908678 
L 371.327594 286.908678 
L 378.267594 286.908678 
" style="fill: none; stroke-dasharray: 5.18,2.24; stroke-dashoffset: 0; stroke: #2ca02c; stroke-opacity: 0.85; stroke-width: 1.4"/>
    </g>
    <g id="text_27">
     <!-- center | 720p (n=3000) -->
     <g transform="translate(383.819594 289.337678) scale(0.0694 -0.0694)">
      <use xlink:href="#DejaVuSans-63"/>
      <use xlink:href="#DejaVuSans-65" transform="translate(54.980469 0)"/>
      <use xlink:href="#DejaVuSans-6e" transform="translate(116.503906 0)"/>
      <use xlink:href="#DejaVuSans-74" transform="translate(179.882812 0)"/>
      <use xlink:href="#DejaVuSans-65" transform="translate(219.091797 0)"/>
      <use xlink:href="#DejaVuSans-72" transform="translate(280.615234 0)"/>
      <use xlink:href="#DejaVuSans-20" transform="translate(321.728516 0)"/>
      <use xlink:href="#DejaVuSans-7c" transform="translate(353.515625 0)"/>
      <use xlink:href="#DejaVuSans-20" transform="translate(387.207031 0)"/>
      <use xlink:href="#DejaVuSans-37" transform="translate(418.994141 0)"/>
      <use xlink:href="#DejaVuSans-32" transform="translate(482.617188 0)"/>
      <use xlink:href="#DejaVuSans-30" transform="translate(546.240234 0)"/>
      <use xlink:href="#DejaVuSans-70" transform="translate(609.863281 0)"/>
      <use xlink:href="#DejaVuSans-20" transform="translate(673.339844 0)"/>
      <use xlink:href="#DejaVuSans-28" transform="translate(705.126953 0)"/>
      <use xlink:href="#DejaVuSans-6e" transform="translate(744.140625 0)"/>
      <use xlink:href="#DejaVuSans-3d" transform="translate(807.519531 0)"/>
      <use xlink:href="#DejaVuSans-33" transform="translate(891.308594 0)"/>
      <use xlink:href="#DejaVuSans-30" transform="translate(954.931641 0)"/>
      <use xlink:href="#DejaVuSans-30" transform="translate(1018.554688 0)"/>
      <use xlink:href="#DejaVuSans-30" transform="translate(1082.177734 0)"/>
      <use xlink:href="#DejaVuSans-29" transform="translate(1145.800781 0)"/>
     </g>
    </g>
    <g id="line2d_51">
     <path d="M 364.387594 297.318678 
L 371.327594 297.318678 
L 378.267594 297.318678 
" style="fill: none; stroke-dasharray: 1.4,2.31; stroke-dashoffset: 0; stroke: #2ca02c; stroke-opacity: 0.85; stroke-width: 1.4"/>
    </g>
    <g id="text_28">
     <!-- center | 1080p (n=3000) -->
     <g transform="translate(383.819594 299.747678) scale(0.0694 -0.0694)">
      <use xlink:href="#DejaVuSans-63"/>
      <use xlink:href="#DejaVuSans-65" transform="translate(54.980469 0)"/>
      <use xlink:href="#DejaVuSans-6e" transform="translate(116.503906 0)"/>
      <use xlink:href="#DejaVuSans-74" transform="translate(179.882812 0)"/>
      <use xlink:href="#DejaVuSans-65" transform="translate(219.091797 0)"/>
      <use xlink:href="#DejaVuSans-72" transform="translate(280.615234 0)"/>
      <use xlink:href="#DejaVuSans-20" transform="translate(321.728516 0)"/>
      <use xlink:href="#DejaVuSans-7c" transform="translate(353.515625 0)"/>
      <use xlink:href="#DejaVuSans-20" transform="translate(387.207031 0)"/>
      <use xlink:href="#DejaVuSans-31" transform="translate(418.994141 0)"/>
      <use xlink:href="#DejaVuSans-30" transform="translate(482.617188 0)"/>
      <use xlink:href="#DejaVuSans-38" transform="translate(546.240234 0)"/>
      <use xlink:href="#DejaVuSans-30" transform="translate(609.863281 0)"/>
      <use xlink:href="#DejaVuSans-70" transform="translate(673.486328 0)"/>
      <use xlink:href="#DejaVuSans-20" transform="translate(736.962891 0)"/>
      <use xlink:href="#DejaVuSans-28" transform="translate(768.75 0)"/>
      <use xlink:href="#DejaVuSans-6e" transform="translate(807.763672 0)"/>
      <use xlink:href="#DejaVuSans-3d" transform="translate(871.142578 0)"/>
      <use xlink:href="#DejaVuSans-33" transform="translate(954.931641 0)"/>
      <use xlink:href="#DejaVuSans-30" transform="translate(1018.554688 0)"/>
      <use xlink:href="#DejaVuSans-30" transform="translate(1082.177734 0)"/>
      <use xlink:href="#DejaVuSans-30" transform="translate(1145.800781 0)"/>
      <use xlink:href="#DejaVuSans-29" transform="translate(1209.423828 0)"/>
     </g>
    </g>
    <g id="line2d_52">
     <path d="M 364.387594 307.728678 
L 371.327594 307.728678 
L 378.267594 307.728678 
" style="fill: none; stroke-dasharray: 8.96,2.24,1.4,2.24; stroke-dashoffset: 0; stroke: #2ca02c; stroke-opacity: 0.85; stroke-width: 1.4"/>
    </g>
    <g id="text_29">
     <!-- center | 2K (n=3000) -->
     <g transform="translate(383.819594 310.157678) scale(0.0694 -0.0694)">
      <use xlink:href="#DejaVuSans-63"/>
      <use xlink:href="#DejaVuSans-65" transform="translate(54.980469 0)"/>
      <use xlink:href="#DejaVuSans-6e" transform="translate(116.503906 0)"/>
      <use xlink:href="#DejaVuSans-74" transform="translate(179.882812 0)"/>
      <use xlink:href="#DejaVuSans-65" transform="translate(219.091797 0)"/>
      <use xlink:href="#DejaVuSans-72" transform="translate(280.615234 0)"/>
      <use xlink:href="#DejaVuSans-20" transform="translate(321.728516 0)"/>
      <use xlink:href="#DejaVuSans-7c" transform="translate(353.515625 0)"/>
      <use xlink:href="#DejaVuSans-20" transform="translate(387.207031 0)"/>
      <use xlink:href="#DejaVuSans-32" transform="translate(418.994141 0)"/>
      <use xlink:href="#DejaVuSans-4b" transform="translate(482.617188 0)"/>
      <use xlink:href="#DejaVuSans-20" transform="translate(548.193359 0)"/>
      <use xlink:href="#DejaVuSans-28" transform="translate(579.980469 0)"/>
      <use xlink:href="#DejaVuSans-6e" transform="translate(618.994141 0)"/>
      <use xlink:href="#DejaVuSans-3d" transform="translate(682.373047 0)"/>
      <use xlink:href="#DejaVuSans-33" transform="translate(766.162109 0)"/>
      <use xlink:href="#DejaVuSans-30" transform="translate(829.785156 0)"/>
      <use xlink:href="#DejaVuSans-30" transform="translate(893.408203 0)"/>
      <use xlink:href="#DejaVuSans-30" transform="translate(957.03125 0)"/>
      <use xlink:href="#DejaVuSans-29" transform="translate(1020.654297 0)"/>
     </g>
    </g>
   </g>
  </g>
  <g id="axes_2">
   <g id="patch_8">
    <path d="M 527.8375 318.04 
L 989.28 318.04 
L 989.28 50.64 
L 527.8375 50.64 
z
" style="fill: #ffffff"/>
   </g>
   <g id="matplotlib.axis_3">
    <g id="xtick_9">
     <g id="line2d_53">
      <path d="M 527.8375 318.04 
L 527.8375 50.64 
" clip-path="url(#p9f8eb78f0f)" style="fill: none; stroke: #b0b0b0; stroke-opacity: 0.3; stroke-width: 0.8; stroke-linecap: square"/>
     </g>
     <g id="line2d_54">
      <g>
       <use xlink:href="#m86dd94dd9c" x="527.8375" y="318.04" style="stroke: #000000; stroke-width: 0.8"/>
      </g>
     </g>
     <g id="text_30">
      <!-- 0.0 -->
      <g transform="translate(519.885938 332.638438) scale(0.1 -0.1)">
       <use xlink:href="#DejaVuSans-30"/>
       <use xlink:href="#DejaVuSans-2e" transform="translate(63.623047 0)"/>
       <use xlink:href="#DejaVuSans-30" transform="translate(95.410156 0)"/>
      </g>
     </g>
    </g>
    <g id="xtick_10">
     <g id="line2d_55">
      <path d="M 620.126 318.04 
L 620.126 50.64 
" clip-path="url(#p9f8eb78f0f)" style="fill: none; stroke: #b0b0b0; stroke-opacity: 0.3; stroke-width: 0.8; stroke-linecap: square"/>
     </g>
     <g id="line2d_56">
      <g>
       <use xlink:href="#m86dd94dd9c" x="620.126" y="318.04" style="stroke: #000000; stroke-width: 0.8"/>
      </g>
     </g>
     <g id="text_31">
      <!-- 0.2 -->
      <g transform="translate(612.174438 332.638438) scale(0.1 -0.1)">
       <use xlink:href="#DejaVuSans-30"/>
       <use xlink:href="#DejaVuSans-2e" transform="translate(63.623047 0)"/>
       <use xlink:href="#DejaVuSans-32" transform="translate(95.410156 0)"/>
      </g>
     </g>
    </g>
    <g id="xtick_11">
     <g id="line2d_57">
      <path d="M 712.4145 318.04 
L 712.4145 50.64 
" clip-path="url(#p9f8eb78f0f)" style="fill: none; stroke: #b0b0b0; stroke-opacity: 0.3; stroke-width: 0.8; stroke-linecap: square"/>
     </g>
     <g id="line2d_58">
      <g>
       <use xlink:href="#m86dd94dd9c" x="712.4145" y="318.04" style="stroke: #000000; stroke-width: 0.8"/>
      </g>
     </g>
     <g id="text_32">
      <!-- 0.4 -->
      <g transform="translate(704.462938 332.638438) scale(0.1 -0.1)">
       <use xlink:href="#DejaVuSans-30"/>
       <use xlink:href="#DejaVuSans-2e" transform="translate(63.623047 0)"/>
       <use xlink:href="#DejaVuSans-34" transform="translate(95.410156 0)"/>
      </g>
     </g>
    </g>
    <g id="xtick_12">
     <g id="line2d_59">
      <path d="M 804.703 318.04 
L 804.703 50.64 
" clip-path="url(#p9f8eb78f0f)" style="fill: none; stroke: #b0b0b0; stroke-opacity: 0.3; stroke-width: 0.8; stroke-linecap: square"/>
     </g>
     <g id="line2d_60">
      <g>
       <use xlink:href="#m86dd94dd9c" x="804.703" y="318.04" style="stroke: #000000; stroke-width: 0.8"/>
      </g>
     </g>
     <g id="text_33">
      <!-- 0.6 -->
      <g transform="translate(796.751438 332.638438) scale(0.1 -0.1)">
       <use xlink:href="#DejaVuSans-30"/>
       <use xlink:href="#DejaVuSans-2e" transform="translate(63.623047 0)"/>
       <use xlink:href="#DejaVuSans-36" transform="translate(95.410156 0)"/>
      </g>
     </g>
    </g>
    <g id="xtick_13">
     <g id="line2d_61">
      <path d="M 896.9915 318.04 
L 896.9915 50.64 
" clip-path="url(#p9f8eb78f0f)" style="fill: none; stroke: #b0b0b0; stroke-opacity: 0.3; stroke-width: 0.8; stroke-linecap: square"/>
     </g>
     <g id="line2d_62">
      <g>
       <use xlink:href="#m86dd94dd9c" x="896.9915" y="318.04" style="stroke: #000000; stroke-width: 0.8"/>
      </g>
     </g>
     <g id="text_34">
      <!-- 0.8 -->
      <g transform="translate(889.039938 332.638438) scale(0.1 -0.1)">
       <use xlink:href="#DejaVuSans-30"/>
       <use xlink:href="#DejaVuSans-2e" transform="translate(63.623047 0)"/>
       <use xlink:href="#DejaVuSans-38" transform="translate(95.410156 0)"/>
      </g>
     </g>
    </g>
    <g id="xtick_14">
     <g id="line2d_63">
      <path d="M 989.28 318.04 
L 989.28 50.64 
" clip-path="url(#p9f8eb78f0f)" style="fill: none; stroke: #b0b0b0; stroke-opacity: 0.3; stroke-width: 0.8; stroke-linecap: square"/>
     </g>
     <g id="line2d_64">
      <g>
       <use xlink:href="#m86dd94dd9c" x="989.28" y="318.04" style="stroke: #000000; stroke-width: 0.8"/>
      </g>
     </g>
     <g id="text_35">
      <!-- 1.0 -->
      <g transform="translate(981.328438 332.638438) scale(0.1 -0.1)">
       <use xlink:href="#DejaVuSans-31"/>
       <use xlink:href="#DejaVuSans-2e" transform="translate(63.623047 0)"/>
       <use xlink:href="#DejaVuSans-30" transform="translate(95.410156 0)"/>
      </g>
     </g>
    </g>
    <g id="text_36">
     <!-- Latency (ms) -->
     <g transform="translate(725.829063 346.316563) scale(0.1 -0.1)">
      <use xlink:href="#DejaVuSans-4c"/>
      <use xlink:href="#DejaVuSans-61" transform="translate(55.712891 0)"/>
      <use xlink:href="#DejaVuSans-74" transform="translate(116.992188 0)"/>
      <use xlink:href="#DejaVuSans-65" transform="translate(156.201172 0)"/>
      <use xlink:href="#DejaVuSans-6e" transform="translate(217.724609 0)"/>
      <use xlink:href="#DejaVuSans-63" transform="translate(281.103516 0)"/>
      <use xlink:href="#DejaVuSans-79" transform="translate(336.083984 0)"/>
      <use xlink:href="#DejaVuSans-20" transform="translate(395.263672 0)"/>
      <use xlink:href="#DejaVuSans-28" transform="translate(427.050781 0)"/>
      <use xlink:href="#DejaVuSans-6d" transform="translate(466.064453 0)"/>
      <use xlink:href="#DejaVuSans-73" transform="translate(563.476562 0)"/>
      <use xlink:href="#DejaVuSans-29" transform="translate(615.576172 0)"/>
     </g>
    </g>
   </g>
   <g id="matplotlib.axis_4">
    <g id="ytick_7">
     <g id="line2d_65">
      <path d="M 527.8375 318.04 
L 989.28 318.04 
" clip-path="url(#p9f8eb78f0f)" style="fill: none; stroke: #b0b0b0; stroke-opacity: 0.3; stroke-width: 0.8; stroke-linecap: square"/>
     </g>
     <g id="line2d_66">
      <g>
       <use xlink:href="#m3f0d0d7763" x="527.8375" y="318.04" style="stroke: #000000; stroke-width: 0.8"/>
      </g>
     </g>
    </g>
    <g id="ytick_8">
     <g id="line2d_67">
      <path d="M 527.8375 264.56 
L 989.28 264.56 
" clip-path="url(#p9f8eb78f0f)" style="fill: none; stroke: #b0b0b0; stroke-opacity: 0.3; stroke-width: 0.8; stroke-linecap: square"/>
     </g>
     <g id="line2d_68">
      <g>
       <use xlink:href="#m3f0d0d7763" x="527.8375" y="264.56" style="stroke: #000000; stroke-width: 0.8"/>
      </g>
     </g>
    </g>
    <g id="ytick_9">
     <g id="line2d_69">
      <path d="M 527.8375 211.08 
L 989.28 211.08 
" clip-path="url(#p9f8eb78f0f)" style="fill: none; stroke: #b0b0b0; stroke-opacity: 0.3; stroke-width: 0.8; stroke-linecap: square"/>
     </g>
     <g id="line2d_70">
      <g>
       <use xlink:href="#m3f0d0d7763" x="527.8375" y="211.08" style="stroke: #000000; stroke-width: 0.8"/>
      </g>
     </g>
    </g>
    <g id="ytick_10">
     <g id="line2d_71">
      <path d="M 527.8375 157.6 
L 989.28 157.6 
" clip-path="url(#p9f8eb78f0f)" style="fill: none; stroke: #b0b0b0; stroke-opacity: 0.3; stroke-width: 0.8; stroke-linecap: square"/>
     </g>
     <g id="line2d_72">
      <g>
       <use xlink:href="#m3f0d0d7763" x="527.8375" y="157.6" style="stroke: #000000; stroke-width: 0.8"/>
      </g>
     </g>
    </g>
    <g id="ytick_11">
     <g id="line2d_73">
      <path d="M 527.8375 104.12 
L 989.28 104.12 
" clip-path="url(#p9f8eb78f0f)" style="fill: none; stroke: #b0b0b0; stroke-opacity: 0.3; stroke-width: 0.8; stroke-linecap: square"/>
     </g>
     <g id="line2d_74">
      <g>
       <use xlink:href="#m3f0d0d7763" x="527.8375" y="104.12" style="stroke: #000000; stroke-width: 0.8"/>
      </g>
     </g>
    </g>
    <g id="ytick_12">
     <g id="line2d_75">
      <path d="M 527.8375 50.64 
L 989.28 50.64 
" clip-path="url(#p9f8eb78f0f)" style="fill: none; stroke: #b0b0b0; stroke-opacity: 0.3; stroke-width: 0.8; stroke-linecap: square"/>
     </g>
     <g id="line2d_76">
      <g>
       <use xlink:href="#m3f0d0d7763" x="527.8375" y="50.64" style="stroke: #000000; stroke-width: 0.8"/>
      </g>
     </g>
    </g>
   </g>
   <g id="patch_9">
    <path d="M 527.8375 318.04 
L 527.8375 50.64 
" style="fill: none; stroke: #000000; stroke-width: 0.8; stroke-linejoin: miter; stroke-linecap: square"/>
   </g>
   <g id="patch_10">
    <path d="M 989.28 318.04 
L 989.28 50.64 
" style="fill: none; stroke: #000000; stroke-width: 0.8; stroke-linejoin: miter; stroke-linecap: square"/>
   </g>
   <g id="patch_11">
    <path d="M 527.8375 318.04 
L 989.28 318.04 
" style="fill: none; stroke: #000000; stroke-width: 0.8; stroke-linejoin: miter; stroke-linecap: square"/>
   </g>
   <g id="patch_12">
    <path d="M 527.8375 50.64 
L 989.28 50.64 
" style="fill: none; stroke: #000000; stroke-width: 0.8; stroke-linejoin: miter; stroke-linecap: square"/>
   </g>
   <g id="text_37">
    <!-- Orin Nano: per-ω FFmpeg co-runner -->
    <g transform="translate(650.501563 44.64) scale(0.12 -0.12)">
     <defs>
      <path id="DejaVuSans-4e" d="M 628 4666 
L 1478 4666 
L 3547 763 
L 3547 4666 
L 4159 4666 
L 4159 0 
L 3309 0 
L 1241 3903 
L 1241 0 
L 628 0 
L 628 4666 
z
" transform="scale(0.015625)"/>
     </defs>
     <use xlink:href="#DejaVuSans-4f"/>
     <use xlink:href="#DejaVuSans-72" transform="translate(78.710938 0)"/>
     <use xlink:href="#DejaVuSans-69" transform="translate(119.824219 0)"/>
     <use xlink:href="#DejaVuSans-6e" transform="translate(147.607422 0)"/>
     <use xlink:href="#DejaVuSans-20" transform="translate(210.986328 0)"/>
     <use xlink:href="#DejaVuSans-4e" transform="translate(242.773438 0)"/>
     <use xlink:href="#DejaVuSans-61" transform="translate(317.578125 0)"/>
     <use xlink:href="#DejaVuSans-6e" transform="translate(378.857422 0)"/>
     <use xlink:href="#DejaVuSans-6f" transform="translate(442.236328 0)"/>
     <use xlink:href="#DejaVuSans-3a" transform="translate(503.417969 0)"/>
     <use xlink:href="#DejaVuSans-20" transform="translate(537.109375 0)"/>
     <use xlink:href="#DejaVuSans-70" transform="translate(568.896484 0)"/>
     <use xlink:href="#DejaVuSans-65" transform="translate(632.373047 0)"/>
     <use xlink:href="#DejaVuSans-72" transform="translate(693.896484 0)"/>
     <use xlink:href="#DejaVuSans-2d" transform="translate(728.634766 0)"/>
     <use xlink:href="#DejaVuSans-3c9" transform="translate(764.71875 0)"/>
     <use xlink:href="#DejaVuSans-20" transform="translate(848.458984 0)"/>
     <use xlink:href="#DejaVuSans-46" transform="translate(880.246094 0)"/>
     <use xlink:href="#DejaVuSans-46" transform="translate(937.765625 0)"/>
     <use xlink:href="#DejaVuSans-6d" transform="translate(995.285156 0)"/>
     <use xlink:href="#DejaVuSans-70" transform="translate(1092.697266 0)"/>
     <use xlink:href="#DejaVuSans-65" transform="translate(1156.173828 0)"/>
     <use xlink:href="#DejaVuSans-67" transform="translate(1217.697266 0)"/>
     <use xlink:href="#DejaVuSans-20" transform="translate(1281.173828 0)"/>
     <use xlink:href="#DejaVuSans-63" transform="translate(1312.960938 0)"/>
     <use xlink:href="#DejaVuSans-6f" transform="translate(1367.941406 0)"/>
     <use xlink:href="#DejaVuSans-2d" transform="translate(1430.998047 0)"/>
     <use xlink:href="#DejaVuSans-72" transform="translate(1467.082031 0)"/>
     <use xlink:href="#DejaVuSans-75" transform="translate(1508.195312 0)"/>
     <use xlink:href="#DejaVuSans-6e" transform="translate(1571.574219 0)"/>
     <use xlink:href="#DejaVuSans-6e" transform="translate(1634.953125 0)"/>
     <use xlink:href="#DejaVuSans-65" transform="translate(1698.332031 0)"/>
     <use xlink:href="#DejaVuSans-72" transform="translate(1759.855469 0)"/>
    </g>
   </g>
  </g>
  <g id="text_38">
   <!-- Week 9: training-step latency CDF (per-ω × FFmpeg co-runner) -->
   <g transform="translate(313.960312 16.318125) scale(0.12 -0.12)">
    <defs>
     <path id="DejaVuSans-57" d="M 213 4666 
L 850 4666 
L 1831 722 
L 2809 4666 
L 3519 4666 
L 4500 722 
L 5478 4666 
L 6119 4666 
L 4947 0 
L 4153 0 
L 3169 4050 
L 2175 0 
L 1381 0 
L 213 4666 
z
" transform="scale(0.015625)"/>
     <path id="DejaVuSans-6b" d="M 581 4863 
L 1159 4863 
L 1159 1991 
L 2875 3500 
L 3609 3500 
L 1753 1863 
L 3688 0 
L 2938 0 
L 1159 1709 
L 1159 0 
L 581 0 
L 581 4863 
z
" transform="scale(0.015625)"/>
     <path id="DejaVuSans-39" d="M 703 97 
L 703 672 
Q 941 559 1184 500 
Q 1428 441 1663 441 
Q 2288 441 2617 861 
Q 2947 1281 2994 2138 
Q 2813 1869 2534 1725 
Q 2256 1581 1919 1581 
Q 1219 1581 811 2004 
Q 403 2428 403 3163 
Q 403 3881 828 4315 
Q 1253 4750 1959 4750 
Q 2769 4750 3195 4129 
Q 3622 3509 3622 2328 
Q 3622 1225 3098 567 
Q 2575 -91 1691 -91 
Q 1453 -91 1209 -44 
Q 966 3 703 97 
z
M 1959 2075 
Q 2384 2075 2632 2365 
Q 2881 2656 2881 3163 
Q 2881 3666 2632 3958 
Q 2384 4250 1959 4250 
Q 1534 4250 1286 3958 
Q 1038 3666 1038 3163 
Q 1038 2656 1286 2365 
Q 1534 2075 1959 2075 
z
" transform="scale(0.015625)"/>
     <path id="DejaVuSans-6c" d="M 603 4863 
L 1178 4863 
L 1178 0 
L 603 0 
L 603 4863 
z
" transform="scale(0.015625)"/>
     <path id="DejaVuSans-d7" d="M 4488 3438 
L 3059 2003 
L 4488 575 
L 4116 197 
L 2681 1631 
L 1247 197 
L 878 575 
L 2303 2003 
L 878 3438 
L 1247 3816 
L 2681 2381 
L 4116 3816 
L 4488 3438 
z
" transform="scale(0.015625)"/>
    </defs>
    <use xlink:href="#DejaVuSans-57"/>
    <use xlink:href="#DejaVuSans-65" transform="translate(93.001953 0)"/>
    <use xlink:href="#DejaVuSans-65" transform="translate(154.525391 0)"/>
    <use xlink:href="#DejaVuSans-6b" transform="translate(216.048828 0)"/>
    <use xlink:href="#DejaVuSans-20" transform="translate(273.958984 0)"/>
    <use xlink:href="#DejaVuSans-39" transform="translate(305.746094 0)"/>
    <use xlink:href="#DejaVuSans-3a" transform="translate(369.369141 0)"/>
    <use xlink:href="#DejaVuSans-20" transform="translate(403.060547 0)"/>
    <use xlink:href="#DejaVuSans-74" transform="translate(434.847656 0)"/>
    <use xlink:href="#DejaVuSans-72" transform="translate(474.056641 0)"/>
    <use xlink:href="#DejaVuSans-61" transform="translate(515.169922 0)"/>
    <use xlink:href="#DejaVuSans-69" transform="translate(576.449219 0)"/>
    <use xlink:href="#DejaVuSans-6e" transform="translate(604.232422 0)"/>
    <use xlink:href="#DejaVuSans-69" transform="translate(667.611328 0)"/>
    <use xlink:href="#DejaVuSans-6e" transform="translate(695.394531 0)"/>
    <use xlink:href="#DejaVuSans-67" transform="translate(758.773438 0)"/>
    <use xlink:href="#DejaVuSans-2d" transform="translate(822.25 0)"/>
    <use xlink:href="#DejaVuSans-73" transform="translate(858.333984 0)"/>
    <use xlink:href="#DejaVuSans-74" transform="translate(910.433594 0)"/>
    <use xlink:href="#DejaVuSans-65" transform="translate(949.642578 0)"/>
    <use xlink:href="#DejaVuSans-70" transform="translate(1011.166016 0)"/>
    <use xlink:href="#DejaVuSans-20" transform="translate(1074.642578 0)"/>
    <use xlink:href="#DejaVuSans-6c" transform="translate(1106.429688 0)"/>
    <use xlink:href="#DejaVuSans-61" transform="translate(1134.212891 0)"/>
    <use xlink:href="#DejaVuSans-74" transform="translate(1195.492188 0)"/>
    <use xlink:href="#DejaVuSans-65" transform="translate(1234.701172 0)"/>
    <use xlink:href="#DejaVuSans-6e" transform="translate(1296.224609 0)"/>
    <use xlink:href="#DejaVuSans-63" transform="translate(1359.603516 0)"/>
    <use xlink:href="#DejaVuSans-79" transform="translate(1414.583984 0)"/>
    <use xlink:href="#DejaVuSans-20" transform="translate(1473.763672 0)"/>
    <use xlink:href="#DejaVuSans-43" transform="translate(1505.550781 0)"/>
    <use xlink:href="#DejaVuSans-44" transform="translate(1575.375 0)"/>
    <use xlink:href="#DejaVuSans-46" transform="translate(1652.376953 0)"/>
    <use xlink:href="#DejaVuSans-20" transform="translate(1709.896484 0)"/>
    <use xlink:href="#DejaVuSans-28" transform="translate(1741.683594 0)"/>
    <use xlink:href="#DejaVuSans-70" transform="translate(1780.697266 0)"/>
    <use xlink:href="#DejaVuSans-65" transform="translate(1844.173828 0)"/>
    <use xlink:href="#DejaVuSans-72" transform="translate(1905.697266 0)"/>
    <use xlink:href="#DejaVuSans-2d" transform="translate(1940.435547 0)"/>
    <use xlink:href="#DejaVuSans-3c9" transform="translate(1976.519531 0)"/>
    <use xlink:href="#DejaVuSans-20" transform="translate(2060.259766 0)"/>
    <use xlink:href="#DejaVuSans-d7" transform="translate(2092.046875 0)"/>
    <use xlink:href="#DejaVuSans-20" transform="translate(2175.835938 0)"/>
    <use xlink:href="#DejaVuSans-46" transform="translate(2207.623047 0)"/>
    <use xlink:href="#DejaVuSans-46" transform="translate(2265.142578 0)"/>
    <use xlink:href="#DejaVuSans-6d" transform="translate(2322.662109 0)"/>
    <use xlink:href="#DejaVuSans-70" transform="translate(2420.074219 0)"/>
    <use xlink:href="#DejaVuSans-65" transform="translate(2483.550781 0)"/>
    <use xlink:href="#DejaVuSans-67" transform="translate(2545.074219 0)"/>
    <use xlink:href="#DejaVuSans-20" transform="translate(2608.550781 0)"/>
    <use xlink:href="#DejaVuSans-63" transform="translate(2640.337891 0)"/>
    <use xlink:href="#DejaVuSans-6f" transform="translate(2695.318359 0)"/>
    <use xlink:href="#DejaVuSans-2d" transform="translate(2758.375 0)"/>
    <use xlink:href="#DejaVuSans-72" transform="translate(2794.458984 0)"/>
    <use xlink:href="#DejaVuSans-75" transform="translate(2835.572266 0)"/>
    <use xlink:href="#DejaVuSans-6e" transform="translate(2898.951172 0)"/>
    <use xlink:href="#DejaVuSans-6e" transform="translate(2962.330078 0)"/>
    <use xlink:href="#DejaVuSans-65" transform="translate(3025.708984 0)"/>
    <use xlink:href="#DejaVuSans-72" transform="translate(3087.232422 0)"/>
    <use xlink:href="#DejaVuSans-29" transform="translate(3128.345703 0)"/>
   </g>
  </g>
 </g>
 <defs>
  <clipPath id="ped3d59f5a1">
   <rect x="47.72" y="50.64" width="461.4425" height="267.4"/>
  </clipPath>
  <clipPath id="p9f8eb78f0f">
   <rect x="527.8375" y="50.64" width="461.4425" height="267.4"/>
  </clipPath>
 </defs>
</svg>
